<?xml version="1.0" encoding="utf-8"?>
<!-- Generator: Adobe Illustrator 28.0.0, SVG Export Plug-In . SVG Version: 6.00 Build 0)  -->
<svg version="1.1" id="Layer_1" xmlns="http://www.w3.org/2000/svg" xmlns:xlink="http://www.w3.org/1999/xlink" x="0px" y="0px"
	 viewBox="0 0 500 500" style="enable-background:new 0 0 500 500;" xml:space="preserve">
<style type="text/css">
	.st0{fill:#8C3F65;}
	.st1{fill:#C9E2B0;}
</style>
<g>
	<g>
		<g>
			<path class="st0" d="M81.66,417.14h-2.07c-2.64,0-4.54-0.89-5.68-2.68c-2.24,3.64-5.63,5.45-10.16,5.45
				c-2.3,0-5.43-1.23-9.39-3.68s-6.8-3.71-8.53-3.77c-3.79-0.06-5.68,1.88-5.68,5.8c0,5.02,0.52,10.91,1.55,17.66
				c0.52,3.87,1.41,9.7,2.67,17.49L33,455.05c-1.84-11.77-2.9-18.53-3.19-20.26c-0.98-7.68-1.49-14.46-1.55-20.34
				c-0.06-3.52,1.29-6.72,4.05-9.61c2.58-2.71,5.68-4.07,9.3-4.07c0.98,0,1.75,0.06,2.33,0.17l7.49-11.17
				c3.5-4.04,7.21-6.09,11.11-6.15c3.79-0.06,6.57,1.62,8.35,5.02c0.63,1.33,1.43,4.59,2.41,9.78c0.69,3.75,1.59,5.83,2.71,6.23
				c1.12,0.4,3,0.55,5.64,0.43V417.14z M65.21,407.09c0-1.44-0.4-3.61-1.21-6.49c-0.86-3.4-1.78-5.19-2.76-5.37
				c-1.26,0.35-3.53,3.09-6.8,8.22c5.46,3.58,8.5,5.4,9.13,5.45C64.66,408.91,65.21,408.31,65.21,407.09z"/>
			<path class="st0" d="M116.11,401.64l-2.5,12.12c-2.41-0.23-4.65-0.35-6.72-0.35c-3.33,0-8.26,0.62-14.77,1.86
				c-6.52,1.24-11.41,1.86-14.69,1.86V405.1c5.22,0,9.91-0.49,14.04-1.47c-2.07-0.98-3.76-2.45-5.08-4.42
				c-1.32-1.96-1.98-4.04-1.98-6.23c0-8.37,7.38-13.22,22.14-14.54l2.5,10.91c-3.79,0.35-6.2,0.66-7.24,0.95
				c-3.22,0.81-4.82,2.19-4.82,4.16c0,2.25,2.27,4.07,6.8,5.45c3.9,1.21,7.52,1.82,10.85,1.82
				C115.28,401.73,115.77,401.7,116.11,401.64z"/>
			<path class="st0" d="M137.82,417.14h-11.8v-49.78h11.8V417.14z"/>
			<path class="st0" d="M184.76,417.14h-1.98c-2.87,0-4.77-0.89-5.68-2.68c0.23,0.98,0.34,2.05,0.34,3.2
				c0,5.37-3.25,10.33-9.73,14.89c-1.67,1.21-7.24,4.21-16.71,9l-5.34-10.3l12.75-6.32c5.17-3.41,7.78-6.93,7.84-10.56
				c0-1.67-0.49-4.1-1.46-7.27c-0.29-0.75-0.75-1.86-1.38-3.33c-0.63-1.47-1.12-2.61-1.46-3.42l11.11-3.98
				c1.72,4.21,2.96,6.67,3.7,7.36c1.03,0.92,3.7,1.39,8.01,1.39V417.14z"/>
			<path class="st0" d="M213.87,417.14h-3.7c-4.59,0-8.33-1.21-11.2-3.64c-3.27,2.42-7.84,3.64-13.7,3.64h-4.48V405.1h1.98
				c5.57,0,8.38-1.04,8.44-3.12c0-0.81-0.2-2.05-0.6-3.72c-0.34-1.44-0.6-2.71-0.77-3.81l11.37-2.77c0.46,2.77,0.95,5.51,1.46,8.22
				c0.4,2.08,1.29,3.46,2.67,4.16c1.38,0.69,4.22,1.04,8.53,1.04V417.14z M202.42,438.35h-10.59V427.7h10.59V438.35z"/>
			<path class="st0" d="M231.96,405.1c0.06,4.33-2.18,7.53-6.72,9.61c-3.45,1.62-7.58,2.42-12.4,2.42h-2.76V405.1
				c6.03,0.12,9.04-1.59,9.04-5.11c0-6.93-1.64-17.26-4.91-30.99l11.89-1.9c0.86,4.21,2.12,10.5,3.79,18.87
				C231.21,392.67,231.9,399.04,231.96,405.1z"/>
			<path class="st0" d="M253.49,417.14h-11.8v-49.78h11.8V417.14z"/>
			<path class="st0" d="M384.67,404.24c0,4.5-1.72,7.88-5.17,10.13c-2.87,1.85-6.66,2.77-11.37,2.77c-5.63,0-9.13-1.24-10.51-3.72
				c-2.93,2.42-5.77,3.64-8.53,3.64c-2.41,0-3.96-0.52-4.65-1.56l4.05,15.5c-4.42,1.62-11.14,4.04-20.16,7.27
				c-8.5,2.94-15.3,4.42-20.41,4.42c-6.15,0-11.14-1.92-14.99-5.76c-3.85-3.84-5.8-8.84-5.86-15.02c0-4.73,1.89-13.71,5.68-26.92
				l12.23,3.12l-3.36,11.25c-1.09,3.69-1.67,7.53-1.72,11.51c-0.06,2.77,0.95,5.08,3.01,6.93c1.84,1.67,4.28,2.51,7.32,2.51
				c4.59,0,12.86-2.31,24.81-6.93l-6.8-27.27l11.8-3.38c0.57,2.42,1.21,4.99,1.9,7.71c1.21,3.06,2.98,4.59,5.34,4.59
				c2.64,0,4.33-3.69,5.08-11.08l12.23,1.99c-0.63,2.77-0.95,4.88-0.95,6.32c0,1.91,1.32,2.86,3.96,2.86c3.04,0,4.59-1.07,4.65-3.2
				c0.06-1.96-0.55-4.47-1.81-7.53l11.11-3.55C383.64,397.34,384.67,401.81,384.67,404.24z"/>
			<path class="st0" d="M429.8,417.14h-1.98c-2.87,0-4.77-0.89-5.68-2.68c0.23,0.98,0.34,2.05,0.34,3.2
				c0,5.37-3.25,10.33-9.73,14.89c-1.67,1.21-7.24,4.21-16.71,9l-5.34-10.3l12.75-6.32c5.17-3.41,7.78-6.93,7.84-10.56
				c0-1.67-0.49-4.1-1.46-7.27c-0.29-0.75-0.75-1.86-1.38-3.33c-0.63-1.47-1.12-2.61-1.46-3.42l11.11-3.98
				c1.72,4.21,2.96,6.67,3.7,7.36c1.03,0.92,3.7,1.39,8.01,1.39V417.14z"/>
			<path class="st0" d="M464.43,401.64l-2.5,12.12c-1.78-0.17-3.45-0.29-5-0.35c-3.1-0.06-8.36,0.58-15.76,1.9
				c-6.72,1.21-11.86,1.82-15.42,1.82V405.1c5.28,0,9.96-0.49,14.04-1.47c-4.71-2.42-7.06-5.97-7.06-10.65
				c0-8.43,7.38-13.27,22.14-14.54l2.5,10.91c-3.85,0.35-6.23,0.66-7.15,0.95c-3.27,0.92-4.91,2.31-4.91,4.16
				c0,2.08,2.21,3.9,6.63,5.45c3.62,1.27,6.72,1.9,9.3,1.9C462.33,401.81,463.4,401.76,464.43,401.64z M453.49,371.51h-10.51v-10.73
				h10.51V371.51z"/>
		</g>
	</g>
	<path class="st0" d="M258.94,35.26l-5.85-5.88l-5.85,5.88c-8.11,8.15-8.11,21.38,0,29.53l5.85,5.88l5.85-5.88
		C267.05,56.63,267.05,43.41,258.94,35.26z"/>
	<path class="st1" d="M258.94,286.92l-5.85-5.88l-5.85,5.88c-8.11,8.15-8.11,21.38,0,29.53l5.85,5.88l5.85-5.88
		C267.05,308.3,267.05,295.08,258.94,286.92z"/>
	<path class="st1" d="M326.8,50.02c-21.31,0-41.33,8.34-56.4,23.48c-6.77,6.8-12.2,14.63-16.14,23.27
		c-3.54,7.75-5.8,15.97-6.73,24.49c-15.55-0.68-30.07-7.1-41.14-18.22c-9.49-9.54-15.48-21.41-17.47-34.53
		c19.09,2.97,35.74,14.7,45.06,31.92l1.43,2.64l15.51-8.47l-1.43-2.64c-13.99-25.86-40.86-41.92-70.11-41.92h-8.83v8.87
		c0,21.41,8.3,41.55,23.36,56.69c13.59,13.66,31.24,21.79,50.22,23.24c0.97,0.08,1.94,0.13,2.91,0.17v0.07h8.83
		c2.07,0,4.13-0.08,6.18-0.24c18.98-1.45,36.62-9.57,50.22-23.24c15.06-15.14,23.36-35.27,23.36-56.69v-8.87H326.8z M265.41,120.58
		c1.99-13.12,7.98-25,17.47-34.53c9.49-9.54,21.3-15.56,34.36-17.56C313.12,95.31,292.09,116.44,265.41,120.58z"/>
	<path class="st0" d="M378.04,143.43c0,52.01-31.44,96.64-76.26,115.75c-14.94,6.37-31.36,9.9-48.61,9.92v0c-0.03,0-0.06,0-0.08,0
		c-0.03,0-0.06,0-0.09,0v0c-51.73-0.07-96.1-31.72-115.05-76.79c-6.32-15.03-9.81-31.54-9.81-48.88
		c52.52,0,97.47,32.54,115.99,78.66c5.28,13.16,8.41,27.42,8.96,42.34c0.54-14.92,3.67-29.19,8.95-42.34
		C280.56,175.98,325.52,143.43,378.04,143.43z"/>
	<path class="st1" d="M262.04,138.82v83.27c-5.28,13.16-8.41,27.42-8.95,42.34c-0.54-14.92-3.67-29.19-8.96-42.34v-83.27
		c0.97,0.08,1.94,0.13,2.91,0.17v0.07h8.83C257.94,139.06,260,138.98,262.04,138.82z"/>
</g>
</svg>
