<?xml version="1.0" encoding="utf-8"?>
<!-- Generator: Adobe Illustrator 28.0.0, SVG Export Plug-In . SVG Version: 6.00 Build 0)  -->
<svg version="1.1" id="Layer_1" xmlns="http://www.w3.org/2000/svg" xmlns:xlink="http://www.w3.org/1999/xlink" x="0px" y="0px"
	 viewBox="0 0 500 500" style="enable-background:new 0 0 500 500;" xml:space="preserve">
<style type="text/css">
	.st0{fill:#00BBE4;}
	.st1{fill:#F7BA00;}
</style>
<g>
	<path class="st0" d="M276.8,126.07l-25.98-25.98l30.95-30.95c7.18-7.18,18.81-7.18,25.98,0l0,0c7.18,7.18,7.18,18.81,0,25.98
		L276.8,126.07z"/>
	<path class="st0" d="M224.84,126.07l25.98-25.98l-30.95-30.95c-7.18-7.18-18.81-7.18-25.98,0l0,0c-7.18,7.18-7.18,18.81,0,25.98
		L224.84,126.07z"/>
	<path class="st0" d="M277.14,290.67l-25.98,25.98l37.28,37.1c7.18,7.18,18.81,7.18,25.98,0l0,0c7.18-7.18,7.18-18.81,0-25.98
		L277.14,290.67z"/>
	<path class="st0" d="M203.76,311.91l25.98,25.98l-15.86,15.86c-7.18,7.18-18.81,7.18-25.98,0l0,0c-7.18-7.18-7.18-18.81,0-25.98
		L203.76,311.91z"/>
	<path class="st1" d="M250.82,100.09l-79.58,79.72c-15.23,15.26-15.32,39.95-0.19,55.31l80.3,81.54l80.42-81.78
		c14.44-14.68,14.37-38.26-0.16-52.85l-29.5-29.63l-26.75,27.09l15.45,16.27c7.37,7.76,7.24,19.98-0.3,27.58l-38.88,39.18
		l-40.64-41.34c-7-7.12-7.01-18.52-0.04-25.67l66.84-68.44L250.82,100.09z"/>
	<path class="st1" d="M178.33,394.86c0-2.55,0.45-4.77,1.35-6.68c0.9-1.9,2.19-3.37,3.87-4.39c1.68-1.03,3.62-1.54,5.82-1.54
		c3.22,0,5.73,0.74,7.51,2.21c1.78,1.48,2.82,3.68,3.12,6.61H194c-0.21-1.45-0.68-2.48-1.39-3.09c-0.71-0.62-1.72-0.93-3.02-0.93
		c-1.56,0-2.77,0.66-3.63,1.99c-0.85,1.33-1.29,3.22-1.3,5.69v1.56c0,2.58,0.44,4.53,1.32,5.82c0.88,1.3,2.27,1.95,4.17,1.95
		c1.62,0,2.83-0.36,3.63-1.08v-4.02h-4.34v-4.29h10.58v10.63c-0.96,1.07-2.37,1.93-4.21,2.58c-1.85,0.65-3.88,0.98-6.08,0.98
		c-3.39,0-6.1-1.04-8.13-3.11s-3.11-4.96-3.25-8.66L178.33,394.86z"/>
	<path class="st1" d="M202.79,399.36v-0.5c0-1.97,0.36-3.7,1.09-5.21s1.79-2.67,3.19-3.49c1.4-0.82,3.06-1.24,4.98-1.24
		c2.7,0,4.84,0.84,6.4,2.52c1.56,1.68,2.35,4.02,2.35,7.01v2.33h-11.91c0.21,1.08,0.68,1.93,1.41,2.54
		c0.72,0.62,1.66,0.93,2.81,0.93c1.9,0,3.38-0.66,4.45-1.99l2.74,3.24c-0.75,1.03-1.81,1.85-3.17,2.46
		c-1.37,0.61-2.84,0.92-4.42,0.92c-2.95,0-5.34-0.88-7.17-2.64C203.7,404.47,202.79,402.18,202.79,399.36z M208.89,397.03h6.05
		v-0.59c0-0.9-0.25-1.61-0.75-2.12c-0.5-0.52-1.22-0.77-2.17-0.77C210.26,393.55,209.22,394.71,208.89,397.03z"/>
	<path class="st1" d="M223.09,389.28h5.62l0.2,2.26c1.33-1.74,3.16-2.61,5.49-2.61c2,0,3.5,0.6,4.49,1.8c0.99,1.2,1.5,3,1.54,5.41
		v12.39h-6.01v-12.15c0-0.97-0.2-1.69-0.59-2.14c-0.39-0.46-1.1-0.68-2.13-0.68c-1.17,0-2.05,0.46-2.61,1.39v13.59h-5.99V389.28z"/>
	<path class="st1" d="M242.99,398.72c0-1.92,0.37-3.63,1.12-5.13c0.75-1.5,1.82-2.65,3.22-3.46c1.4-0.81,3.04-1.21,4.93-1.21
		c2.88,0,5.15,0.89,6.81,2.68c1.66,1.78,2.49,4.21,2.49,7.28v0.21c0,3-0.83,5.38-2.5,7.14c-1.67,1.76-3.92,2.64-6.77,2.64
		c-2.74,0-4.94-0.82-6.6-2.46c-1.66-1.64-2.55-3.87-2.69-6.68L242.99,398.72z M248.99,399.09c0,1.78,0.28,3.08,0.84,3.91
		c0.56,0.83,1.38,1.24,2.47,1.24c2.13,0,3.22-1.64,3.27-4.93v-0.6c0-3.45-1.1-5.17-3.31-5.17c-2,0-3.09,1.49-3.25,4.46
		L248.99,399.09z"/>
	<path class="st1" d="M264.24,389.28h5.62l0.2,2.26c1.36-1.74,3.19-2.61,5.49-2.61c2.43,0,4.07,0.97,4.93,2.9
		c1.3-1.93,3.19-2.9,5.66-2.9c3.9,0,5.9,2.36,6.01,7.08v12.52h-6.01v-12.15c0-0.98-0.17-1.7-0.5-2.15
		c-0.33-0.45-0.94-0.68-1.81-0.68c-1.19,0-2.07,0.53-2.65,1.58l0.02,0.25v13.14h-6.01v-12.11c0-1.01-0.16-1.74-0.48-2.19
		c-0.32-0.45-0.93-0.68-1.83-0.68c-1.15,0-2.03,0.53-2.63,1.58v13.39h-5.99V389.28z"/>
	<path class="st1" d="M294.97,399.36v-0.5c0-1.97,0.36-3.7,1.09-5.21c0.73-1.51,1.79-2.67,3.19-3.49c1.4-0.82,3.06-1.24,4.98-1.24
		c2.7,0,4.84,0.84,6.4,2.52c1.56,1.68,2.35,4.02,2.35,7.01v2.33h-11.91c0.21,1.08,0.68,1.93,1.4,2.54c0.72,0.62,1.66,0.93,2.81,0.93
		c1.9,0,3.38-0.66,4.45-1.99l2.74,3.24c-0.75,1.03-1.81,1.85-3.17,2.46c-1.37,0.61-2.84,0.92-4.42,0.92c-2.95,0-5.34-0.88-7.17-2.64
		C295.88,404.47,294.97,402.18,294.97,399.36z M301.07,397.03h6.05v-0.59c0-0.9-0.25-1.61-0.75-2.12c-0.5-0.52-1.22-0.77-2.17-0.77
		C302.45,393.55,301.4,394.71,301.07,397.03z"/>
	<path class="st0" d="M164.11,447.42h10.87v4.8h-17.11v-25.89h6.24V447.42z"/>
	<path class="st0" d="M178.76,442.07c1.54-1.07,3.78-1.6,6.72-1.6h1.85v-1.01c0-1.77-0.76-2.65-2.29-2.65c-1.42,0-2.13,0.7-2.13,2.1
		h-5.99c0-1.86,0.79-3.37,2.37-4.53c1.58-1.16,3.6-1.74,6.06-1.74c2.45,0,4.39,0.6,5.81,1.8c1.42,1.2,2.15,2.84,2.19,4.93v8.52
		c0.02,1.77,0.3,3.12,0.82,4.05v0.3h-5.99c-0.21-0.39-0.4-0.97-0.57-1.73c-1.1,1.39-2.64,2.08-4.62,2.08
		c-1.81,0-3.36-0.55-4.62-1.64c-1.27-1.1-1.9-2.47-1.9-4.13C176.45,444.71,177.22,443.14,178.76,442.07z M183.01,447.79
		c0.37,0.34,0.84,0.52,1.41,0.52c0.75,0,1.37-0.16,1.86-0.48c0.49-0.32,0.84-0.68,1.06-1.08v-3.08h-1.74
		c-2.09,0-3.13,0.94-3.13,2.81C182.46,447.02,182.64,447.46,183.01,447.79z"/>
	<path class="st0" d="M196.7,424.91h5.99v9.62c1.11-1.27,2.55-1.9,4.32-1.9c2.39,0,4.24,0.86,5.55,2.58
		c1.3,1.72,1.96,4.14,1.96,7.26v0.3c0,3.15-0.65,5.58-1.96,7.27c-1.3,1.7-3.14,2.54-5.51,2.54c-1.96,0-3.53-0.78-4.73-2.33
		l-0.25,1.97h-5.37V424.91z M205.54,447.97c1.41,0,2.31-0.69,2.69-2.06c0.19-0.68,0.28-1.85,0.28-3.52c0-1.85-0.25-3.17-0.74-3.96
		c-0.49-0.79-1.25-1.18-2.27-1.18c-1.35,0-2.29,0.52-2.81,1.55v7.65C203.21,447.46,204.16,447.97,205.54,447.97z"/>
	<path class="st0" d="M216.41,442.42c0-1.92,0.37-3.63,1.12-5.13c0.75-1.5,1.82-2.65,3.22-3.46c1.4-0.81,3.04-1.21,4.93-1.21
		c2.88,0,5.15,0.89,6.81,2.68s2.49,4.21,2.49,7.28v0.21c0,3-0.83,5.38-2.5,7.14c-1.67,1.76-3.92,2.64-6.77,2.64
		c-2.74,0-4.94-0.82-6.6-2.46c-1.66-1.64-2.55-3.87-2.69-6.68L216.41,442.42z M222.4,442.8c0,1.78,0.28,3.08,0.84,3.91
		c0.56,0.83,1.38,1.24,2.47,1.24c2.13,0,3.22-1.64,3.27-4.93v-0.6c0-3.45-1.1-5.17-3.31-5.17c-2,0-3.09,1.49-3.25,4.46L222.4,442.8z
		"/>
	<path class="st0" d="M243.28,432.98l0.2,2.47c1.01-1.89,2.41-2.83,4.21-2.83c0.64,0,1.2,0.07,1.67,0.21l-0.11,5.57l-1.97-0.14
		c-1.89,0-3.09,0.59-3.63,1.78v12.18h-5.99v-19.26L243.28,432.98z"/>
	<path class="st0" d="M252.84,442.07c1.54-1.07,3.78-1.6,6.72-1.6h1.85v-1.01c0-1.77-0.76-2.65-2.29-2.65c-1.42,0-2.13,0.7-2.13,2.1
		H251c0-1.86,0.79-3.37,2.37-4.53c1.58-1.16,3.6-1.74,6.06-1.74s4.39,0.6,5.81,1.8s2.15,2.84,2.19,4.93v8.52
		c0.02,1.77,0.3,3.12,0.82,4.05v0.3h-5.99c-0.21-0.39-0.4-0.97-0.57-1.73c-1.1,1.39-2.64,2.08-4.62,2.08
		c-1.81,0-3.35-0.55-4.62-1.64c-1.27-1.1-1.9-2.47-1.9-4.13C250.53,444.71,251.3,443.14,252.84,442.07z M257.09,447.79
		c0.37,0.34,0.84,0.52,1.4,0.52c0.75,0,1.37-0.16,1.86-0.48c0.49-0.32,0.84-0.68,1.06-1.08v-3.08h-1.74c-2.09,0-3.13,0.94-3.13,2.81
		C256.54,447.02,256.73,447.46,257.09,447.79z"/>
	<path class="st0" d="M271.73,432.98v-4.78h5.99v4.78h3.17v4.16h-3.17v8.8c0,0.72,0.13,1.23,0.39,1.51
		c0.26,0.28,0.78,0.43,1.55,0.43c0.59,0,1.09-0.04,1.49-0.11v4.29c-1.08,0.34-2.2,0.52-3.38,0.52c-2.06,0-3.59-0.49-4.57-1.46
		c-0.98-0.97-1.48-2.45-1.48-4.43v-9.55h-2.45v-4.16H271.73z"/>
	<path class="st0" d="M282.49,442.42c0-1.92,0.37-3.63,1.12-5.13c0.75-1.5,1.82-2.65,3.22-3.46c1.4-0.81,3.04-1.21,4.93-1.21
		c2.88,0,5.15,0.89,6.81,2.68c1.66,1.78,2.49,4.21,2.49,7.28v0.21c0,3-0.83,5.38-2.5,7.14c-1.67,1.76-3.92,2.64-6.77,2.64
		c-2.74,0-4.94-0.82-6.6-2.46c-1.66-1.64-2.55-3.87-2.69-6.68L282.49,442.42z M288.48,442.8c0,1.78,0.28,3.08,0.84,3.91
		c0.56,0.83,1.38,1.24,2.47,1.24c2.13,0,3.22-1.64,3.27-4.93v-0.6c0-3.45-1.1-5.17-3.31-5.17c-2,0-3.09,1.49-3.25,4.46L288.48,442.8
		z"/>
	<path class="st0" d="M309.36,432.98l0.2,2.47c1.01-1.89,2.41-2.83,4.21-2.83c0.64,0,1.2,0.07,1.67,0.21l-0.11,5.57l-1.97-0.14
		c-1.89,0-3.09,0.59-3.63,1.78v12.18h-5.99v-19.26L309.36,432.98z"/>
	<path class="st0" d="M315.74,432.98h6.4l3.04,10.85l3.2-10.85h6.42l-7.84,22.46l-0.34,0.82c-1.11,2.49-3.08,3.73-5.9,3.73
		c-0.78,0-1.61-0.12-2.47-0.36v-4.29h0.78c0.84,0,1.48-0.12,1.93-0.36c0.44-0.24,0.77-0.68,0.99-1.31l0.48-1.28L315.74,432.98z"/>
</g>
</svg>
