<?xml version="1.0" encoding="utf-8"?>
<!-- Generator: Adobe Illustrator 28.0.0, SVG Export Plug-In . SVG Version: 6.00 Build 0)  -->
<svg version="1.1" id="Layer_1" xmlns="http://www.w3.org/2000/svg" xmlns:xlink="http://www.w3.org/1999/xlink" x="0px" y="0px"
	 viewBox="0 0 500 500" style="enable-background:new 0 0 500 500;" xml:space="preserve">
<style type="text/css">
	.st0{fill:#404040;}
	.st1{fill:#404041;}
	.st2{fill:#AAD7AD;}
	.st3{fill:#4F8DA7;}
	.st4{fill:#1FBAB3;}
	.st5{fill:#047E79;}
	.st6{fill:#00BCCC;}
</style>
<g>
	<g>
		<g>
			<path class="st0" d="M18.26,235.32h-4.2v-1.36h9.84v1.36h-4.15v12.26h-1.49V235.32z"/>
			<path class="st0" d="M24.09,246.61c-0.62-0.77-0.93-2.01-0.93-3.69c0-1.83,0.33-3.18,1.01-4.06c0.66-0.87,1.72-1.32,3.15-1.32
				c1.32,0,2.29,0.38,2.94,1.13c0.65,0.75,0.97,1.91,0.97,3.48l-0.08,1.12h-6.51c0,0.82,0.09,1.45,0.27,1.91
				c0.18,0.45,0.48,0.79,0.91,1c0.42,0.2,1.02,0.31,1.78,0.31c0.38,0,0.82-0.01,1.32-0.03s0.95-0.04,1.36-0.09l0.58-0.06l0.04,1.16
				c-1.46,0.21-2.67,0.31-3.62,0.31C25.78,247.78,24.72,247.39,24.09,246.61z M29.76,242.09c0-1.2-0.19-2.05-0.58-2.55
				c-0.38-0.51-1.01-0.75-1.87-0.75c-0.91,0-1.57,0.27-2.01,0.8c-0.43,0.53-0.65,1.37-0.66,2.51h5.12V242.09z"/>
			<path class="st0" d="M34.54,247.26c-0.58-0.34-1-0.9-1.24-1.64c-0.25-0.74-0.38-1.73-0.38-2.97c0-1.56,0.27-2.81,0.79-3.74
				c0.52-0.93,1.54-1.39,3.06-1.39c0.4,0,0.8,0.02,1.22,0.06c0.42,0.04,1,0.12,1.72,0.25l-0.06,1.21c-1.04-0.12-1.83-0.18-2.38-0.18
				c-0.75,0-1.32,0.11-1.73,0.34c-0.4,0.23-0.69,0.62-0.84,1.16c-0.15,0.54-0.24,1.32-0.24,2.34c0,0.96,0.08,1.7,0.23,2.24
				c0.15,0.53,0.44,0.92,0.85,1.16c0.41,0.24,1.02,0.37,1.8,0.37l2.32-0.18l0.06,1.22c-1.26,0.19-2.2,0.28-2.83,0.28
				C35.9,247.78,35.12,247.6,34.54,247.26z"/>
			<path class="st0" d="M41.74,233.44h1.47v4.85c0.58-0.27,1.12-0.45,1.61-0.58c0.49-0.12,1-0.18,1.51-0.18
				c0.85,0,1.52,0.15,1.98,0.46c0.46,0.31,0.8,0.81,0.99,1.51c0.19,0.7,0.29,1.65,0.29,2.88v5.2H48.1v-5.16
				c0-0.97-0.06-1.7-0.17-2.19c-0.11-0.49-0.32-0.84-0.63-1.05c-0.31-0.21-0.76-0.32-1.37-0.32c-0.75,0-1.53,0.15-2.35,0.45
				l-0.38,0.14v8.14h-1.47L41.74,233.44z"/>
			<path class="st0" d="M52.11,237.74h1.46v0.69c0.59-0.33,1.13-0.55,1.63-0.69c0.49-0.13,1.01-0.2,1.55-0.2
				c0.84,0,1.49,0.15,1.95,0.48c0.46,0.32,0.79,0.82,0.97,1.51c0.19,0.69,0.29,1.65,0.29,2.87v5.2H58.5v-5.16
				c0-0.93-0.06-1.65-0.17-2.15s-0.31-0.86-0.6-1.08c-0.29-0.22-0.71-0.33-1.26-0.33c-0.44,0-0.91,0.06-1.37,0.17
				c-0.46,0.11-0.84,0.24-1.13,0.39l-0.38,0.18v7.99h-1.48V237.74z"/>
			<path class="st0" d="M62.49,233.8h1.46v1.72h-1.46V233.8z M62.49,237.74h1.46v9.85h-1.46V237.74z"/>
			<path class="st0" d="M67.66,247.26c-0.58-0.34-1-0.9-1.24-1.64c-0.25-0.74-0.38-1.73-0.38-2.97c0-1.56,0.27-2.81,0.79-3.74
				s1.54-1.39,3.06-1.39c0.4,0,0.8,0.02,1.22,0.06c0.42,0.04,1,0.12,1.72,0.25l-0.06,1.21c-1.04-0.12-1.83-0.18-2.38-0.18
				c-0.75,0-1.32,0.11-1.73,0.34c-0.4,0.23-0.69,0.62-0.85,1.16c-0.17,0.54-0.24,1.32-0.24,2.34c0,0.96,0.08,1.7,0.23,2.24
				c0.15,0.53,0.44,0.92,0.85,1.16c0.41,0.24,1.02,0.37,1.8,0.37l2.32-0.18l0.06,1.22c-1.26,0.19-2.2,0.28-2.83,0.28
				C69.02,247.78,68.25,247.6,67.66,247.26z"/>
			<path class="st0" d="M74.93,247.01c-0.48-0.51-0.71-1.25-0.71-2.2c0-0.94,0.24-1.65,0.72-2.1c0.48-0.45,1.24-0.74,2.29-0.84
				l3.09-0.3v-0.84c0-1.25-0.54-1.87-1.62-1.87c-1.06,0-2.36,0.09-3.87,0.25l-0.06-1.12c1.41-0.29,2.69-0.43,3.84-0.43
				c1.12,0,1.93,0.25,2.44,0.76c0.51,0.51,0.76,1.31,0.76,2.41v5.04c0.04,0.49,0.42,0.77,1.14,0.86l-0.06,1.16
				c-1.04,0-1.82-0.27-2.35-0.79c-1.17,0.52-2.35,0.79-3.54,0.79C76.1,247.78,75.41,247.52,74.93,247.01z M79.87,246.09l0.45-0.15
				v-3.25l-2.91,0.28c-0.59,0.06-1.02,0.22-1.28,0.51c-0.27,0.29-0.4,0.71-0.4,1.26c0,1.21,0.5,1.82,1.49,1.82
				C78.11,246.54,79,246.38,79.87,246.09z"/>
			<path class="st0" d="M84.64,233.44h1.47v14.14h-1.47V233.44z"/>
			<path class="st0" d="M93.09,247.01c-0.48-0.51-0.71-1.25-0.71-2.2c0-0.94,0.24-1.65,0.72-2.1c0.48-0.45,1.24-0.74,2.29-0.84
				l3.09-0.3v-0.84c0-1.25-0.54-1.87-1.62-1.87c-1.06,0-2.36,0.09-3.87,0.25l-0.06-1.12c1.41-0.29,2.69-0.43,3.84-0.43
				c1.12,0,1.93,0.25,2.44,0.76c0.51,0.51,0.76,1.31,0.76,2.41v5.04c0.04,0.49,0.42,0.77,1.14,0.86l-0.06,1.16
				c-1.04,0-1.82-0.27-2.35-0.79c-1.17,0.52-2.35,0.79-3.54,0.79C94.25,247.78,93.56,247.52,93.09,247.01z M98.03,246.09l0.45-0.15
				v-3.25l-2.91,0.28c-0.59,0.06-1.02,0.22-1.28,0.51c-0.27,0.29-0.4,0.71-0.4,1.26c0,1.21,0.5,1.82,1.49,1.82
				C96.27,246.54,97.15,246.38,98.03,246.09z"/>
			<path class="st0" d="M102.67,237.74h1.46v0.69c0.59-0.33,1.13-0.55,1.63-0.69c0.49-0.13,1.01-0.2,1.55-0.2
				c0.84,0,1.49,0.15,1.95,0.48c0.45,0.32,0.79,0.82,0.97,1.51c0.19,0.69,0.29,1.65,0.29,2.87v5.2h-1.46v-5.16
				c0-0.93-0.06-1.65-0.17-2.15s-0.31-0.86-0.6-1.08c-0.29-0.22-0.71-0.33-1.26-0.33c-0.44,0-0.91,0.06-1.37,0.17
				s-0.84,0.24-1.13,0.39l-0.38,0.18v7.99h-1.47v-9.85H102.67z"/>
			<path class="st0" d="M113.43,246.57c-0.54-0.81-0.81-2.05-0.81-3.73c0-1.88,0.32-3.23,0.97-4.05c0.65-0.83,1.73-1.24,3.22-1.24
				c0.75,0,1.53,0.09,2.35,0.25v-4.35h1.46v14.14h-1.46v-0.66c-1.01,0.58-2.03,0.86-3.06,0.86
				C114.86,247.78,113.96,247.38,113.43,246.57z M117.63,246.3c0.44-0.11,0.83-0.24,1.14-0.39l0.4-0.18v-6.67
				c-0.85-0.15-1.59-0.23-2.22-0.23c-1.04,0-1.76,0.3-2.18,0.91c-0.41,0.6-0.62,1.6-0.62,2.99c0,1.27,0.17,2.21,0.5,2.82
				c0.33,0.61,0.92,0.92,1.74,0.92C116.76,246.46,117.17,246.41,117.63,246.3z"/>
			<path class="st0" d="M126.47,233.95h1.57l3.13,12.29h1.11l3.13-12.29h1.57l-3.56,13.63h-3.39L126.47,233.95z"/>
			<path class="st0" d="M139.32,247.26c-0.62-0.34-1.05-0.89-1.32-1.63c-0.27-0.73-0.4-1.7-0.4-2.91c0-1.25,0.13-2.25,0.41-3
				c0.28-0.75,0.72-1.31,1.34-1.65c0.62-0.34,1.44-0.52,2.46-0.52c1.04,0,1.86,0.18,2.47,0.53c0.61,0.35,1.05,0.91,1.33,1.65
				c0.28,0.75,0.41,1.75,0.41,2.99c0,1.21-0.13,2.18-0.4,2.91c-0.27,0.73-0.7,1.27-1.31,1.63c-0.61,0.34-1.45,0.52-2.51,0.52
				C140.77,247.78,139.94,247.6,139.32,247.26z M143.49,246.13c0.38-0.24,0.64-0.63,0.8-1.16c0.15-0.53,0.22-1.28,0.22-2.26
				c0-1.02-0.08-1.82-0.23-2.36c-0.15-0.55-0.42-0.94-0.81-1.18s-0.93-0.35-1.64-0.35c-0.71,0-1.26,0.12-1.65,0.35
				c-0.39,0.23-0.66,0.63-0.83,1.18s-0.24,1.34-0.24,2.36c0,0.96,0.08,1.7,0.22,2.25c0.15,0.54,0.42,0.93,0.81,1.17
				c0.39,0.24,0.95,0.37,1.68,0.37C142.57,246.49,143.12,246.37,143.49,246.13z"/>
			<path class="st0" d="M149.45,247.26c-0.58-0.34-1-0.9-1.24-1.64c-0.25-0.74-0.38-1.73-0.38-2.97c0-1.56,0.27-2.81,0.79-3.74
				s1.54-1.39,3.06-1.39c0.4,0,0.8,0.02,1.22,0.06c0.42,0.04,1,0.12,1.72,0.25l-0.06,1.21c-1.04-0.12-1.83-0.18-2.38-0.18
				c-0.75,0-1.32,0.11-1.73,0.34c-0.4,0.23-0.69,0.62-0.84,1.16c-0.15,0.54-0.24,1.32-0.24,2.34c0,0.96,0.08,1.7,0.23,2.24
				c0.15,0.53,0.44,0.92,0.85,1.16c0.41,0.24,1.02,0.37,1.8,0.37l2.32-0.18l0.06,1.22c-1.26,0.19-2.2,0.28-2.83,0.28
				C150.8,247.78,150.03,247.6,149.45,247.26z"/>
			<path class="st0" d="M156.71,247.01c-0.48-0.51-0.71-1.25-0.71-2.2c0-0.94,0.24-1.65,0.72-2.1c0.48-0.45,1.24-0.74,2.29-0.84
				l3.09-0.3v-0.84c0-1.25-0.54-1.87-1.62-1.87c-1.06,0-2.36,0.09-3.87,0.25l-0.06-1.12c1.41-0.29,2.69-0.43,3.84-0.43
				c1.12,0,1.93,0.25,2.44,0.76c0.51,0.51,0.75,1.31,0.75,2.41v5.04c0.04,0.49,0.42,0.77,1.14,0.86l-0.06,1.16
				c-1.04,0-1.82-0.27-2.35-0.79c-1.17,0.52-2.35,0.79-3.54,0.79C157.87,247.78,157.19,247.52,156.71,247.01z M161.66,246.09
				l0.45-0.15v-3.25l-2.91,0.28c-0.59,0.06-1.02,0.22-1.28,0.51c-0.27,0.29-0.4,0.71-0.4,1.26c0,1.21,0.5,1.82,1.49,1.82
				C159.9,246.54,160.77,246.38,161.66,246.09z"/>
			<path class="st0" d="M167.87,247.47c-0.38-0.22-0.64-0.59-0.81-1.11c-0.17-0.52-0.24-1.24-0.24-2.18V239h-1.39v-1.28h1.39v-3.01
				h1.46v3.01h3.13V239h-3.13v4.7c0,0.73,0.02,1.28,0.08,1.65c0.06,0.37,0.18,0.64,0.39,0.83c0.2,0.19,0.52,0.29,0.95,0.29
				l1.75-0.12l0.1,1.22c-0.93,0.14-1.64,0.22-2.1,0.22C168.77,247.8,168.25,247.69,167.87,247.47z"/>
			<path class="st0" d="M173.02,233.8h1.46v1.72h-1.46V233.8z M173.02,237.74h1.46v9.85h-1.46V237.74z"/>
			<path class="st0" d="M178.27,247.26c-0.62-0.34-1.05-0.89-1.32-1.63c-0.27-0.73-0.4-1.7-0.4-2.91c0-1.25,0.13-2.25,0.41-3
				c0.28-0.75,0.72-1.31,1.34-1.65c0.62-0.34,1.44-0.52,2.46-0.52c1.04,0,1.86,0.18,2.47,0.53s1.05,0.91,1.33,1.65
				c0.28,0.75,0.41,1.75,0.41,2.99c0,1.21-0.13,2.18-0.4,2.91c-0.27,0.73-0.7,1.27-1.31,1.63c-0.61,0.34-1.45,0.52-2.51,0.52
				C179.72,247.78,178.89,247.6,178.27,247.26z M182.45,246.13c0.38-0.24,0.64-0.63,0.8-1.16c0.15-0.53,0.22-1.28,0.22-2.26
				c0-1.02-0.08-1.82-0.23-2.36c-0.15-0.55-0.43-0.94-0.81-1.18c-0.38-0.23-0.93-0.35-1.64-0.35s-1.26,0.12-1.65,0.35
				s-0.66,0.63-0.83,1.18c-0.17,0.55-0.24,1.34-0.24,2.36c0,0.96,0.08,1.7,0.22,2.25c0.15,0.54,0.42,0.93,0.81,1.17
				c0.39,0.24,0.95,0.37,1.68,0.37C181.52,246.49,182.07,246.37,182.45,246.13z"/>
			<path class="st0" d="M187.2,237.74h1.46v0.69c0.59-0.33,1.13-0.55,1.63-0.69c0.49-0.13,1.01-0.2,1.55-0.2
				c0.84,0,1.49,0.15,1.95,0.48c0.46,0.32,0.79,0.82,0.97,1.51c0.19,0.69,0.29,1.65,0.29,2.87v5.2h-1.46v-5.16
				c0-0.93-0.06-1.65-0.17-2.15c-0.11-0.5-0.31-0.86-0.6-1.08c-0.29-0.22-0.71-0.33-1.26-0.33c-0.44,0-0.91,0.06-1.37,0.17
				c-0.46,0.11-0.84,0.24-1.13,0.39l-0.38,0.18v7.99h-1.47v-9.85H187.2z"/>
			<path class="st0" d="M197.66,247.01c-0.48-0.51-0.71-1.25-0.71-2.2c0-0.94,0.24-1.65,0.72-2.1c0.48-0.45,1.24-0.74,2.29-0.84
				l3.09-0.3v-0.84c0-1.25-0.54-1.87-1.62-1.87c-1.06,0-2.36,0.09-3.87,0.25l-0.06-1.12c1.41-0.29,2.69-0.43,3.84-0.43
				c1.12,0,1.93,0.25,2.44,0.76c0.51,0.51,0.76,1.31,0.76,2.41v5.04c0.04,0.49,0.42,0.77,1.14,0.86l-0.06,1.16
				c-1.04,0-1.82-0.27-2.35-0.79c-1.17,0.52-2.35,0.79-3.54,0.79C198.82,247.78,198.12,247.52,197.66,247.01z M202.59,246.09
				l0.45-0.15v-3.25l-2.91,0.28c-0.59,0.06-1.02,0.22-1.28,0.51c-0.27,0.29-0.4,0.71-0.4,1.26c0,1.21,0.5,1.82,1.49,1.82
				C200.83,246.54,201.72,246.38,202.59,246.09z"/>
			<path class="st0" d="M207.36,233.44h1.47v14.14h-1.47V233.44z"/>
			<path class="st0" d="M218.76,235.32h-4.2v-1.36h9.84v1.36h-4.15v12.26h-1.49V235.32z"/>
			<path class="st0" d="M224.2,237.74h1.46v1.34c1.13-0.77,2.34-1.3,3.61-1.56v1.49c-0.51,0.1-1.06,0.27-1.66,0.49
				c-0.6,0.22-1.07,0.42-1.43,0.6l-0.49,0.25v7.23h-1.47v-9.84H224.2z"/>
			<path class="st0" d="M230.9,247.01c-0.48-0.51-0.71-1.25-0.71-2.2c0-0.94,0.24-1.65,0.72-2.1c0.48-0.45,1.24-0.74,2.29-0.84
				l3.09-0.3v-0.84c0-1.25-0.54-1.87-1.62-1.87c-1.06,0-2.36,0.09-3.87,0.25l-0.06-1.12c1.41-0.29,2.69-0.43,3.84-0.43
				c1.12,0,1.93,0.25,2.44,0.76s0.75,1.31,0.75,2.41v5.04c0.04,0.49,0.42,0.77,1.14,0.86l-0.06,1.16c-1.04,0-1.82-0.27-2.35-0.79
				c-1.17,0.52-2.35,0.79-3.54,0.79C232.05,247.78,231.36,247.52,230.9,247.01z M235.83,246.09l0.45-0.15v-3.25l-2.91,0.28
				c-0.59,0.06-1.02,0.22-1.28,0.51c-0.27,0.29-0.4,0.71-0.4,1.26c0,1.21,0.5,1.82,1.49,1.82
				C234.07,246.54,234.96,246.38,235.83,246.09z"/>
			<path class="st0" d="M240.48,233.8h1.46v1.72h-1.46V233.8z M240.48,237.74h1.46v9.85h-1.46V237.74z"/>
			<path class="st0" d="M244.58,237.74h1.46v0.69c0.59-0.33,1.13-0.55,1.63-0.69c0.49-0.13,1.01-0.2,1.55-0.2
				c0.84,0,1.49,0.15,1.95,0.48c0.46,0.32,0.79,0.82,0.97,1.51c0.19,0.69,0.29,1.65,0.29,2.87v5.2h-1.46v-5.16
				c0-0.93-0.06-1.65-0.17-2.15c-0.11-0.5-0.31-0.86-0.6-1.08c-0.29-0.22-0.71-0.33-1.26-0.33c-0.44,0-0.91,0.06-1.37,0.17
				c-0.46,0.11-0.84,0.24-1.13,0.39l-0.38,0.18v7.99h-1.47v-9.85H244.58z"/>
			<path class="st0" d="M254.95,233.8h1.46v1.72h-1.46V233.8z M254.95,237.74h1.46v9.85h-1.46V237.74z"/>
			<path class="st0" d="M259.04,237.74h1.46v0.69c0.59-0.33,1.13-0.55,1.63-0.69c0.49-0.13,1.01-0.2,1.55-0.2
				c0.84,0,1.49,0.15,1.95,0.48c0.46,0.32,0.79,0.82,0.97,1.51c0.19,0.69,0.29,1.65,0.29,2.87v5.2h-1.46v-5.16
				c0-0.93-0.06-1.65-0.17-2.15s-0.31-0.86-0.6-1.08c-0.29-0.22-0.71-0.33-1.26-0.33c-0.44,0-0.91,0.06-1.37,0.17
				s-0.84,0.24-1.13,0.39l-0.38,0.18v7.99h-1.47v-9.85H259.04z"/>
			<path class="st0" d="M269.91,251.55c-0.61-0.44-0.92-1.17-0.92-2.19c0-0.42,0.04-0.76,0.14-1.03s0.25-0.51,0.46-0.72
				c0.21-0.21,0.52-0.48,0.94-0.81c-0.19-0.12-0.32-0.3-0.41-0.53c-0.09-0.23-0.13-0.49-0.13-0.75c0-0.17,0.04-0.35,0.12-0.56
				c0.08-0.2,0.27-0.56,0.55-1.07c-1.04-0.45-1.56-1.44-1.56-2.96c0-1.14,0.31-1.99,0.93-2.55c0.62-0.55,1.55-0.84,2.8-0.84
				c0.61,0,1.27,0.09,2.01,0.25l2.91-0.08v1.26l-1.87-0.04c0.22,0.22,0.39,0.5,0.49,0.82s0.15,0.73,0.15,1.23c0,1.17-0.3,2-0.91,2.5
				c-0.61,0.5-1.56,0.75-2.86,0.75c-0.41,0-0.74-0.02-1.01-0.08c-0.11,0.27-0.19,0.49-0.25,0.69c-0.07,0.2-0.1,0.37-0.1,0.51
				c0,0.34,0.13,0.56,0.41,0.66c0.27,0.1,0.69,0.15,1.25,0.15h0.76c0.86,0,1.56,0.07,2.09,0.2s0.94,0.4,1.23,0.8
				c0.29,0.4,0.43,0.99,0.43,1.74c0,1.14-0.35,1.97-1.06,2.5c-0.71,0.52-1.88,0.79-3.51,0.79
				C271.56,252.21,270.52,251.98,269.91,251.55z M275.45,250.52c0.43-0.3,0.65-0.81,0.65-1.53c0-0.42-0.08-0.74-0.22-0.95
				c-0.14-0.21-0.39-0.37-0.73-0.44c-0.34-0.08-0.83-0.12-1.47-0.12l-2.13-0.1c-0.43,0.31-0.73,0.59-0.87,0.83
				c-0.15,0.23-0.22,0.55-0.22,0.94c0,0.69,0.2,1.15,0.6,1.42c0.4,0.27,1.11,0.4,2.11,0.4
				C274.26,250.97,275.02,250.82,275.45,250.52z M274.55,242.57c0.34-0.33,0.51-0.89,0.51-1.67c0-0.77-0.17-1.33-0.51-1.65
				c-0.34-0.33-0.91-0.49-1.69-0.49c-0.82,0-1.39,0.17-1.74,0.5c-0.34,0.33-0.52,0.89-0.52,1.66s0.18,1.33,0.52,1.65
				c0.34,0.33,0.92,0.49,1.73,0.49C273.63,243.05,274.21,242.89,274.55,242.57z"/>
			<path class="st0" d="M285.18,247c-0.75-0.52-1.26-1.27-1.54-2.27s-0.41-2.31-0.41-3.96c0-1.63,0.13-2.94,0.41-3.95
				s0.77-1.76,1.51-2.28s1.77-0.77,3.14-0.77c1.06,0,2.29,0.14,3.69,0.43l-0.06,1.28c-1.33-0.23-2.47-0.35-3.43-0.35
				c-1.03,0-1.8,0.19-2.32,0.55s-0.89,0.96-1.07,1.77c-0.19,0.82-0.29,1.99-0.29,3.54c0,1.34,0.09,2.39,0.27,3.14
				c0.18,0.75,0.54,1.33,1.1,1.72c0.55,0.39,1.38,0.58,2.5,0.58c0.91,0,1.99-0.12,3.25-0.35l0.06,1.3
				c-1.35,0.28-2.55,0.41-3.59,0.41C286.99,247.78,285.93,247.52,285.18,247z"/>
			<path class="st0" d="M295.08,247.26c-0.62-0.34-1.05-0.89-1.32-1.63c-0.27-0.73-0.4-1.7-0.4-2.91c0-1.25,0.13-2.25,0.41-3
				c0.28-0.75,0.72-1.31,1.34-1.65c0.62-0.34,1.44-0.52,2.46-0.52c1.04,0,1.86,0.18,2.47,0.53c0.61,0.35,1.05,0.91,1.33,1.65
				c0.28,0.75,0.41,1.75,0.41,2.99c0,1.21-0.13,2.18-0.4,2.91c-0.27,0.73-0.7,1.27-1.31,1.63c-0.61,0.34-1.45,0.52-2.51,0.52
				C296.54,247.78,295.7,247.6,295.08,247.26z M299.26,246.13c0.38-0.24,0.64-0.63,0.8-1.16c0.15-0.53,0.22-1.28,0.22-2.26
				c0-1.02-0.08-1.82-0.23-2.36c-0.15-0.55-0.42-0.94-0.81-1.18c-0.38-0.23-0.93-0.35-1.64-0.35s-1.26,0.12-1.65,0.35
				c-0.39,0.23-0.66,0.63-0.83,1.18c-0.17,0.55-0.24,1.34-0.24,2.36c0,0.96,0.08,1.7,0.22,2.25c0.15,0.54,0.42,0.93,0.81,1.17
				s0.95,0.37,1.68,0.37C298.33,246.49,298.88,246.37,299.26,246.13z"/>
			<path class="st0" d="M304.01,237.74h1.46v1.34c1.13-0.77,2.34-1.3,3.61-1.56v1.49c-0.51,0.1-1.06,0.27-1.66,0.49
				c-0.6,0.22-1.07,0.42-1.43,0.6l-0.49,0.25v7.23h-1.47v-9.84H304.01z"/>
			<path class="st0" d="M310.63,237.74h1.46v0.71c0.51-0.3,1.01-0.53,1.48-0.68c0.48-0.15,0.99-0.22,1.53-0.22
				c1.22,0,2.11,0.4,2.67,1.21c0.55,0.81,0.84,2.09,0.84,3.85c0,1.25-0.14,2.25-0.43,3c-0.29,0.75-0.75,1.31-1.38,1.65
				s-1.47,0.52-2.55,0.52c-0.73,0-1.45-0.08-2.15-0.22v4.39h-1.47L310.63,237.74L310.63,237.74z M316.45,245.6
				c0.43-0.61,0.65-1.58,0.65-2.93c0-1.34-0.19-2.3-0.56-2.91c-0.38-0.6-0.94-0.9-1.7-0.9c-0.38,0-0.79,0.07-1.23,0.19
				c-0.44,0.12-0.82,0.25-1.13,0.4l-0.38,0.2v6.64c0.97,0.14,1.69,0.22,2.17,0.22C315.29,246.49,316.02,246.2,316.45,245.6z"/>
			<path class="st0" d="M322.08,247.26c-0.62-0.34-1.05-0.89-1.32-1.63c-0.27-0.73-0.4-1.7-0.4-2.91c0-1.25,0.13-2.25,0.41-3
				c0.28-0.75,0.72-1.31,1.34-1.65c0.62-0.34,1.44-0.52,2.46-0.52c1.04,0,1.86,0.18,2.47,0.53s1.05,0.91,1.33,1.65
				c0.28,0.75,0.41,1.75,0.41,2.99c0,1.21-0.13,2.18-0.4,2.91c-0.27,0.73-0.7,1.27-1.31,1.63c-0.61,0.34-1.45,0.52-2.51,0.52
				C323.53,247.78,322.7,247.6,322.08,247.26z M326.26,246.13c0.38-0.24,0.64-0.63,0.8-1.16c0.15-0.53,0.22-1.28,0.22-2.26
				c0-1.02-0.08-1.82-0.23-2.36c-0.15-0.55-0.43-0.94-0.81-1.18c-0.38-0.23-0.93-0.35-1.64-0.35s-1.26,0.12-1.65,0.35
				s-0.66,0.63-0.83,1.18c-0.17,0.55-0.24,1.34-0.24,2.36c0,0.96,0.08,1.7,0.22,2.25c0.15,0.54,0.42,0.93,0.81,1.17
				s0.95,0.37,1.68,0.37C325.33,246.49,325.88,246.37,326.26,246.13z"/>
			<path class="st0" d="M331,237.74h1.46v1.34c1.13-0.77,2.34-1.3,3.61-1.56v1.49c-0.51,0.1-1.06,0.27-1.66,0.49
				c-0.6,0.22-1.07,0.42-1.43,0.6l-0.49,0.25v7.23h-1.47v-9.84H331z"/>
			<path class="st0" d="M337.7,247.01c-0.48-0.51-0.71-1.25-0.71-2.2c0-0.94,0.24-1.65,0.72-2.1c0.48-0.45,1.24-0.74,2.29-0.84
				l3.09-0.3v-0.84c0-1.25-0.54-1.87-1.62-1.87c-1.06,0-2.36,0.09-3.87,0.25l-0.06-1.12c1.41-0.29,2.69-0.43,3.84-0.43
				c1.12,0,1.93,0.25,2.44,0.76c0.51,0.51,0.75,1.31,0.75,2.41v5.04c0.04,0.49,0.42,0.77,1.14,0.86l-0.06,1.16
				c-1.04,0-1.82-0.27-2.35-0.79c-1.17,0.52-2.35,0.79-3.54,0.79C338.86,247.78,338.18,247.52,337.7,247.01z M342.64,246.09
				l0.45-0.15v-3.25l-2.91,0.28c-0.59,0.06-1.02,0.22-1.28,0.51c-0.27,0.29-0.4,0.71-0.4,1.26c0,1.21,0.5,1.82,1.49,1.82
				C340.89,246.54,341.76,246.38,342.64,246.09z"/>
			<path class="st0" d="M348.86,247.47c-0.38-0.22-0.64-0.59-0.81-1.11c-0.17-0.52-0.24-1.24-0.24-2.18V239h-1.39v-1.28h1.39v-3.01
				h1.46v3.01h3.13V239h-3.13v4.7c0,0.73,0.02,1.28,0.08,1.65c0.06,0.37,0.18,0.64,0.39,0.83c0.2,0.19,0.52,0.29,0.95,0.29
				l1.75-0.12l0.1,1.22c-0.93,0.14-1.64,0.22-2.1,0.22C349.75,247.8,349.23,247.69,348.86,247.47z"/>
			<path class="st0" d="M354.01,233.8h1.46v1.72h-1.46V233.8z M354.01,237.74h1.46v9.85h-1.46V237.74z"/>
			<path class="st0" d="M359.26,247.26c-0.62-0.34-1.05-0.89-1.32-1.63c-0.27-0.73-0.4-1.7-0.4-2.91c0-1.25,0.13-2.25,0.41-3
				c0.28-0.75,0.72-1.31,1.34-1.65c0.62-0.34,1.44-0.52,2.46-0.52c1.04,0,1.86,0.18,2.47,0.53c0.61,0.35,1.05,0.91,1.33,1.65
				c0.28,0.75,0.41,1.75,0.41,2.99c0,1.21-0.13,2.18-0.4,2.91c-0.27,0.73-0.7,1.27-1.31,1.63c-0.61,0.34-1.45,0.52-2.51,0.52
				C360.71,247.78,359.88,247.6,359.26,247.26z M363.44,246.13c0.38-0.24,0.64-0.63,0.8-1.16c0.15-0.53,0.22-1.28,0.22-2.26
				c0-1.02-0.08-1.82-0.23-2.36c-0.15-0.55-0.43-0.94-0.81-1.18c-0.38-0.23-0.93-0.35-1.64-0.35s-1.26,0.12-1.65,0.35
				s-0.66,0.63-0.83,1.18s-0.24,1.34-0.24,2.36c0,0.96,0.08,1.7,0.22,2.25c0.15,0.54,0.42,0.93,0.81,1.17s0.95,0.37,1.68,0.37
				C362.51,246.49,363.06,246.37,363.44,246.13z"/>
			<path class="st0" d="M368.18,237.74h1.46v0.69c0.59-0.33,1.13-0.55,1.63-0.69c0.49-0.13,1.01-0.2,1.55-0.2
				c0.84,0,1.49,0.15,1.95,0.48c0.46,0.32,0.79,0.82,0.97,1.51c0.19,0.69,0.29,1.65,0.29,2.87v5.2h-1.46v-5.16
				c0-0.93-0.06-1.65-0.17-2.15c-0.11-0.5-0.31-0.86-0.6-1.08c-0.29-0.22-0.71-0.33-1.26-0.33c-0.44,0-0.91,0.06-1.37,0.17
				c-0.46,0.11-0.84,0.24-1.13,0.39l-0.38,0.18v7.99h-1.47v-9.85H368.18z"/>
		</g>
		<g>
			<g>
				<path class="st1" d="M32.11,221.83h-2.5v0.1c0,1.56-0.4,2.77-1.18,3.63c-0.8,0.86-1.91,1.3-3.38,1.3H19.6
					c-0.97,0-1.88-0.18-2.73-0.54c-0.84-0.35-1.53-0.87-2.04-1.56s-0.77-1.48-0.77-2.38c0-0.81,0.18-2.26,0.53-4.34l1.8,0.29
					c-0.27,1.87-0.41,3.1-0.41,3.7c0,0.61,0.15,1.15,0.46,1.63s0.73,0.84,1.27,1.11c0.53,0.27,1.13,0.4,1.77,0.4h5.41
					c0.91,0,1.59-0.28,2.05-0.81c0.45-0.54,0.69-1.3,0.69-2.25v-0.24h-0.37c-0.5,0-0.97-0.04-1.42-0.14
					c-0.44-0.1-0.87-0.28-1.28-0.54l0.81-1.46c0.27,0.19,0.54,0.31,0.83,0.35s0.69,0.07,1.22,0.07h4.65v1.7H32.11z M19.67,228.32
					h1.73v1.95h-1.73V228.32z M22.39,228.32h1.7v1.95h-1.7V228.32z"/>
				<path class="st1" d="M40.56,220.11v1.73h-8.58v-1.73h3.02v-8.42h1.93v8.42H40.56z M35.04,207.81h1.85v1.99h-1.85V207.81z"/>
				<path class="st1" d="M57,220.11v1.73H40.56v-1.73h2.27v-1.26c0-0.68,0.18-1.31,0.52-1.89c0.34-0.59,0.81-1.06,1.39-1.41
					c0.58-0.35,1.23-0.53,1.93-0.53s1.35,0.18,1.93,0.52c0.59,0.34,1.04,0.81,1.38,1.39c0.33,0.59,0.51,1.23,0.51,1.91v1.26h2.66
					v-2.53c0-1.95-0.51-3.31-1.52-4.08c-1.01-0.77-2.24-1.16-3.69-1.16c-0.93,0-2.41,0.18-4.43,0.54l-0.14-1.51
					c1.93-0.51,3.58-0.77,4.95-0.77c1.3,0,2.46,0.24,3.46,0.73c1.01,0.49,1.8,1.25,2.39,2.29c0.59,1.04,0.89,2.36,0.89,3.94v2.56
					C55.06,220.11,57,220.11,57,220.11z M45.31,217.33c-0.37,0.38-0.54,0.84-0.54,1.41v1.38h3.82v-1.39c0-0.54-0.18-1-0.54-1.38
					c-0.37-0.38-0.82-0.56-1.36-0.56C46.13,216.75,45.68,216.95,45.31,217.33z"/>
				<path class="st1" d="M74.47,220.11v1.73h-0.8c-0.24,0-0.5-0.08-0.77-0.23c-0.27-0.15-0.5-0.35-0.69-0.6v0.83H57v-1.73h6.4
					c-0.19-1.11-0.29-2.2-0.29-3.27c0-0.85,0.06-1.72,0.18-2.59c0.12-0.87,0.25-1.59,0.41-2.18c0.37-0.14,0.87-0.29,1.52-0.41
					c0.64-0.12,1.34-0.18,2.08-0.18c1.76,0,3.02,0.41,3.79,1.24c0.76,0.83,1.15,2.17,1.15,4.04v2.51c0.14,0.24,0.34,0.44,0.6,0.6
					c0.25,0.15,0.54,0.23,0.86,0.23H74.47z M65.1,218.66c0.06,0.6,0.12,1.08,0.19,1.45h4.99v-3.39c0-1.24-0.27-2.14-0.79-2.69
					c-0.52-0.54-1.35-0.82-2.49-0.82c-0.59,0-1.15,0.06-1.7,0.18c-0.2,1.25-0.3,2.39-0.3,3.45
					C65.02,217.45,65.05,218.05,65.1,218.66z"/>
				<path class="st1" d="M78.9,207.39v14.45h-4.43v-1.73h2.49v-12.72H78.9z"/>
				<path class="st1" d="M82.43,207.39h1.93v14.45h-1.93V207.39z"/>
				<path class="st1" d="M93.57,211.43c0.81,0.09,1.46,0.19,1.98,0.3v8.68c0,2.05-0.27,3.63-0.8,4.76
					c-0.53,1.13-1.53,1.69-2.99,1.69c-0.56,0-1.64-0.11-3.21-0.32v-1.73c1.33,0.22,2.35,0.32,3.07,0.32c0.46,0,0.83-0.08,1.12-0.24
					c0.29-0.17,0.5-0.49,0.65-0.96c0.14-0.48,0.22-1.18,0.22-2.1h-2.78c-1.57,0-2.6-0.48-3.1-1.44c-0.5-0.96-0.74-2.15-0.74-3.58
					c0.01-1.34,0.15-2.4,0.43-3.21c0.28-0.8,0.74-1.38,1.38-1.76c0.64-0.38,1.52-0.55,2.62-0.55
					C92.06,211.3,92.77,211.34,93.57,211.43z M89.4,219.17c0.32,0.63,1.01,0.94,2.05,0.94h2.17v-6.94c-0.66-0.1-1.25-0.14-1.76-0.14
					c-1.1,0-1.86,0.29-2.28,0.86c-0.42,0.58-0.64,1.53-0.66,2.87C88.91,217.73,89.08,218.53,89.4,219.17z"/>
				<path class="st1" d="M120.02,221.83h-2.49v0.1c0,1.56-0.4,2.77-1.18,3.63c-0.79,0.86-1.91,1.3-3.38,1.3h-5.43
					c-0.97,0-1.88-0.18-2.73-0.54c-0.84-0.35-1.53-0.87-2.04-1.56s-0.77-1.48-0.77-2.38c0-0.81,0.18-2.26,0.53-4.34l1.8,0.29
					c-0.27,1.87-0.41,3.1-0.41,3.7c0,0.61,0.15,1.15,0.46,1.63s0.73,0.84,1.27,1.11c0.53,0.27,1.13,0.4,1.77,0.4h5.41
					c0.91,0,1.59-0.28,2.05-0.81c0.46-0.54,0.69-1.3,0.69-2.25v-0.24h-0.37c-0.5,0-0.97-0.04-1.42-0.14
					c-0.44-0.1-0.87-0.28-1.27-0.54l0.81-1.49c0.27,0.19,0.54,0.31,0.83,0.35s0.69,0.07,1.22,0.07h4.65
					C120.02,220.1,120.02,221.83,120.02,221.83z M107.59,228.32h1.73v1.95h-1.73V228.32z M110.3,228.32h1.7v1.95h-1.7V228.32z"/>
				<path class="st1" d="M127.88,220.11v1.73h-7.97v-1.73h3.02v-8.42h1.93v8.42H127.88z M122.96,207.81h1.85v1.99h-1.85V207.81z"/>
				<path class="st1" d="M140.47,220.11v1.73h-12.6v-1.73h2.63c-0.31-0.77-0.46-1.85-0.46-3.24c0-1.34,0.17-2.38,0.49-3.11
					c0.32-0.74,0.84-1.26,1.55-1.57c0.71-0.31,1.7-0.46,2.98-0.46c1.05,0,2,0.04,2.86,0.14l0.71,0.08v8.18h1.85V220.11z M132.16,219
					c0.12,0.45,0.28,0.82,0.46,1.11h4.07v-6.63c-0.84-0.07-1.43-0.1-1.76-0.1c-0.81,0-1.43,0.11-1.85,0.34
					c-0.42,0.23-0.71,0.6-0.87,1.12c-0.17,0.51-0.24,1.24-0.24,2.17C131.97,217.88,132.04,218.55,132.16,219z M132.29,207.83h1.73
					v1.97h-1.73V207.83z M135.02,207.83h1.7v1.97h-1.7V207.83z"/>
				<path class="st1" d="M148.44,220.11v1.73h-7.97v-1.73h3.02v-8.42h1.93v8.42H148.44z M142.24,207.83h1.73v1.97h-1.73V207.83z
					 M144.96,207.83h1.7v1.97h-1.7V207.83z"/>
				<path class="st1" d="M152.87,207.39v14.45h-4.43v-1.73h2.49v-12.72H152.87z"/>
				<path class="st1" d="M156.4,207.39h1.93v14.45h-1.93V207.39z"/>
				<path class="st1" d="M182.05,220.11v1.73h-10.91c-1.24,0-2.26-0.1-3.04-0.3c-0.79-0.2-1.37-0.55-1.77-1.06s-0.6-1.22-0.6-2.13
					c0-0.56,0.07-1.26,0.19-2.09c0.13-0.83,0.28-1.62,0.43-2.36l1.52,0.08l-0.18,1.51c-0.17,1.14-0.24,1.94-0.24,2.41
					c0,0.79,0.27,1.35,0.79,1.69s1.46,0.52,2.81,0.52h6.11v-8.42h1.93v8.42H182.05z M171.84,223.45h1.85v1.99h-1.85V223.45z"/>
				<path class="st1" d="M187,211.68v10.15h-4.95v-1.73h3.02v-8.42H187z M183.81,223.45h1.73v1.95h-1.73V223.45z M186.53,223.45h1.7
					v1.95h-1.7V223.45z"/>
				<path class="st1" d="M189.86,226.83l-0.49-0.04v-1.7c0.44,0.04,0.81,0.06,1.1,0.06c0.61,0,1.07-0.24,1.38-0.73
					c0.31-0.49,0.46-1.17,0.46-2.05V211.7h1.9v10.25c0,1.59-0.28,2.81-0.83,3.66c-0.55,0.84-1.39,1.27-2.51,1.27
					C190.56,226.88,190.23,226.86,189.86,226.83z"/>
				<path class="st1" d="M206.89,220.11v1.73h-10.47v-1.73h6.57v-1.87c0-1.93-0.38-3.28-1.12-4.07c-0.74-0.79-1.62-1.18-2.61-1.18
					h-1.76l-0.14-1.44c0.2-0.07,0.53-0.13,1-0.2c0.46-0.07,0.9-0.1,1.3-0.1c0.97,0,1.86,0.23,2.65,0.7s1.43,1.22,1.89,2.25
					c0.48,1.03,0.71,2.35,0.71,3.96v1.97h1.99V220.11z"/>
				<path class="st1" d="M214.86,220.11v1.73h-7.97v-1.73h3.02v-8.42h1.93v8.42H214.86z M208.65,207.83h1.73v1.97h-1.73V207.83z
					 M211.37,207.83h1.7v1.97h-1.7V207.83z"/>
				<path class="st1" d="M221.72,220.11v1.73h-6.86v-1.73h2.49v-12.72h1.93v12.72H221.72z"/>
				<path class="st1" d="M226.14,207.39v14.45h-4.43v-1.73h2.49v-12.72H226.14z"/>
				<path class="st1" d="M245.05,220.11v1.73h-6.87c-1.24,0-2.22-0.17-2.94-0.49s-1.24-0.86-1.56-1.61
					c-0.32-0.74-0.49-1.77-0.49-3.09c0-1.28,0.15-2.3,0.46-3.06c0.31-0.75,0.82-1.3,1.52-1.63c0.71-0.33,1.67-0.5,2.9-0.5
					c0.6,0,1.42,0.02,2.46,0.08c1.04,0.06,1.8,0.11,2.27,0.17v8.38h2.26V220.11z M235.42,218.7c0.21,0.5,0.55,0.86,1.03,1.07
					c0.48,0.22,1.12,0.32,1.95,0.32h2.49v-6.75c-1.08-0.08-1.94-0.12-2.58-0.12c-0.8,0-1.43,0.11-1.89,0.33
					c-0.46,0.22-0.8,0.59-1.01,1.07c-0.2,0.5-0.3,1.16-0.3,2C235.1,217.52,235.21,218.2,235.42,218.7z M236.32,207.83h1.73v1.97
					h-1.73V207.83z M239.04,207.83h1.7v1.97h-1.7V207.83z"/>
				<path class="st1" d="M256.01,212.72c0.76,0.83,1.15,2.17,1.15,4.04v5.07h-12.11v-1.73h3.29c-0.19-1.11-0.29-2.2-0.29-3.27
					c0-0.85,0.06-1.72,0.18-2.59c0.12-0.87,0.25-1.59,0.41-2.18c0.37-0.14,0.87-0.29,1.52-0.41c0.64-0.12,1.34-0.18,2.08-0.18
					C253.99,211.48,255.25,211.89,256.01,212.72z M250.05,218.66c0.06,0.6,0.12,1.08,0.19,1.45h4.99v-3.39
					c0-1.24-0.27-2.14-0.79-2.69c-0.52-0.54-1.35-0.82-2.49-0.82c-0.59,0-1.15,0.06-1.7,0.18c-0.2,1.25-0.3,2.39-0.3,3.45
					C249.96,217.45,249.99,218.05,250.05,218.66z"/>
				<path class="st1" d="M263.91,220.11v1.73h-3.85v-14.45h1.93v12.72H263.91z"/>
				<path class="st1" d="M276.68,220.11v1.73h-2.29c-0.66,0-1.34-0.08-2.04-0.24c-0.7-0.17-1.35-0.39-1.96-0.66
					c-0.59,0.29-1.22,0.51-1.9,0.66c-0.69,0.17-1.36,0.24-2.01,0.24h-2.56v-1.73h2.49c0.69,0,1.41-0.13,2.14-0.39
					c-0.99-0.79-1.77-1.66-2.37-2.62c-0.59-0.96-0.9-1.85-0.92-2.65l-0.06-1.54c0.81-0.44,1.66-0.8,2.55-1.05
					c0.89-0.25,1.76-0.39,2.62-0.39c0.86,0,1.75,0.13,2.65,0.39c0.9,0.25,1.76,0.61,2.59,1.05l-0.08,1.54
					c-0.02,0.8-0.33,1.68-0.92,2.65c-0.59,0.96-1.38,1.84-2.38,2.62c0.74,0.25,1.46,0.39,2.15,0.39H276.68z M268.01,216.6
					c0.58,0.89,1.37,1.64,2.38,2.27c1.03-0.65,1.84-1.41,2.41-2.28c0.58-0.87,0.87-1.77,0.87-2.71c-1.24-0.44-2.34-0.66-3.29-0.66
					c-0.93,0-2.01,0.22-3.24,0.66C267.15,214.8,267.43,215.71,268.01,216.6z"/>
				<path class="st1" d="M281.1,207.39v14.45h-4.43v-1.73h2.49v-12.72H281.1z"/>
				<path class="st1" d="M284.64,207.39h1.93v14.45h-1.93V207.39z"/>
				<path class="st1" d="M305.53,220.11v1.73h-6.87c-1.24,0-2.22-0.17-2.94-0.49s-1.24-0.86-1.56-1.61
					c-0.32-0.74-0.49-1.77-0.49-3.09c0-1.28,0.15-2.3,0.46-3.06c0.31-0.75,0.82-1.3,1.52-1.63c0.71-0.33,1.67-0.5,2.9-0.5
					c0.6,0,1.42,0.02,2.46,0.08s1.8,0.11,2.27,0.17v8.38h2.26V220.11z M295.9,218.7c0.21,0.5,0.55,0.86,1.03,1.07
					c0.48,0.22,1.12,0.32,1.95,0.32h2.49v-6.75c-1.08-0.08-1.94-0.12-2.58-0.12c-0.8,0-1.43,0.11-1.89,0.33
					c-0.46,0.22-0.8,0.59-1.01,1.07c-0.2,0.5-0.3,1.16-0.3,2C295.59,217.52,295.69,218.2,295.9,218.7z M296.81,207.83h1.73v1.97
					h-1.73V207.83z M299.52,207.83h1.7v1.97h-1.7V207.83z"/>
				<path class="st1" d="M322.96,220.11v1.73h-5.77c-0.84,0-1.59-0.27-2.25-0.81c-0.5,0.54-1.16,0.81-1.97,0.81h-7.45v-1.73h3.22
					v-7.41h1.93v7.41h1.66c0.6,0,1.03-0.25,1.31-0.75c0.28-0.5,0.42-1.13,0.42-1.88v-4.77h1.93v4.75c0,0.77-0.09,1.46-0.27,2.07
					c0.19,0.14,0.42,0.29,0.69,0.41s0.54,0.18,0.81,0.18h1.95v-3.92c0-0.95-0.11-2.42-0.32-4.44l1.63-0.06
					c0.17,0.8,0.31,1.64,0.43,2.5c0.13,0.87,0.19,1.54,0.19,2v3.92h1.87V220.11z"/>
				<path class="st1" d="M338.35,214.18c0.13,0.87,0.19,1.54,0.19,2v5.65h-3.92c-0.84,0-1.59-0.27-2.25-0.81
					c-0.5,0.54-1.16,0.81-1.97,0.81h-7.45v-1.73h3.22v-7.41h1.93v7.41h1.66c0.6,0,1.03-0.25,1.31-0.75c0.28-0.5,0.42-1.13,0.42-1.88
					v-4.77h1.93v4.75c0,0.77-0.09,1.46-0.27,2.07c0.19,0.14,0.42,0.29,0.69,0.41c0.27,0.12,0.54,0.18,0.81,0.18h1.95v-3.92
					c0-0.95-0.11-2.42-0.32-4.44l1.63-0.06C338.08,212.48,338.22,213.32,338.35,214.18z"/>
				<path class="st1" d="M351.77,221.83h-2.53c-0.1,1.59-0.42,2.83-0.99,3.71c-0.56,0.89-1.48,1.32-2.77,1.32
					c-0.56,0-1.64-0.11-3.21-0.32v-1.73c1.33,0.22,2.35,0.32,3.07,0.32c0.45,0,0.83-0.08,1.12-0.24c0.29-0.17,0.5-0.49,0.65-0.96
					c0.14-0.48,0.22-1.18,0.22-2.1h-2.78c-1.57,0-2.6-0.48-3.1-1.44c-0.5-0.96-0.74-2.15-0.74-3.58c0.01-1.34,0.15-2.4,0.43-3.21
					c0.28-0.8,0.74-1.38,1.38-1.76c0.64-0.38,1.52-0.55,2.62-0.55c0.62,0,1.34,0.04,2.14,0.13c0.81,0.09,1.46,0.19,1.98,0.3v8.38
					h2.49v1.74H351.77z M343.12,219.17c0.32,0.63,1.01,0.94,2.05,0.94h2.17v-6.94c-0.66-0.1-1.25-0.14-1.76-0.14
					c-1.1,0-1.86,0.29-2.28,0.86c-0.42,0.58-0.64,1.53-0.66,2.87C342.64,217.73,342.8,218.53,343.12,219.17z M347.65,208.76
					l-4.24,0.83l-0.2-0.73l0.97-0.27c-0.24-0.19-0.43-0.42-0.55-0.68c-0.12-0.27-0.18-0.54-0.18-0.82c0-0.51,0.18-0.96,0.55-1.34
					c0.37-0.38,0.84-0.56,1.42-0.56c0.51,0,1.02,0.17,1.51,0.49l-0.22,0.91c-0.08-0.07-0.2-0.13-0.37-0.2
					c-0.17-0.07-0.34-0.1-0.53-0.1c-0.34,0-0.62,0.11-0.83,0.33c-0.22,0.22-0.32,0.49-0.32,0.8c0,0.38,0.17,0.69,0.49,0.93
					l2.27-0.61L347.65,208.76z"/>
				<path class="st1" d="M366.14,220.11v1.73h-0.79c-0.24,0-0.5-0.08-0.77-0.23c-0.27-0.15-0.5-0.35-0.69-0.6v0.83h-12.11v-1.73
					h3.29c-0.19-1.11-0.29-2.2-0.29-3.27c0-0.85,0.06-1.72,0.18-2.59c0.12-0.87,0.25-1.59,0.41-2.18c0.37-0.14,0.87-0.29,1.52-0.41
					c0.64-0.12,1.34-0.18,2.08-0.18c1.76,0,3.02,0.41,3.79,1.24c0.76,0.83,1.15,2.17,1.15,4.04v2.51c0.14,0.24,0.34,0.44,0.6,0.6
					c0.25,0.15,0.54,0.23,0.86,0.23H366.14z M356.77,218.66c0.06,0.6,0.12,1.08,0.19,1.45h4.99v-3.39c0-1.24-0.27-2.14-0.79-2.69
					c-0.52-0.54-1.35-0.82-2.49-0.82c-0.59,0-1.15,0.06-1.7,0.18c-0.2,1.25-0.3,2.39-0.3,3.45
					C356.68,217.45,356.72,218.05,356.77,218.66z"/>
				<path class="st1" d="M370.56,207.39v14.45h-4.43v-1.73h2.49v-12.72H370.56z"/>
				<path class="st1" d="M374.1,207.39h1.93v14.45h-1.93V207.39z"/>
			</g>
		</g>
	</g>
	<g>
		<g>
			<path class="st2" d="M461.44,168.17L461.44,168.17c0.02-1.3-0.73-2.53-2-3.06c-1.27-0.52-2.68-0.17-3.56,0.79l-0.01-0.01
				l-9.05,10.88l3.24,11.28l10.22-5.78L461.44,168.17z"/>
			<path class="st3" d="M486.49,196.18L486.49,196.18c0.93-0.9,1.27-2.31,0.74-3.58c-0.53-1.26-1.78-2-3.08-1.96v-0.01l-14.09,1.3
				l-5.68,10.27l11.3,3.14L486.49,196.18z"/>
			<path class="st4" d="M484.41,233.69L484.41,233.69c1.3,0.02,2.53-0.73,3.06-2c0.52-1.27,0.17-2.68-0.79-3.56h0.01l-10.88-9.05
				l-11.28,3.24l5.78,10.22L484.41,233.69z"/>
			<path class="st5" d="M456.4,258.74L456.4,258.74c0.9,0.93,2.31,1.27,3.58,0.74c1.26-0.53,2-1.78,1.96-3.08h0.01l-1.3-14.09
				l-10.27-5.68l-1.97,12.69L456.4,258.74z"/>
			<path class="st4" d="M424.27,258.74L424.27,258.74c-0.9,0.93-2.31,1.27-3.58,0.74c-1.26-0.53-2-1.78-1.96-3.08h-0.01l1.3-14.09
				l10.27-5.68l1.97,12.69L424.27,258.74z"/>
			<path class="st2" d="M393.83,228.64L393.83,228.64c-0.93,0.9-1.27,2.31-0.74,3.58c0.53,1.26,1.78,2,3.08,1.96v0.01l14.09-1.3
				l5.68-10.27l-11.3-3.14L393.83,228.64z"/>
			<path class="st6" d="M395.92,191.13L395.92,191.13c-1.3-0.02-2.53,0.73-3.06,2c-0.52,1.27-0.17,2.68,0.79,3.56h-0.01l10.88,9.05
				l11.28-3.24l-5.78-10.22L395.92,191.13z"/>
			<path class="st4" d="M423.93,166.08L423.93,166.08c-0.9-0.93-2.31-1.27-3.58-0.74c-1.26,0.53-2,1.78-1.96,3.08h-0.01l1.3,14.09
				l10.27,5.68l3.14-11.3L423.93,166.08z"/>
		</g>
		<path class="st0" d="M470.02,182.44c-0.28-0.28-0.7-0.3-1.02-0.09l-19.59,11.49l-3.3,5.77c0.35,0.17,0.72,0.32,1.05,0.52
			l4.41-2.99c0.48-0.38,1.17-0.34,1.61,0.1l2.05,2.05c0.43,0.43,0.48,1.12,0.1,1.61l-2.99,4.41c0.2,0.33,0.35,0.7,0.52,1.04
			l5.76-3.29h0.01l11.49-19.59C470.32,183.15,470.3,182.72,470.02,182.44z"/>
		<path class="st0" d="M390.69,257.92c0.12-0.28,0.42-0.54,0.87-0.49l42.96,14.84l1.38,8.9l-13.66-6.53l-31.33-15.78
			C390.58,258.58,390.58,258.19,390.69,257.92z"/>
		<path class="st0" d="M489.63,257.92c-0.12-0.28-0.42-0.54-0.87-0.49l-42.96,14.84l-1.38,8.9l13.66-6.53l31.33-15.78
			C489.76,258.58,489.76,258.19,489.63,257.92z"/>
		<path class="st0" d="M481.74,211.52l-21.98-5.72l-6.4,1.75c0.13,0.37,0.28,0.73,0.38,1.12l5.24,1c0.61,0.07,1.06,0.59,1.06,1.2
			v2.9c0,0.61-0.45,1.13-1.06,1.2l-5.24,1c-0.1,0.38-0.24,0.74-0.38,1.11l6.4,1.75v0.01l21.98-5.72c0.37-0.08,0.65-0.39,0.65-0.79
			C482.39,211.9,482.11,211.59,481.74,211.52z"/>
		<path class="st0" d="M470.12,241.15l-11.49-19.59l-5.77-3.3c-0.17,0.35-0.32,0.72-0.52,1.05l2.99,4.41
			c0.38,0.48,0.34,1.17-0.1,1.6l-2.05,2.05c-0.43,0.43-1.12,0.48-1.61,0.1l-4.41-2.99c-0.33,0.2-0.7,0.35-1.04,0.52l3.29,5.76h-0.01
			L469,242.24c0.32,0.21,0.74,0.19,1.02-0.09C470.3,241.88,470.32,241.46,470.12,241.15z"/>
		<path class="st0" d="M443.81,225.87l-1,5.24c-0.07,0.61-0.59,1.06-1.2,1.06h-2.9c-0.61,0-1.13-0.45-1.2-1.06l-1-5.24
			c-0.38-0.1-0.74-0.24-1.11-0.38l-1.75,6.4h-0.01l5.72,48.63c0.08,0.37,0.39,0.65,0.79,0.65c0.39,0,0.71-0.29,0.79-0.65l5.72-48.63
			l-1.75-6.4C444.56,225.63,444.2,225.77,443.81,225.87z"/>
		<path class="st0" d="M433.15,224.48l-4.41,2.99c-0.48,0.38-1.17,0.34-1.61-0.1l-2.05-2.05c-0.43-0.43-0.48-1.12-0.1-1.61
			l2.99-4.41c-0.2-0.33-0.35-0.7-0.52-1.04l-5.76,3.29h-0.01l-11.49,19.59c-0.21,0.32-0.19,0.74,0.09,1.02
			c0.28,0.28,0.7,0.3,1.02,0.09l19.59-11.49l3.3-5.77C433.85,224.83,433.49,224.68,433.15,224.48z"/>
		<path class="st0" d="M426.6,215.96l-5.24-1c-0.61-0.07-1.06-0.59-1.06-1.2v-2.9c0-0.61,0.45-1.13,1.06-1.2l5.24-1
			c0.1-0.38,0.24-0.74,0.38-1.11l-6.4-1.75v-0.01l-21.98,5.72c-0.37,0.08-0.65,0.39-0.65,0.79c0,0.39,0.29,0.71,0.65,0.79
			l21.98,5.72l6.4-1.75C426.84,216.7,426.7,216.33,426.6,215.96z"/>
		<path class="st0" d="M427.47,206.35c0.17-0.35,0.32-0.72,0.52-1.05l-2.99-4.41c-0.38-0.48-0.34-1.17,0.1-1.61l2.05-2.05
			c0.43-0.43,1.12-0.48,1.61-0.1l4.41,2.99c0.33-0.2,0.7-0.35,1.04-0.52l-3.29-5.76l0,0l-19.59-11.49
			c-0.32-0.21-0.74-0.19-1.02,0.09c-0.28,0.28-0.3,0.7-0.09,1.02l11.49,19.58L427.47,206.35z"/>
		<path class="st0" d="M436.51,198.73l1-5.24c0.07-0.61,0.59-1.06,1.2-1.06h2.9c0.61,0,1.13,0.45,1.2,1.06l1,5.24
			c0.38,0.1,0.74,0.24,1.11,0.38l1.75-6.4h0.01l-5.73-21.98c-0.08-0.37-0.39-0.65-0.79-0.65c-0.39,0-0.71,0.29-0.79,0.65
			l-5.72,21.98l1.75,6.4C435.77,198.98,436.14,198.83,436.51,198.73z"/>
	</g>
</g>
</svg>
