<?xml version="1.0" encoding="utf-8"?>
<!-- Generator: Adobe Illustrator 28.0.0, SVG Export Plug-In . SVG Version: 6.00 Build 0)  -->
<svg version="1.1" id="Layer_1" xmlns="http://www.w3.org/2000/svg" xmlns:xlink="http://www.w3.org/1999/xlink" x="0px" y="0px"
	 viewBox="0 0 500 500" style="enable-background:new 0 0 500 500;" xml:space="preserve">
<style type="text/css">
	.st0{fill:#1A736B;}
	.st1{fill:#207569;}
	.st2{fill:#1B746A;}
	.st3{fill:none;stroke:#207569;stroke-width:1.2999;}
	.st4{fill:none;stroke:#1E756A;stroke-width:1.2999;}
	.st5{fill:#17746A;}
</style>
<path class="st0" d="M257.11,48.15h5.8c27.5,1.2,50.7,11.1,69.7,29.7c18.4,18.1,28.7,40.4,30.9,67v14c-2.2,26.5-12.6,48.9-31.1,67
	c-15.7,15.5-34.6,25-56.7,28.3c-4.2,0.7-8.5,1-12.9,1.1c-27.5,0.6-51.4-8.2-71.7-26.3c-16.9-15-27.7-33.8-32.4-56.2
	c-0.9-4.2-1.5-8.5-1.8-12.9c-1.7-24.4,4.2-46.5,17.7-66.5c2.4-3.6,5.1-7,8-10.2C202.11,61.35,226.91,49.65,257.11,48.15z
	 M356.01,151.75c0-53-42.9-95.9-95.9-95.9l0,0c-53,0-95.9,42.9-95.9,95.9s42.9,95.9,95.9,95.9S356.01,204.75,356.01,151.75
	L356.01,151.75z"/>
<g>
	<path class="st1" d="M206.41,90.55c1.2-1.3,2-2,2.5-2.4c1.6-1,1.9-0.8,0.8,0.7c-0.2,0.2-0.3,0.4-0.6,0.6c-1.5,1.2-3,2.4-4.5,3.6
		c-0.2,0.1-0.2,0.1-0.1-0.1C204.81,92.35,205.51,91.45,206.41,90.55z"/>
	<path class="st1" d="M202.51,91.65c0.1-1.2,0.3-1.2,0.4,0l0.3,2.9c0,0.3,0.3,0.6,0.7,0.6h0.1c1.5-0.3,3.1-0.4,4.6-0.3
		c1.4,0.1,1.6,0.4,0.7,1c-0.2,0.1-0.5,0.2-0.7,0.3c-1.6,0.4-2.7,0.6-3.5,0.5c-1.3-0.1-2.5,0.1-3.6,0.6c-0.5,0.2-0.7,0.1-0.4-0.4
		C201.71,95.05,202.21,93.35,202.51,91.65z"/>
	<path class="st2" d="M196.51,103.55c-0.2,0-0.3,0-0.4-0.2c0.6-1.4,0.8-2.3,0.8-2.6c0-2.6,0.3-5.2,0.8-7.8c0.1-0.5,0.3-0.6,0.5-0.3
		c0.1,0.1,0.1,0.2,0.2,0.4c0.3,2.4,0.3,3.9,0.1,4.5c-0.3,1-0.1,1.4,0.6,1.1c0.2-0.1,0.3,0,0.4,0.2c0.3,0.6,0.9,0.8,1.7,0.6
		c1.2-0.3,2.3-0.2,3.5,0.2c0.4,0.1,0.5,0.3,0.1,0.6c-0.6,0.4-1.1,0.7-1.7,0.9c-0.4,0.2-1,0.3-1.9,0.4
		C199.61,101.85,198.01,102.55,196.51,103.55z"/>
	<path class="st1" d="M196.11,103.35c0.1,0.1,0.2,0.2,0.4,0.2c-0.4,0.5-0.6,1-0.6,1.7c0,0.3,0.2,0.5,0.5,0.5c0,0,0,0,0.1,0l6.2-0.8
		c0.3,0,0.3,0,0.1,0.2c-1.3,1.2-2.9,1.8-4.7,1.9c0,0-0.4,0-1.1-0.1c-1.9-0.1-3.2,1-3.7,3.6c-0.1,0.5,0.1,0.6,0.5,0.4
		c2.2-1,4.4-1.3,6.5-0.9c0.2,0,0.3,0.2,0.2,0.4l0,0c-0.3,1.1-1.1,1.8-2.3,2.1c-1.6,0.4-3.4,0.6-5.4,0.4c-0.3,0-0.6,0.1-0.8,0.4
		c-1,1.5-1.6,3.1-1.9,4.6c0,0.2,0.1,0.3,0.2,0.3h0.1l7.5-2.6c0.1,0,0.3,0,0.3,0.1v0.1c0,0.2-0.2,0.4-0.4,0.6c-2.4,1.9-4.8,3-7.4,3.4
		c-1.1,0.2-1.8,0.8-2.1,2l-1.1,4.3c-0.2,0.1-0.3,0.1-0.5-0.1c0.6-2.8,0.4-5.6-0.6-8.4c-1-3-1.4-6-1.1-9.2c0.1-0.7,0.3-0.7,0.6-0.1
		c1.4,2.8,2.2,5.9,2.4,9.2c0,0.8,0.3,0.9,0.8,0.2c0.8-1,1.2-2.1,1.2-3.2c0.1-1.4,0-2.8-0.2-4.2c-0.3-2-0.4-3.2-0.4-3.6
		c-0.1-1.2,0-2.5,0-3.7c0-0.7,0.2-0.8,0.5-0.3c0.1,0.1,0.1,0.2,0.2,0.4c0.7,2.4,1.1,4.8,1.1,7.3c0,0.5,0.2,0.7,0.5,0.6
		c0.2-0.1,0.3-0.2,0.4-0.4c1-2,1.3-4,1-5.9c-0.5-2.8-0.4-5.6,0.2-8.5c0.1-0.7,0.3-0.7,0.5,0c0.7,2.5,1,5.2,0.6,8
		c-0.1,0.7,0.1,0.8,0.6,0.3L196.11,103.35z"/>
	<g>
		<g>
			<path class="st3" d="M321.41,95.15c-0.4,0-0.7,0.1-0.8,0.3"/>
			<path class="st4" d="M328.31,106.45c-0.1,0.5-0.4,0.5-0.7-0.1"/>
			<path class="st4" d="M187.21,126.15c-0.2,0.1-0.3,0.1-0.5-0.1"/>
			<path class="st4" d="M196.51,103.55c-0.2,0-0.3,0-0.4-0.2"/>
			<path class="st4" d="M270.31,132.45c-0.2,0.5-0.1,0.6,0.2,0.4"/>
		</g>
		
			<ellipse transform="matrix(0.6547 -0.7559 0.7559 0.6547 43.0413 266.1725)" class="st1" cx="312.85" cy="85.98" rx="0.6" ry="4.3"/>
		<path class="st1" d="M321.41,95.15c-0.4,0-0.7,0.1-0.8,0.3c-0.5-1.2-1.2-2.2-2.4-2.9c-0.2-0.1-0.4-0.1-0.6-0.1
			c-2.3,0.6-4.5,0.3-6.6-0.8c-0.3-0.2-0.4-0.4-0.4-0.6s0.2-0.3,0.5-0.3l5,0.4c0.9,0.1,1.4-0.3,1.3-1.2c-0.1-1,0-1.9,0.3-2.6
			c0.1-0.2,0.1-0.2,0.1,0C318.31,90.25,319.41,92.85,321.41,95.15z"/>
		<path class="st1" d="M328.31,106.45c-0.1,0.5-0.4,0.5-0.7-0.1l-1.1-2.1c-0.3-0.6-0.9-0.9-1.5-0.9c-2.6,0.1-4.8-0.3-6.8-1.3
			c-0.8-0.4-0.7-0.7,0.1-0.7c1.8-0.2,3.6,0.1,5.4,0.7c1,0.4,1.2,0.1,0.8-0.9c-0.3-0.7-1-1.7-2-2.9c-0.1-0.2-0.3-0.3-0.5-0.3
			c-2.4,0-4.6-0.4-6.5-1.2c-0.1-0.1-0.2-0.2-0.1-0.3c0,0,0,0,0-0.1c0.7-0.8,1.6-1.1,2.9-0.8c0.8,0.2,1.6,0.1,2.3-0.2
			c0.1-0.2,0.4-0.3,0.8-0.3c0.6-2,0.8-4.1,0.7-6.2c0-0.2,0.1-0.4,0.2-0.4c0.1-0.1,0.2,0,0.3,0.3c0.5,1.9,0.8,3.9,0.9,5.8
			c0.1,1.3,0.3,2.9,0.9,4.5c0.3,0.9,0.7,1.5,1.4,1.8c0.1,0.1,0.2,0,0.3-0.1v-0.1c0.1-2.9,0.4-5.8,0.9-8.7c0-0.2,0.1-0.2,0.2,0
			c1,1.9,1.3,3.8,1,5.7C327.61,100.95,327.71,103.85,328.31,106.45z"/>
		<path class="st2" d="M186.71,126.15c0.1,0.2,0.3,0.2,0.5,0.1c0,0.3,0.2,0.4,0.4,0.3c0.1,0,0.2-0.1,0.4-0.2
			c2.4-2.3,5.1-4.2,8.1-5.6c0.8-0.4,0.9-0.2,0.4,0.5c-2.2,3.1-5.2,5.3-9,6.8c-0.4,0.1-0.6,0.5-0.7,0.9l-0.6,4.6
			c-0.1,0.6,0.1,0.7,0.6,0.3l7.2-5.4c1.2-0.9,1.4-0.7,0.6,0.6c-2,3.2-4.8,5.5-8.4,7.1c-0.2,0.1-0.3,0.3-0.3,0.5l-0.1,4.3
			c0,0.2,0.1,0.3,0.2,0.3c0,0,0,0,0.1,0c0.3-0.1,0.5-0.2,0.6-0.5c0.6-1.3,1.3-2.3,2.3-3c1.5-1,3-2.1,4.5-3.1c1.4-1,1.6-0.7,0.8,0.7
			c-2,3.2-4.7,5.7-8.1,7.4c-0.2,0.1-0.3,0.3-0.3,0.5v5.7c0,1.4,0.3,1.4,1,0.3c1.9-3.2,4.2-6,6.9-8.3c0.6-0.5,0.7-0.4,0.5,0.3
			c-0.6,1.7-1.4,3.3-2.5,4.8c-1,1.3-2.8,3-5.3,5c-0.2,0.1-0.3,0.3-0.3,0.5l0.3,5.2c0.1,0.9,0.3,0.9,0.7,0.1c0.5-1,1-1.9,1.6-3
			c1.2-2.3,2.7-4.3,4.7-6c0.8-0.7,1-0.5,0.7,0.5c-0.6,1.7-1.3,3.2-2.3,4.5c-0.7,1-2.3,2.8-4.7,5.5c-0.1,0.2-0.2,0.4-0.2,0.6
			c0.1,2.1,0.6,4.1,1.4,6c0.3,0.6,0.5,0.6,0.7,0c1.3-4.1,3.2-8,5.6-11.5c0.6-0.8,0.8-0.7,0.6,0.3c-0.3,1.8-1,3.5-1.9,5.1
			c-1.5,2.7-2.6,4.9-3.2,6.6c-0.8,2.3-0.8,4.4,0.1,6.3c0.4,0.8,0.7,0.8,1-0.1c1.2-4,2.8-7.8,4.8-11.5c0.1-0.2,0.2-0.3,0.4-0.3
			s0.3,0.1,0.2,0.4c-1,4.4-2.7,8.7-5.2,12.9c-0.1,0.2-0.2,0.4-0.1,0.6c0.2,1.5,0.7,2.8,1.8,3.9c0.1,0.2,0.3,0.1,0.3-0.1
			c1.1-3.8,2.5-7.6,4.2-11.2c0.3-0.5,0.3-0.4,0.2,0.5c-0.5,2.7-1.1,5.3-2.1,7.9c-0.9,2.6-1.2,4.6-0.9,6.1c0.3,1.3,0.8,2.4,1.5,3.3
			c0.4,0.5,0.7,0.4,0.9-0.2c1.2-4.2,2.1-8.4,2.7-12.7c0.1-0.4,0.2-0.4,0.3-0.1c0,0.1,0.1,0.1,0.1,0.2c0.1,3.2-0.4,6.6-1.3,10.3
			c-0.3,1.3-0.5,2.9-0.4,4.9c0.1,1.8,0.8,3.3,2.3,4.6c0.4,0.4,0.6,0.3,0.7-0.3c0.4-3,0.7-6,0.9-9.1c0-0.1,0.1-0.2,0.1-0.3
			c0.1,0,0.2,0,0.2,0.1c0,0,0,0,0,0.1c0,2.7,0.1,5.5,0.1,8.2c0,2.4,0.7,4.5,2,6.5c1.1,1.7,1.8,1.6,1.9-0.3l0.7-9.5
			c0-0.3,0.1-0.4,0.3-0.1c0.1,0.2,0.2,0.4,0.2,0.7c0.2,3,0.3,5.9,0.4,8.9c0.1,1.7,0.3,2.9,0.8,3.8c0.7,1.2,1.7,2.1,3,2.8
			c0.2,0.1,0.3,0,0.3-0.2c-0.5-4.2-0.7-8.3-0.7-12.3c0-0.6,0.2-0.8,0.5-0.5c0.1,0.1,0.2,0.2,0.2,0.4c0.8,3.6,1.3,7.2,1.5,10.8
			c0.1,1,0.2,1.9,0.4,2.6c0.3,0.8,0.6,1.7,1,2.5c0.6,1.2,1.5,2,2.8,2.5c0.6,0.2,0.8,0,0.6-0.6c-1-3.5-1.7-7.3-1.9-11.3
			c-0.1-1.4,0.2-1.5,0.8-0.2c1.8,3.7,2.5,7.7,2.1,12.2c0,0.2,0.1,0.4,0.2,0.6c1.2,1.3,2.8,2.3,4.8,2.9c0.3,0.1,0.5,0,0.3-0.3
			c-1.1-2.8-1.8-5.7-2.3-8.7c-0.1-0.6,0.1-0.7,0.6-0.5c0.9,0.5,1.6,1.3,2,2.5c0.8,2.3,1.2,4.5,1.3,6.6c0,0.6,0.4,1.1,1,1.3
			c5,1.7,9.9,3.1,14.8,4.3c5,1.2,9.3,1.9,12.8,2.1c6.5,0.3,13-0.4,19.4-2.3c5.4-1.6,11.1-3.2,17.1-4.9c0.4-0.1,0.7-0.4,0.7-0.8
			c0.2-2.3,0.6-4.6,1.1-6.7c0.3-1.3,1-2.4,1.9-3.4c0.5-0.5,0.7-0.4,0.8,0.3c0.1,3-0.6,5.9-2,8.6c-0.4,0.8-0.2,1,0.6,0.7
			c1.6-0.5,3.1-1.3,4.4-2.3c0.2-0.1,0.3-0.3,0.2-0.5c-0.1-4.7,0.7-9.2,2.5-13.4c0.4-0.9,0.6-0.9,0.6,0.1c0.1,4.1-0.5,8.1-1.8,12.1
			c-0.1,0.4,0,0.5,0.4,0.3c1.5-0.8,2.7-1.7,3.6-2.8c0.5-0.6,0.8-1.4,0.9-2.4c0.3-4.7,0.9-9.4,1.9-14.1c0.1-0.4,0.2-0.5,0.4-0.2
			c0.1,0.1,0.1,0.2,0.1,0.3c0.4,4.1,0.1,8.4-0.8,12.9c-0.2,0.8,0.1,0.9,0.6,0.4l3.2-2.8c0.1-0.1,0.2-0.3,0.2-0.6
			c0.3-4.5,0.6-9.1,0.8-13.6c0-0.1,0-0.2,0.1-0.2s0.2,0.1,0.2,0.2l0,0l1,11.5c0,0.2,0.1,0.3,0.3,0.1c1.1-0.9,2.2-2.2,3.1-4
			c0.2-0.4,0.3-0.8,0.3-1.3v-9.8c0-0.3,0.1-0.4,0.3-0.1c0.1,0.1,0.2,0.3,0.2,0.6c0.2,2.8,0.5,5.6,0.8,8.4c0.1,0.5,0.3,0.6,0.6,0.2
			c1.4-1.3,2.2-2.9,2.3-4.8c0.1-0.9,0.1-1.8,0.1-2.7c0-0.7-0.1-1.6-0.4-2.7c-0.7-3.3-1.2-6.7-1.6-10.1c0-0.1,0-0.3,0-0.4
			c0.1-0.8,0.3-0.7,0.6,0.4c1,4.2,1.9,8.4,2.7,12.6c0,0.2,0.2,0.3,0.4,0.3c0.1,0,0.1,0,0.1-0.1c1.1-0.9,1.8-2.1,2.1-3.4
			c0.4-1.7,0.1-3.8-0.9-6.3c-1-2.6-1.8-5.3-2.5-8.1c0-0.2,0-0.3,0.1-0.4s0.2,0,0.3,0.1c2.1,3.6,3.5,7.4,4.3,11.5
			c0,0.2,0.1,0.3,0.3,0.1c1-0.9,1.5-1.9,1.8-3.1c0.1-0.8-0.1-1.8-0.6-2.9c-1.8-3.7-3.3-7.5-4.5-11.4c0-0.2-0.1-0.3-0.1-0.5
			c0-0.6,0.3-0.6,0.7,0.1c2.3,3.6,3.8,7.3,4.6,11.3c0.2,1.1,0.6,1.1,1,0.1c1.2-2.9,1-5.7-0.5-8.4c-1.9-3.3-3.5-6.7-4.8-10.3
			c-0.1-0.2-0.1-0.4,0-0.5s0.3,0,0.5,0.1l0,0c3.1,3.8,5.2,7.8,6.1,12.2c0.3,1.3,0.6,1.3,1.1,0.1c0.7-1.8,1.1-3.7,1.4-5.7
			c0-0.2,0-0.4-0.2-0.6c-1.2-1.7-2.6-3.4-3.9-5c-1.5-1.7-2.6-3.6-3.4-5.7c-0.3-0.8-0.2-1,0.6-0.4c2.9,2.3,5.1,5.3,6.4,9
			c0.3,0.8,0.6,0.9,1,0c1.1-2.5,0.7-4.8-1.2-6.8c-1.6-1.8-3.3-3.5-5-5.3c-0.9-0.9-1.5-1.9-1.9-3.1c-0.2-0.6,0-0.7,0.5-0.5
			c1.5,0.6,2.8,1.5,3.8,2.8c1.4,1.8,2.6,3.7,3.8,5.7c0.5,0.9,0.7,0.8,0.7-0.2l-0.1-5.7c0-0.4-0.3-0.9-0.7-1.2
			c-3.2-2.1-5.8-4.6-7.9-7.7c-0.6-0.9-0.5-1.2,0.4-1c0.2,0.1,0.4,0.2,0.6,0.4c0.6,0.6,1.2,1.2,1.7,1.8c0.1,0.2,0.3,0.2,0.5,0.2
			c1.2,0,2.1,0.5,2.8,1.5c0.6,1,1.3,1.9,2.1,2.8c0.7,0.7,1,0.6,0.8-0.4l-0.5-3.8c0-0.2-0.2-0.4-0.3-0.5c-3.5-1.8-6.4-4.3-8.7-7.4
			c-0.1-0.2-0.1-0.3,0.1-0.3c0.8,0,1.6,0.2,2.3,0.8c2,1.5,3.9,3,5.7,4.8c0.4,0.4,0.6,0.3,0.6-0.2c0.1-1.6-0.1-3.2-0.6-4.8
			c-0.1-0.2-0.2-0.4-0.4-0.5c-1.2-0.9-2.5-1.8-3.9-2.5c-2.2-1.2-4.1-2.9-5.7-4.8c-0.6-0.7-0.4-0.9,0.4-0.6c2.9,1.1,5.6,3,8.2,5.6
			c0.5,0.5,0.8,0.4,0.8-0.3c-0.1-1.9-0.6-3.8-1.8-5.8c-0.1-0.2-0.3-0.3-0.5-0.3c-3.2-0.4-6-1.6-8.6-3.4c-0.2-0.1-0.2-0.3-0.1-0.5
			l0,0c0.2-0.2,0.5-0.3,1-0.2c2.1,0.6,4.3,1.3,6.4,2.1c0.3,0.1,0.7,0,0.8-0.4c0-0.1,0-0.2,0-0.3c-0.2-1.1-0.8-2.5-1.9-4
			c-0.2-0.3-0.6-0.5-1-0.5c-1.5,0.1-2.8,0.1-3.9-0.1c-1.8-0.2-3.1-1-3.9-2.3c-0.1-0.2-0.1-0.5,0.2-0.6c0,0,0.1,0,0.1-0.1
			c2.4-0.4,4.6-0.1,6.6,0.8c0.8,0.4,1,0.1,0.7-0.8c0.3,0.6,0.5,0.7,0.7,0.1c0.2,0.6,0.5,0.8,0.9,0.5c0.2-0.1,0.3-0.3,0.3-0.5
			c0.5-2.5,0.9-5.1,1.2-7.6c0-0.3,0.2-0.4,0.4-0.1c0.1,0.1,0.1,0.2,0.1,0.3c0.5,2.9,0.4,5.9-0.3,8.8c-0.6,2.3-0.3,4.4,0.7,6.5
			c0.5,1,0.8,0.9,1-0.2c0.5-3.3,1.3-6.5,2.5-9.5c0.1-0.4,0.3-0.4,0.4,0c0.5,1.6,0.6,3,0.4,4.3c-0.4,2.1-0.9,4.2-1.5,6.2
			c-1,3-0.9,6,0.2,8.9c0.4,1,0.7,1,1-0.1c0.9-3.7,1.8-7.3,2.7-11c0-0.2,0.1-0.3,0.2-0.3c0.1-0.1,0.3-0.1,0.4,0.1
			c0.1,0.1,0.1,0.2,0.1,0.3c0.4,3.5-0.2,6.9-1.7,10.1c-1.3,2.9-1.8,5.7-1.4,8.5c0.2,1,0.4,1.1,0.9,0.1l4.4-9.8
			c0.6-1.4,0.9-1.3,0.7,0.2c-0.3,3.2-1.2,6.2-2.6,9c-1.9,3.7-2.8,7.5-2.8,11.7c0,0.2,0,0.3,0.1,0.5c0.2,0.3,0.4,0.2,0.6-0.2
			c1.5-2.7,2.9-5.4,4.2-8.2c0.1-0.2,0.3-0.4,0.4-0.4c0.4-0.1,0.6,0.4,0.4,1.2c-0.4,2.5-1.2,4.8-2.4,6.9c-1.6,2.6-2.4,4.1-2.5,4.3
			c-0.7,1.8-1.1,3.7-1.1,5.7c0,0.5,0.1,0.5,0.4,0.2c1.5-1.8,2.9-3.8,4.1-5.9c0.6-1.1,1.1-1.9,1.6-2.3c0.8-0.8,1.1-0.7,0.9,0.4
			c-0.8,4.5-3,7.9-6.7,10.3c-0.2,0.1-0.3,0.3-0.3,0.5l-1.1,5.4c-0.1,0.7,0,0.8,0.5,0.3c2.3-2.3,4.5-4.8,6.6-7.6
			c0.9-1.2,1.2-1.1,0.8,0.4c-0.8,3.1-2.4,5.5-4.9,7.4c-2.3,1.7-3.9,3.9-4.9,6.5c-0.3,0.9-0.2,1,0.5,0.4l8-7.4
			c0.5-0.5,0.7-0.4,0.4,0.3c-1.5,4.3-4.1,7.5-8,9.6c-1,0.6-1.7,1-2,1.3c-0.6,0.6-0.9,1.4-1,2.2c0,0.4,0.1,0.4,0.4,0.2
			c3.3-2.5,6.7-4.7,10.3-6.6c0.7-0.4,0.9-0.2,0.5,0.5c-2.4,4.5-6.1,7.2-11.1,8.2c-0.2,0-0.4,0.1-0.5,0.3c-1.1,1.2-1.7,2.5-1.9,3.9
			c0,0.3,0.1,0.4,0.4,0.3c2.4-1.2,4.7-2.5,6.9-4c1.7-1.1,3.5-1.9,5.4-2.2c0.4-0.1,0.5,0.1,0.2,0.4c-3,4.3-7.1,7.2-12.3,8.5
			c-1.9,0.5-3.3,1.5-4.2,3.2c-0.4,0.7-0.2,0.9,0.5,0.5c2.7-1.2,5.5-2.4,8.3-3.4c0.9-0.3,1.8-0.5,2.6-0.7c0.8-0.1,1.7-0.2,2.7-0.3
			c0.3,0,0.4,0.1,0.2,0.3c-2.1,3.5-5.2,5.5-9.5,6.1c-2.7,0.3-4.7,0.5-5.8,0.5c-0.2,0-0.4,0.1-0.5,0.3c-0.8,1.1-1.6,2.1-2.5,3
			s-0.7,1.2,0.7,0.7c1-0.4,1.9-0.7,2.9-1.1c3.6-1.5,7.3-2,11-1.8c0.3,0,0.5,0.3,0.5,0.5c0,0.1,0,0.2-0.1,0.2c-1,1.6-2.4,2.9-4.1,3.8
			c-4,2.2-8.2,2.7-12.4,1.5c-0.7-0.2-1.3,0-1.8,0.6l-2.3,2.9c-0.4,0.5-0.3,0.7,0.3,0.5c4.6-1.3,9.2-1.5,13.7-0.5
			c0.3,0.1,0.6,0.4,0.5,0.8c0,0.1-0.1,0.2-0.2,0.3c-0.8,0.9-1.8,1.6-2.9,2c-4.5,1.7-8.8,1.4-13-0.9c-0.2-0.1-0.4-0.1-0.5,0l-4.8,4.2
			c-0.4,0.4-0.4,0.6,0.2,0.6c3.1,0.1,6.3,0.3,9.5,0.6c1.5,0.2,2.9,0.6,4.2,1.4c0.7,0.4,0.6,0.7-0.1,1c-5.9,2.3-11.7,2-17.5-0.9
			c-0.2-0.1-0.4-0.1-0.6,0l-5.7,3c-0.5,0.3-0.5,0.4,0.1,0.5c3.6,0.7,7.2,1.1,10.8,1.3c0.9,0,0.9,0.2,0.1,0.5
			c-4.3,1.4-8.6,1.3-12.8-0.2c-1.7-0.6-3.6-0.4-5.8,0.5c-6.9,2.8-13.8,5.3-20.9,7.4c-0.5,0.2-0.5,0.3-0.1,0.6
			c8.6,4.2,17.4,8,26.3,11.4c0.6,0.3,0.7,0.5,0,0.8l-11.3,5.7c-0.2,0.1-0.4,0.1-0.6-0.1c-3.5-3-7.1-5.4-10.8-7.2
			c-4.7-2.2-9.6-4.4-14.6-6.5c-0.3-0.1-0.7-0.2-1.1,0c-4,1.7-7.9,3.3-11.5,4.8c-4.8,2-9,4.8-12.7,8.5c-0.1,0.1-0.4,0.2-0.5,0.1
			l-11.8-5.8c-0.6-0.3-0.6-0.6,0-0.8l24.6-10.5c0.8-0.4,0.8-0.7-0.1-0.9c-5.8-1.8-11.4-3.9-17-6.2c-3.1-1.3-6.3-1.5-9.5-0.4
			c-2.9,0.9-5.8,1.1-8.7,0.5c-1-0.2-1.2-0.5-0.6-0.8c0.2-0.1,0.4-0.2,0.7-0.2c3-0.4,6-0.7,9-1.1c1.3-0.2,1.4-0.5,0.1-1
			c-1.5-0.6-2.9-1.4-4.2-2.5c-0.2-0.2-0.4-0.2-0.7-0.1c-5.9,2.3-11.8,2.7-17.6,1.1c-0.7-0.2-0.8-0.5-0.2-1c0.7-0.6,1.4-1,2.2-1.3
			c0.7-0.3,1.5-0.5,2.5-0.5c2.9-0.3,6-0.3,9.3,0c0.6,0.1,0.7-0.1,0.2-0.6l-5-4.6c-0.1-0.1-0.3-0.2-0.5-0.1c-5.4,3-10.6,2.7-15.6-0.9
			c-0.5-0.4-0.5-0.7,0.1-0.9s1.1-0.5,1.7-0.6c0.5-0.2,1.1-0.3,1.8-0.3c3.4-0.1,6.8,0.2,10.2,1.2c0.6,0.2,0.7,0,0.3-0.5l-2.5-3.2
			c-0.2-0.3-0.7-0.5-1.1-0.4c-3.9,1-7.7,0.7-11.4-0.8c-2.2-0.9-3.9-2.5-5-4.6c-0.1-0.1,0-0.3,0.1-0.4h0.1c5-0.1,9.8,1,14.2,3.2
			c0.3,0.2,0.5,0.1,0.5-0.2c0-0.1-0.1-0.2-0.2-0.4c-0.9-1.1-1.8-2.3-2.7-3.5c-0.2-0.3-0.6-0.5-1-0.5c-3.3,0.1-6.3-0.3-9-1.4
			c-2.2-0.8-4-2.2-5.2-4.2c-0.5-0.8-0.3-1.2,0.7-1c4.4,0.8,8.4,2.3,12.1,4.3c0.9,0.5,1.1,0.3,0.6-0.6c-0.4-0.8-1-1.6-1.7-2.2
			c-0.5-0.5-1.3-0.8-2.4-1c-4.9-1-8.7-3.5-11.5-7.8c-0.4-0.5-0.2-0.7,0.4-0.5c3.9,1.2,7.6,3.2,11,5.9c0.5,0.4,0.7,0.3,0.7-0.4
			c-0.1-1.5-0.8-2.9-2-4.1c-0.1-0.1-0.3-0.2-0.6-0.3c-4.7-0.8-8.1-3.2-10.2-7.3c-0.6-1.1-0.3-1.4,0.8-0.7c3.2,1.9,6.3,3.9,9.4,5.9
			c0.3,0.2,0.5,0.2,0.5-0.2c0.1-0.7-0.3-1.3-1.2-1.7c-4.4-2.4-7.7-5.9-9.8-10.5c-0.4-0.9-0.3-1,0.4-0.4l7.7,6.9
			c1,0.9,1.3,0.7,0.8-0.5c-1-2.4-2.5-4.4-4.6-6c-2.5-1.9-4.2-4.4-5.1-7.4c-0.2-0.6,0-0.7,0.5-0.3c0.8,0.6,1.6,1.4,2.4,2.4
			c1.5,1.9,3.1,3.8,4.8,5.6c0.6,0.6,0.8,0.5,0.6-0.3c-0.6-3.4-2.1-6.3-4.5-8.7c-2-2-3.2-4.4-3.8-7.1c-0.4-1.8,0-2,1.1-0.5
			c1.7,2.2,3.2,4.6,4.6,7.2c0.2,0.4,0.4,0.5,0.7,0.4c0.2-0.1,0.3-0.3,0.3-0.5c0.1-2.9-0.7-5.6-2.2-7.9c-1.2-1.9-1.8-2.8-1.8-2.8
			c-0.9-1.7-1.4-3.5-1.6-5.5c-0.2-1.4,0.1-1.5,0.9-0.3c1.6,2.6,2.9,5.3,4.1,8.2c0.2,0.6,0.4,0.6,0.4-0.1c0.4-4.1-0.2-8-2-11.6
			c-1.3-2.6-1.9-3.8-1.9-3.9c-0.7-1.9-1.2-3.9-1.3-5.9c-0.1-0.8,0.1-0.8,0.5-0.2c1.9,3.2,3.4,6.5,4.5,10c0.2,0.6,0.4,0.8,0.7,0.4
			c0.1-0.1,0.2-0.3,0.2-0.5c0.4-3,0-5.9-1.3-8.6c-1.3-2.9-1.9-6-1.8-9.1c0.1-1.4,0.3-1.4,0.8-0.1c1.2,3.6,2.2,7.2,2.9,10.9
			c0,0.2,0.2,0.4,0.4,0.4s0.4-0.1,0.5-0.5C186.41,126.95,186.61,126.55,186.71,126.15z"/>
	</g>
</g>
<g>
	<path class="st0" d="M259.51,87.75c-0.5,0-0.8,0.3-0.9,1c-0.2,2.4-0.4,4.9-0.7,7.3c0,0.3-0.2,0.3-0.4,0.1l-1.9-2.1
		c-0.2-0.2-0.3-0.4-0.3-0.5c-0.2-0.7-0.5-1.3-0.8-1.9c-0.5-0.8-0.8-1.4-0.9-1.8c-0.1-0.8,0.2-1.6,0.8-2.4c0.4-0.5,0.5-0.9,0.3-1.3
		c-0.4-0.5-0.3-1.2,0.1-1.6c1.4-1.3,1.7-2.2,0.7-2.9c-0.3-0.2-0.6-0.1-0.8,0.1l0,0c-1.9,3-3.3,6-4.5,8.9c-0.1,0.2-0.2,0.2-0.3,0
		c-0.9-1.2-1.3-2.5-1.2-3.9c0-0.7,0.4-1.7,1-3.1c0.5-1,0.9-2,1.2-3.1c0.1-0.2,0-0.4-0.2-0.5c-0.7-0.5-1.2-0.1-1.2,1
		c0,0.7-0.3,0.8-0.7,0.3c-0.6-0.6-1-0.7-1.1-0.1c-0.1,0.4-0.1,0.8-0.1,1.3c0.1,2-0.1,2.7-0.8,2.1c-0.2-0.2-0.4-0.2-0.5-0.1
		c-0.4,0.4-0.4,1.2,0,2.6c0.2,0.6,0,0.7-0.4,0.3c-1.3-1.2-1.8-2.6-1.4-4.5c0.2-0.9,0.9-2,1.9-3.2c0.8-0.9,1.7-1.9,2.5-2.8
		c0,0,0.3-0.3,0.8-0.8c1-1,0.6-1.6-1.4-1.7c-1,0-2.1,0.5-3.3,1.7c-0.1,0.1-0.1,0.1-0.2,0.1c-0.1,0-0.1,0-0.1-0.1
		c-0.1-0.1-0.1-0.2,0-0.2c1.9-3.8,4.9-5.5,9.2-5.3c0.2,0,0.4-0.1,0.6-0.2c0.4-0.5,0.3-0.9-0.5-1.3c-0.4-0.2-1.3-0.2-2.8,0
		c-0.2,0-0.4-0.1-0.4-0.3c-0.2-1.1,0.4-1.9,1.6-2.5c1.1-0.5,2.1-0.4,3,0.4c0.8,0.6,1.6,1.4,2.5,2.2c0.2,0.2,0.3,0.3,0.5,0.3
		c0.3,0,0.4-0.2,0.3-0.7c-0.4-1.9,0.1-3.4,1.6-4.5c0.2-0.2,0.5-0.2,0.7,0c1.9,1.1,2.6,2.5,2.1,4.3c-0.1,0.2-0.1,0.4-0.1,0.5
		c0.1,0.5,0.3,0.5,0.8,0c0.6-0.6,1.2-1.2,1.9-1.7c0.8-0.6,1.6-0.9,2.3-0.9c1.4-0.1,2.5,0.6,3.3,1.9c0.6,1,0.3,1.3-0.8,1
		c-0.9-0.2-1.8-0.2-2.6,0.1c-0.2,0.1-0.4,0.2-0.5,0.4c-0.7,1-0.3,1.4,1.2,1.2c4.2-0.5,7.2,1.1,9,4.8c0,0.1,0.1,0.2,0.1,0.3
		c0,0.3-0.1,0.4-0.3,0.2c-1.5-1.3-3.1-1.7-5-1.4c-0.7,0.1-0.8,0.4-0.3,1c1.4,1.5,2.9,3.1,4.4,4.5c2.2,2.2,2.4,4.7,0.6,7.3
		c-0.5,0.7-0.7,0.7-0.6,0c0-0.1,0-0.3,0.1-0.4c0.3-0.9,0.3-1.7-0.2-2.5c-0.1-0.2-0.3-0.3-0.5-0.3h-0.5c-0.2,0-0.3-0.1-0.3-0.3
		c-0.1-0.7-0.1-1.3-0.2-2c-0.1-0.8-0.6-1.1-1.3-0.8c-0.2,0.1-0.4,0-0.5-0.2c-0.5-0.8-1-1.1-1.5-0.9c-0.2,0.1-0.3,0.2-0.3,0.5
		c0.1,0.9,0.3,1.5,0.7,1.9c2.1,2.7,2.4,5.5,0.8,8.5c-0.3,0.6-0.5,0.6-0.6-0.1c-0.4-2.3-1.3-4.5-2.7-6.6c-0.1-0.2-0.3-0.3-0.5-0.4
		c-0.6-0.4-0.9-0.9-1-1.7c-0.1-1.2-0.5-1.3-1.3-0.4c-0.6,0.7-0.6,1.4,0.2,2s1.1,1.4,0.9,2.4c0,0.2,0,0.4,0.2,0.6
		c1.2,1.5,1.3,3.1,0.4,4.8c-0.1,0.2-0.3,0.3-0.5,0.3c-1.2,0-1.5,0.6-0.9,1.9c0.1,0.2,0,0.3-0.2,0.4l0,0c-0.7,0.3-1.2,0.9-1.4,1.6
		c-0.1,0.2-0.2,0.4-0.4,0.4c-0.3,0.1-0.5-0.1-0.4-0.6c0-0.2,0-0.4,0-0.6c-0.6-1.6-0.7-3.3-0.5-5.1c0.2-1.2-0.2-1.8-1.2-1.8
		c-0.2,0-0.3,0.1-0.4,0.3c-0.2,1.8-0.1,3.9,0.2,6.5c0,0.2,0.1,0.4,0.1,0.7c0.4,1.3,0.4,2.4,0,3.2c-0.1,0.2-0.1,0.4,0,0.5
		c0.6,0.9,0.6,1.9,0.1,2.9c-0.1,0.2-0.1,0.4,0,0.6c0.4,0.9,0.4,1.9,0,2.8c-0.1,0.2,0,0.4,0.1,0.5c0.7,0.9,0.9,1.8,0.3,2.8
		c-0.3,0.5-0.3,1,0,1.4c0.1,0.2,0.2,0.4,0.1,0.6l-0.6,1.5c-0.1,0.2-0.1,0.4,0,0.6c0.4,0.8,0.4,1.8,0,2.9c-0.1,0.2,0,0.4,0.2,0.5h0.1
		h2.7c0.8,0,0.9,0.2,0.2,0.7l-4.6,3.4c-0.3,0.2-0.7,0.2-0.9,0c-1.5-1.2-3.1-2.3-4.6-3.3c-0.4-0.3-0.5-0.5-0.1-0.7
		c0.1-0.1,0.3-0.1,0.5-0.1c0.7,0.1,1.5,0.1,2.3,0.1c0.4,0,0.7-0.3,0.7-0.7c0-0.1,0-0.2-0.1-0.3c-0.4-0.8-0.3-1.7,0.2-2.6
		c0.1-0.2,0.1-0.5,0-0.7c-0.6-0.9-0.7-1.7-0.5-2.5c0.1-0.2,0-0.4-0.1-0.6c-0.6-0.9-0.6-1.9,0.1-2.7c0.1-0.2,0.2-0.4,0.1-0.5
		c-0.4-0.9-0.4-1.9,0-2.8c0.1-0.2,0.1-0.4,0-0.6l-0.5-1.9c0-0.2,0-0.4,0.2-0.6c0.5-0.5,0.6-1.1,0.2-1.8c-0.1-0.2-0.1-0.4-0.1-0.6
		c0.6-3.1,0.8-6.2,0.6-9.4C259.81,87.95,259.71,87.75,259.51,87.75z"/>
	<path class="st2" d="M270.31,132.45c-0.2,0.5-0.1,0.6,0.2,0.4c0.9,1.9,2.4,3,4.5,3.3c1.5,0.2,2.7-0.2,3.8-1.3
		c0.6-0.6,1.3-0.9,2-0.8s1.3,0.4,1.7,0.9c0.5,0.7,0.4,1.6-0.4,2.5c-2,2.4-4.7,3.2-7.9,2.4c-2.6-0.6-4.7-1.9-6.4-3.7
		c-0.2-0.2-0.4-0.2-0.5-0.2c-0.6,0.1-0.9,0.5-0.9,1.2c-0.1,1-0.6,1.7-1.6,1.9c-0.2,0-0.4,0-0.6-0.1c-0.9-0.6-1.1-1.3-0.6-2.2
		c0.2-0.3,0.5-0.6,1-0.8c0.4-0.2,0.8-0.3,1.2-0.5c0.3-0.1,0.4-0.5,0.3-0.8c0-0.1-0.1-0.1-0.1-0.2l-4.6-4.5c-0.2-0.2-0.5-0.2-0.7,0
		l-4.7,4.6c-0.2,0.2-0.2,0.4,0,0.6l0,0c0.4,0.3,0.8,0.5,1.2,0.7c0.6,0.2,1,0.4,1.2,0.6c0.6,0.7,0.7,1.3,0.1,1.9
		c-0.6,0.7-1.2,0.8-1.7,0.3c-0.5-0.4-0.9-1.1-1.2-2.1c-0.1-0.4-0.6-0.7-1-0.6c-0.1,0-0.3,0.1-0.4,0.2c-2,2.1-4.6,3.3-7.9,3.8
		c-3.2,0.5-5.6-0.8-7.2-3.8c-0.1-0.2-0.1-0.4,0-0.6c0.7-1.7,1.8-2.2,3.4-1.4c0,0,0.5,0.3,1.4,1c1.3,1,2.9,1.1,4.6,0.3
		c1.1-0.5,2.2-1.1,3.1-2c0.2-0.2,0.2-0.6,0-0.8l-0.1-0.1l-1.9-1c-0.5-0.3-0.7-0.9-0.4-1.5l0,0c0.4-0.8,1.1-1.2,1.9-1.1
		c0.5,0.1,0.9,0.3,1.1,0.7c0.2,0.4,0.2,0.8-0.1,1.2c-0.1,0.2-0.1,0.4-0.1,0.6c0.3,0.9,0.9,1,1.7,0.1c1.4-1.4,2.9-2.8,4.5-4.3
		c0.2-0.2,0.2-0.6,0-0.8l0,0c-4.1-4-8.6-7.6-13.4-10.8c-1.2-0.8-2.7-1.6-4.5-2.3c-1.5-0.6-3.1-1.1-4.8-1.5
		c-3.8-0.9-7.6-1.4-11.5-1.5c-0.1,0-0.2,0-0.3-0.1c-0.2-0.1-0.2-0.3,0.2-0.4c8.5-2.5,16.5-1.1,24,4c5.4,3.6,9.7,7,12.9,10.2
		c0.1,0.1,0.3,0.1,0.5,0c5.6-5.4,11.1-9.5,16.3-12.3c6.5-3.4,13.3-4.1,20.4-2.1c0.4,0.1,0.5,0.2,0.5,0.4c0,0.1-0.3,0.2-0.5,0.2
		c-3.8,0.1-7.5,0.6-11.2,1.5c-3.1,0.8-6.1,2-9,3.8c-5.1,3.1-9.7,6.8-13.9,11.1c-0.1,0.1-0.1,0.3,0,0.5c1.5,1.5,3,2.9,4.5,4.3
		C269.01,132.55,269.61,132.65,270.31,132.45z"/>
	<path class="st1" d="M270.41,132.95c-0.3,0.2-0.4,0.1-0.2-0.4c-0.9-2.3-0.3-3.3,1.8-3c0.2,0,0.4,0.1,0.5,0.3
		C273.61,131.35,272.91,132.35,270.41,132.95z"/>
</g>
<path class="st2" d="M302.11,142.35c0-0.2,0.2-0.3,0.4-0.3l16.8-0.1c0.2,0,0.5,0.2,0.5,0.4v0.1c-2.1,12.9-7.6,24.1-16.3,33.7
	c-4.2,4.6-9.7,8.5-16.5,11.7c-9.4,4.5-19.3,6.4-29.5,5.9c-4.3-0.2-8.5-1-12.8-2.2c-16.8-4.8-28.9-15.5-36.3-32.1
	c-2.3-5.1-4-10.5-5.3-16.1c-0.1-0.3,0.1-0.6,0.4-0.7h0.1h15.8c0.4,0,0.7,0.2,0.8,0.6c1.8,7.1,4.9,13.4,9.2,18.9
	c6.6,8.4,15.3,13.2,26,14.4c2.4,0.3,4.8,0.4,7.2,0.4s4.8-0.3,7.1-0.8c9.8-2,17.7-6.8,23.7-14.6c2.1-2.7,3.8-5.8,5.3-9.2
	C300.21,149.25,301.31,145.85,302.11,142.35z M306.11,149.65c-0.8-0.6-0.7-0.8,0.3-0.6c3.4,0.6,4.8,2.5,4.5,5.7c0,0.3,0,0.5,0,0.7
	c0.1,0.7,0.4,0.7,0.8,0.2c0.1-0.2,0.3-0.4,0.3-0.6c0.7-2.1,0.1-3.8-1.7-5.2c-2.1-1.6-4.5-2.3-7.2-2c-0.2,0-0.3,0.1-0.1,0.3
	c1.1,1.5,2.6,2.4,4.5,2.8c0.1,0,0.2,0.1,0.4,0.1c0.4,0.2,0.6,0.1,0.4-0.2c-0.1-0.1-0.1-0.2-0.3-0.2
	C307.11,150.25,306.51,149.85,306.11,149.65z M210.81,151.15c-1,1.2-1.2,2.2-0.5,3c0.4,0.5,1.1,0.8,2.1,0.9c0.7,0.1,1.5,0.2,2.3,0.2
	c0.4,0,0.7,0.4,0.7,0.8c0,0.1,0,0.2-0.1,0.3c-0.3,0.5-0.7,0.8-1.2,1.2c-0.8,0.5-0.9,1.2-0.2,1.9l2.5,2.9c0.1,0.2,0.3,0.3,0.5,0.3
	c1.1,0.1,1.9-0.3,2.5-1.1c0.2-0.3,0.3-0.6,0.4-0.9c0.1-0.7-0.3-0.9-1.1-0.6c-0.2,0.1-0.3,0.2-0.4,0.4c-0.5,1.1-1,1.3-1.6,0.5
	c-0.1-0.1-0.4-0.5-0.8-1.1c-1.1-1.4-0.8-2.7,0.8-3.9c0.7-0.5,0.6-0.9-0.5-1.2l-4.2-1.1c-0.2-0.1-0.4-0.2-0.4-0.3
	c-0.5-1.2-0.1-2.2,1.1-3c1.3-0.8,2.3-0.9,3.2-0.1c0.3,0.3,0.7,0.8,1,1.5c0.4,0.8,0.7,1.4,0.9,1.6c0.5,0.6,0.6,0.6,0.5,0
	c-0.3-1.2-0.9-2.3-1.6-3.1c-0.8-0.9-1.7-1.2-2.7-1.1C212.71,149.45,211.71,150.05,210.81,151.15z M296.11,166.45
	c0.4,0.6,0.9,1.2,1.4,1.7c0.7,0.7,1.1,1.3,1.2,1.8c0.3,1.2-0.2,2-1.4,2.5c-0.4,0.2-0.8,0.1-1.2-0.2c-1-0.8-1.7-1-2.2-0.6
	c-0.3,0.3-0.5,0.8-0.5,1.6c0,1.4,0,2.7,0,4.1c0,0.3-0.3,0.6-0.6,0.6h-0.1c-2.2-0.6-3.3-2.1-3.1-4.3c0-0.2,0.1-0.4,0.2-0.6
	c0.7-0.9,1.4-1.8,2.1-2.6c0.1-0.1,0.1-0.1,0.1-0.2c0-0.1,0-0.2-0.1-0.2s-0.3,0-0.4,0.2c-0.4,0.4-0.8,0.9-1.2,1.2
	c-1.4,1.3-1.8,2.8-1.2,4.4c0.3,0.7,0.7,1.4,1.4,2c0.6,0.5,1.2,0.9,2,1.3c1.1,0.6,1.7,0.2,1.8-1c0-0.5,0.1-1,0.1-1.7
	c0-0.2-0.1-0.8-0.2-1.7c-0.1-0.7,0.1-1.4,0.6-1.9c0.1-0.1,0.3-0.1,0.5,0l0,0c1.4,1.3,2.7,1.3,3.9,0.1c0.3-0.3,0.5-0.7,0.6-1.1
	c0.1-0.4,0.2-0.8,0.3-1.2c0.1-0.2,0.2-0.3,0.4-0.4c1.8-0.3,2.7-1.4,2.7-3.3c0-0.2,0.1-0.3,0.3-0.3c0.7,0,1.2-0.3,1.3-0.8
	c0.3-0.9,0.7-1.1,1.2-0.6c0.2,0.2,0.3,0.3,0.5,0.2c0.9,0,1.3-0.6,1.1-1.6c0-0.3-0.2-0.7-0.5-1.3c-0.1-0.2-0.1-0.4,0.1-0.5
	c0.6-0.5,0.9-1.2,0.9-2c0-0.7,0-1.1,0.1-1.2c0.1-0.9,0.2-1.9,0.3-2.8c0.1-1.3-0.4-1.3-1.3-0.2c-0.4,0.5-0.6,0.4-0.6-0.2
	c0-2.9-1.3-4.5-4.1-5c-0.9-0.1-1.1,0.2-0.6,0.9c0.5,0.8,1.1,1.5,2,2.2c0.1,0.1,0.3,0.2,0.4,0.2c0.4,0,0.3-0.3-0.2-0.7
	c-0.3-0.3-0.4-0.5-0.5-0.7s0-0.3,0.3-0.2c0.7,0.2,1.2,0.6,1.7,1.1c0.1,0.1,0.2,0.4,0.2,0.6c-0.1,0.9,0.1,1.8,0.5,2.5
	c0.6,1.1,0.9,1.8,1,2c0.2,1.6-0.6,2.7-2.5,3.5c-0.1,0.1-0.2,0.2-0.2,0.4c0.3,1.5-0.2,2.4-1.4,2.8c-0.2,0.1-0.4,0-0.6-0.1l-4.5-3.9
	c-0.2-0.2-0.4-0.3-0.5-0.2c-0.2,0-0.3,0.2-0.3,0.4c0,0.1,0.1,0.3,0.3,0.4c1.4,1.4,2.9,2.8,4.3,4.1c0.2,0.1,0.2,0.3,0.2,0.5
	c0,1.4-0.7,2.2-2.1,2.4c-0.2,0-0.4,0-0.6-0.2l-3.4-3.5c-0.1-0.2-0.2-0.4-0.2-0.6c0-0.5,0.2-0.9,0.4-1.2c0.1-0.1,0.2-0.1,0.3,0
	c0,0,0,0,0.1,0.1c0.2,0.3,0.4,0.6,0.7,0.8c0.2,0.2,0.3,0.1,0.2-0.1l-1.4-2.7c-0.3-0.6-0.5-0.5-0.5,0.1c-0.2,2-0.7,3.9-1.7,5.6
	c-0.1,0.2-0.1,0.4-0.1,0.5c0.1,0.5,0.3,0.4,0.6-0.3c0.3-0.6,0.7-1,1.3-1.1C295.81,166.15,296.01,166.25,296.11,166.45z
	 M220.01,152.55v-0.8c0-0.2-0.1-0.4-0.3-0.4c-1.1-0.2-1.2,0.5-0.1,1.9c0.2,0.2,0.2,0.6,0.2,0.8c0,0.2,0,0.3,0.2,0.3s0.4-0.1,0.5-0.2
	c0.4-0.5,0.4-0.9-0.2-1.2C220.11,152.95,220.01,152.75,220.01,152.55z M213.11,160.75c-0.3,0.1-0.4,0.2-0.4,0.5
	c0,0.1,0.1,0.3,0.2,0.6c0.2,0.3,0.3,0.7,0.4,1.2c0.2,0.9,0.6,1.2,1.3,0.6c0.2-0.1,0.2-0.3,0.2-0.5c-0.3-0.8-0.7-1.6-1.2-2.2
	C213.51,160.75,213.31,160.65,213.11,160.75z M221.41,161.95c0.4-0.1,0.7,0.1,0.8,0.5c0.4,1.3,0.2,2.5-0.6,3.5
	c-0.7,0.9-1.5,1-2.4,0.3c-1-0.8-1.8-1.5-2.5-2.1c-0.1-0.1-0.3-0.2-0.4-0.3c-0.7-0.3-0.8-0.1-0.3,0.6c0.1,0.1,0.2,0.3,0.3,0.4
	c0.8,1.4,2,2.1,3.4,2.2c1.4,0.1,2.4-0.4,3.1-1.4c0.7-1,0.8-2.3,0.4-3.9c-0.1-0.2-0.3-0.4-0.5-0.4c-2-0.3-3.1,0.6-3.4,2.4
	c0,0.2,0.1,0.4,0.2,0.6c0.3,0.2,0.5,0.2,0.9,0.1c0.2-0.1,0.3-0.3,0.4-0.5l0.3-1.5C221.11,162.15,221.21,162.05,221.41,161.95z
	 M291.41,168.65c0.8,0,1.1-0.2,1-0.9c0-0.2-0.2-0.4-0.4-0.4c-0.6-0.1-1,0.1-1.1,0.7c0,0.2-0.2,0.3-0.4,0.3c-0.7,0-1.1,0.3-1,1
	c0,0.2,0.2,0.4,0.4,0.4c0.7,0.2,1.1-0.1,1.2-0.8C291.11,168.75,291.31,168.65,291.41,168.65z M230.71,176.95c-0.3-0.5-0.7-0.8-1.2-1
	c-1.2-0.4-1.4-1-0.7-1.8c0.2-0.2,0.2-0.4,0.2-0.5c0-1.3-0.5-1.8-1.7-1.5c-0.2,0-0.3,0.2-0.2,0.4c0.2,1.2-0.1,1.5-1,0.6
	c0,0-0.2-0.2-0.5-0.4c-0.7-0.6-0.9-1.3-0.8-2.3c0.1-0.5-0.2-0.9-0.7-1c-1.2-0.3-1.5,0.2-0.8,1.4c0.1,0.2,0,0.5-0.2,0.7
	c-0.1,0-0.1,0-0.2,0.1c-1.3,0.2-2.5-0.4-3.4-1.6c-0.1-0.2-0.3-0.2-0.4-0.2c-0.1,0-0.2,0.2-0.2,0.4v0.1c0.7,1.6,2.2,2.3,4.4,2.1
	c0.3,0,0.5,0.1,0.7,0.3c0.6,1,1.5,1.6,2.7,1.8c0.2,0,0.3,0.2,0.4,0.4c0.2,0.7,0.5,1.2,1,1.6c0.6,0.5,0.9,0.7,1,0.7
	c0.6,0.5,1.2,1,1.8,1.5c0.1,0,0.4,0.3,1,0.9c0.9,0.8,2,1.1,3.2,1c0.5,0,1.1-0.3,1.4-0.7c1.8-2.2,2.6-4.6,2.3-7.3
	c-0.1-0.6-0.3-0.7-0.8-0.3c-1.3,1.3-2,2.9-2.4,4.7c-0.1,0.3,0,0.4,0.2,0.3c0,0,0.1-0.1,0.1-0.2c0.4-0.9,0.8-1.7,1.3-2.4
	c0.2-0.3,0.4-0.3,0.4,0.1c0,1.1-0.2,2.1-0.6,3.1c-0.3,0.7-0.6,1.2-1.1,1.5c-0.6,0.4-1.3,0.5-2,0.2c-0.2-0.1-0.7-0.5-1.3-1.3
	c-0.4-0.5-1-0.9-1.6-1.1C230.91,177.35,230.81,177.15,230.71,176.95z M241.01,177.35c-0.1,3.2-1.9,4.8-5.2,4.8
	c-1.5,0-1.6,0.3-0.1,0.8s2.8,0.3,3.9-0.8c1.9-1.9,2.8-4.4,2.4-7.3c0-0.4-0.2-0.5-0.5-0.2c-1.4,1.3-2.2,3-2.4,4.8c0,0.1,0,0.1,0,0.1
	c0,0.1,0.1,0.1,0.1,0.1c0.1,0,0.1-0.1,0.2-0.2l1.4-2.3C240.91,177.05,241.01,177.05,241.01,177.35z M281.61,177.45
	c2.6,2.3,2.6,4.7,0.2,7.2c-0.5,0.5-0.4,0.8,0.2,0.7c0.2,0,0.3-0.1,0.5-0.2c1.9-1.2,2.5-2.8,1.9-4.8c-0.7-2.1-1.9-3.8-3.6-5.2
	c-0.5-0.4-0.7-0.3-0.7,0.3c0,1.6,0.6,3.1,1.8,4.5c0.2,0.2,0.3,0.3,0.4,0.1c0-0.1,0-0.2-0.1-0.4l-0.8-2
	C281.31,177.25,281.41,177.25,281.61,177.45z M278.41,178.95c1,1.4,1.5,2.6,1.5,3.4c0,1.7-0.8,2.4-2.2,2.1c-0.2,0-0.3-0.2-0.3-0.4
	l0,0c0.3-1.3-0.3-1.8-1.7-1.3c-0.6,0.2-1,0.6-1.2,1.3c-0.1,0.2,0.1,0.5,0.3,0.6c0.1,0,0.1,0,0.2,0c0.6-0.1,0.9,0.1,0.8,0.4
	c-0.1,0.2-0.2,0.3-0.4,0.4c-1.2,0.7-2.4,1.1-3.5,1.2c-0.7,0.1-1.3,0.4-1.6,1.1c-1.1,2-2.5,3.1-4.3,3.5c-0.2,0-0.4,0.2-0.4,0.4
	s0.2,0.3,0.6,0.3c0.3,0,0.5,0,0.7,0c1.5,0,2.8-1,4-3.1c0.4-0.7,1-1,1.7-0.9c1.3,0.1,2.6-0.6,3.9-1.8c0.1-0.1,0.4-0.2,0.6-0.2
	c2.5,0.4,3.6-0.6,3.4-3.1c-0.2-2.6-1.3-4.8-3.2-6.4c-0.5-0.5-0.8-0.3-0.9,0.4c-0.1,1.8,0.4,3.4,1.6,4.8c0.2,0.2,0.2,0.1,0.2-0.1
	c0-0.7-0.1-1.4-0.5-2c-0.3-0.6-0.3-0.9,0.1-0.8C278.11,178.65,278.21,178.75,278.41,178.95z M254.71,180.35c0.3-0.6,0.1-1.1-0.4-1.3
	c-0.1-0.1-0.4,0-0.6,0.1c-0.3,0.2-0.6,0.1-0.8-0.1c-0.2-0.2-0.4-0.3-0.5-0.3c-0.8-0.2-1,0.1-0.8,0.9c0.1,0.1,0.2,0.3,0.5,0.4
	l1.8,0.6C254.31,180.75,254.61,180.55,254.71,180.35z M260.71,187.05c-0.1-0.3-0.3-0.5-0.6-0.6c-0.1-0.1-0.4-0.1-0.5,0.1
	c-1.1,1.2-2.4,1.5-4,1.1c-1.1-0.3-1.7-1.1-1.7-2.5c0-1-0.3-1.5-1-1.5c-0.4,0-0.8,0.2-1.2,0.6c-0.9,0.7-1.7,1.6-2.4,2.5
	c-0.6,0.7-1.1,0.7-1.5-0.1c-0.3-0.5-0.4-1.2-0.4-1.9c0-0.9,0-1.5,0.1-1.9c0.2-0.8,0.7-1.3,1.6-1.4c0,0,0.4,0,1.2,0.1
	c0.6,0,1.3-0.1,2.1-0.3c0.3-0.1,0.3-0.2,0-0.3c-0.2-0.1-0.4-0.1-0.6,0c-0.3,0.1-0.5,0.1-0.6,0c-3.7-0.7-5.3,0.8-5,4.7
	c0.1,1,0.3,1.8,0.6,2.4c0.5,1,1.2,1.1,2,0.3s1.5-1.6,2.2-2.4c0.3-0.4,0.6-0.6,1-0.7c0.8-0.3,1.1,0.1,1.1,1.2c0,0.2,0,0.4,0.1,0.6
	c1.1,1.9,3,2.3,5.4,1.3c0.4-0.2,0.8-0.1,1.2,0.1c1.1,0.6,2.3,0.8,3.4,0.6c1.1-0.2,1.9-0.7,2.4-1.5c0.6-0.9,0.6-2,0-3.3
	c-0.2-0.3-0.6-0.5-0.9-0.3c-0.1,0-0.1,0.1-0.2,0.1c-0.8,0.7-0.7,1.4,0.3,1.9c0.4,0.2,0.5,0.7,0.3,1c-0.1,0.1-0.2,0.2-0.3,0.3
	c-1.2,0.8-2.5,0.9-3.8,0.4C261.01,187.45,260.91,187.25,260.71,187.05z M263.61,191.85c0.3,0,0.6-0.3,0.7-0.7c0-0.4-0.2-0.8-0.5-0.8
	l0,0c-0.3,0-0.6,0.3-0.7,0.7C263.11,191.45,263.31,191.75,263.61,191.85L263.61,191.85z M259.41,192.05c0.6,0.8,1,0.7,1.5-0.1
	c0.1-0.2,0.1-0.4,0-0.6c-0.3-0.5-0.8-0.6-1.4-0.4c-0.2,0.1-0.4,0.1-0.6,0c-0.4-0.1-0.8-0.1-1.2,0.1c-0.2,0.1-0.3,0.3-0.2,0.5
	c0.2,1.2,0.7,1.3,1.5,0.4C259.11,191.95,259.31,191.95,259.41,192.05L259.41,192.05z"/>
<path class="st2" d="M244.71,150.55c3.2,3.1,6.8,5.2,10.8,6.4c3.7,1.1,7.4,1.2,11.2,0.2c7.4-1.8,12.9-6.5,16.4-14.1
	c0.1-0.2,0.3-0.4,0.6-0.4h14c0.4,0,0.7,0.3,0.7,0.7v0.1c-1,5.2-2.8,9.9-5.4,14.3c-2.3,3.9-5.2,7.1-8.6,9.8c-3.2,2.6-7,4.5-11.4,5.8
	c-5,1.5-10,2.1-14.9,1.6c-7.4-0.7-14-3.4-19.8-8.1c-3.3-2.7-6.1-6-8.4-9.8c-2.6-4.3-4.4-8.9-5.5-13.8c-0.1-0.3,0.1-0.6,0.4-0.6h0.1
	h13.6c0.3,0,0.6,0.2,0.7,0.4C240.71,145.95,242.61,148.35,244.71,150.55z M288.31,154.75c-0.4,0.6-0.4,0.9,0,0.9
	c0.2,0,0.4-0.1,0.5-0.3c1.2-2,0.9-3.7-0.8-5.1c-0.3-0.3-0.7-0.5-1.1-0.5c-1.1-0.2-1.4,0.2-0.9,1.3c0.1,0.2,0.4,0.3,0.6,0.2
	c0.7-0.4,1.2-0.3,1.5,0.1c0.1,0.1,0.2,0.5,0.4,1.1c0.1,0.5,0.2,1,0.1,1.6C288.61,154.15,288.51,154.45,288.31,154.75z
	 M238.31,160.95c0.2,1.4,1.1,2.2,2.5,2.3c0.2,0,0.4,0.1,0.5,0.3c0.4,0.8,0.9,1.5,1.6,2c0.2,0.1,0.4,0.2,0.6,0.2
	c1.7,0,3.3,0.1,4.9,0.5c0.3,0.1,0.5,0.1,0.7,0.1c0.5-0.1,0.6-0.4,0.1-1c-0.3-0.4-0.6-0.8-0.8-1.3c-0.8-1.6-1.9-1.9-3.2-0.8
	c0,0-0.2,0.2-0.6,0.6c-0.6,0.6-1.2,0.6-1.8,0.1c-0.5-0.4-0.6-1.1-0.2-1.6l0,0c1.2-1.5,2.3-2.9,3.3-4.4c0.1-0.1,0.2-0.3,0.2-0.4
	c0.1-0.4-0.1-0.5-0.5-0.2c-0.1,0.1-0.2,0.2-0.3,0.3c-1.1,1.5-2.2,2.9-3.4,4.2c-0.1,0.2-0.3,0.2-0.6,0.2c-1.5-0.1-2-0.9-1.6-2.4
	c0-0.1,0-0.3-0.2-0.3c0,0,0,0-0.1,0c-3.3-0.1-3.8-1.4-1.6-3.8c0.3-0.3,0.2-0.7,0-1c-0.1-0.1-0.2-0.1-0.3-0.2
	c-1.3-0.3-2.7-0.4-4.3-0.3c-0.4,0-0.7-0.2-0.7-0.6c0-0.1,0-0.2,0-0.3c1.1-2.7,2.8-3.2,5.2-1.7c0.2,0.1,0.3,0.3,0.4,0.5
	c0.2,0.4,0.6,0.8,1,1c0.2,0.1,0.3,0,0.2-0.2c-0.8-2-2.2-2.9-4.1-2.7c-0.7,0.1-1.5,0.4-2.2,1c-0.9,0.6-1.4,1.3-1.6,1.9
	c-0.5,1.6,0,2.3,1.6,2.1c0.4,0,1.4,0,2.9,0c0.2,0,0.4,0.1,0.5,0.3c0.1,0.3-0.1,0.8-0.7,1.4c-0.4,0.4-0.5,0.9-0.3,1.4
	c0.4,1,1.2,1.7,2.6,2C238.11,160.65,238.21,160.75,238.31,160.95z M239.81,151.35c-0.5,0.2-0.6,0.6-0.2,0.9c0.4,0.5,0.8,0.9,1.3,1.3
	c0.3,0.2,0.5,0.2,0.6,0c0.1-0.1,0-0.4-0.1-0.6c-0.3-0.4-0.6-0.8-0.7-1.3c-0.1-0.3-0.4-0.5-0.7-0.4
	C239.91,151.35,239.81,151.35,239.81,151.35z M281.91,152.35c0.1-0.3-0.2-0.7-0.6-0.8s-0.8,0.1-0.9,0.4c-0.1,0.3,0.2,0.7,0.6,0.8
	C281.41,152.85,281.81,152.65,281.91,152.35z M284.41,160.25c-0.2,0.3-0.3,0.5-0.5,0.8c-0.1,0.2-0.2,0.4-0.2,0.6
	c0,0.6,0.3,0.7,0.8,0.2c1.3-1.1,1.7-2.3,1.4-3.8c0-0.1-0.4-0.9-1.2-2.3c-0.4-0.8-0.7-1.7-0.7-2.6c0-0.2-0.1-0.4-0.3-0.5
	c-0.3-0.1-0.5,0-0.8,0.3c-0.4,0.5-0.2,1.3,0.6,2.5c0.9,1.2,1.2,2.5,1.1,3.9C284.71,159.75,284.61,159.95,284.41,160.25z
	 M277.61,157.15c3.2,1.3,3.9,3.5,2.1,6.7c-0.3,0.6-0.2,0.7,0.4,0.4c1.2-0.7,1.8-1.6,1.8-2.8c0-0.9-0.3-1.8-1-2.8
	c-1.2-1.7-2.9-2.8-5-3.4c-0.6-0.2-0.8,0-0.5,0.6c0.7,1.3,1.7,2.4,3.1,3.2c0.4,0.3,0.6,0.2,0.4-0.2c0-0.1-0.1-0.2-0.2-0.2
	c-0.5-0.4-0.8-0.8-1.2-1.3C277.31,157.15,277.41,157.05,277.61,157.15z M252.91,162.55c0.1,0.6,0.1,1.6,0,2.7
	c-0.2,1.6-1.3,2.6-3.4,2.9c-1.2,0.2-1.3,0.5-0.1,1.1c1,0.5,2,0.2,2.8-0.7c0.6-0.6,1-1.4,1.3-2.3c0.6-1.9,0.5-3.9-0.2-6
	c-0.2-0.5-0.4-0.5-0.6-0.1c-1,1.6-1.2,3.3-0.9,5c0,0.2,0.1,0.2,0.2,0l0.8-2.6C252.81,162.35,252.91,162.35,252.91,162.55z
	 M276.61,160.75c-0.1,0.7-0.1,1.3,0,2c0.2,1,0.3,1.6,0.3,1.9c-0.1,1.4-0.8,2.5-1.8,3.4c-0.2,0.1-0.3,0.3-0.3,0.4
	c-0.2,0.4-0.1,0.6,0.4,0.5c0.2,0,0.4-0.1,0.6-0.2c2-1.2,2.5-3.1,1.8-5.7c-0.2-0.7-0.1-1.5,0.3-2.3c0.1-0.2,0.1-0.4,0.1-0.6
	c-0.2-0.5-0.5-0.5-0.8-0.2C276.81,160.25,276.71,160.45,276.61,160.75z M247.91,161.55c0.3,0.1,0.6-0.1,0.8-0.5
	c0.1-0.3,0-0.7-0.3-0.8c-0.3-0.1-0.6,0.1-0.8,0.5S247.61,161.45,247.91,161.55z M269.61,161.05c-1.2,0.2-1.4,0.5-0.6,1.1
	c0.2,0.1,0.4,0.2,0.6,0l0.5-0.4c0.2-0.2,0.4-0.2,0.5-0.2c0.4,0,0.6-0.2,0.6-0.6c0-0.2-0.2-0.4-0.4-0.5c-0.3-0.2-0.6-0.1-0.8,0.2
	C269.91,160.95,269.81,161.05,269.61,161.05z M263.61,163.55c0.3,0.3,0.5,0.7,0.7,1.2c0.7,2.7-0.2,4.5-2.6,5.4
	c-0.3,0.1-0.4,0.3-0.3,0.5c0.1,0.2,0.3,0.3,0.5,0.3c1.6,0.1,2.6-0.5,3-1.8c0.9-2.8,0.3-5.5-1.8-8.2c-0.1-0.2-0.2-0.2-0.3,0.1
	c-0.4,1.6-0.3,3.2,0.2,4.8c0.1,0.2,0.2,0.2,0.2,0c0.2-0.7,0.3-1.4,0.2-2.1C263.31,163.45,263.41,163.45,263.61,163.55z
	 M235.11,161.65c-0.5-0.1-0.7,0.1-0.4,0.5c0.1,0.1,0.2,0.3,0.5,0.4c0.3,0.2,0.5,0.4,0.6,0.7c0.1,0.2,0.2,0.4,0.2,0.4
	c0.2,0.2,0.4,0.2,0.6,0c0.1-0.1,0.2-0.4,0.1-0.6c-0.2-0.5-0.6-1-1-1.3C235.51,161.75,235.31,161.65,235.11,161.65z M260.11,161.65
	c-0.1-0.1-0.1-0.1-0.2,0c-0.6,1.5-0.7,2.9-0.1,4.3c0.1,0.2,0.1,0.2,0.1,0c0-0.6,0.1-1.1,0.3-1.5c0.1-0.2,0.2-0.2,0.3,0
	c0.6,1.3,0.7,2.6,0.2,3.9c-0.1,0.2-0.2,0.4-0.4,0.5c-1.6,0.8-2.4,0.2-2.6-1.9c-0.1-0.6-0.3-0.7-0.6-0.2c-0.2,0.3-0.4,0.7-0.6,1.3
	c-0.5,1.7-1.7,2.6-3.5,2.6c-0.6,0-0.6,0.2-0.1,0.4c1.6,0.9,2.9,0.4,3.9-1.5c0.1-0.2,0.3-0.3,0.5-0.2c0.1,0,0.1,0.1,0.1,0.1
	c0.8,1.2,1.7,1.4,2.7,0.7c0.6-0.4,1-1.1,1.2-2C262.01,166.05,261.51,163.75,260.11,161.65z M270.81,165.55c-0.1,1.6,0.5,2.3,1.8,2
	c0.2,0,0.4-0.2,0.5-0.3c1.2-1.8,0.7-3-1.6-3.6c-0.6-0.2-0.9-0.1-1,0.3c0,0.1,0,0.4,0.1,0.8
	C270.81,164.95,270.91,165.25,270.81,165.55z"/>
<path class="st1" d="M306.01,164.15c-0.1-0.1-0.2-0.2-0.2-0.3c-0.1-1,0.2-1.1,0.8-0.2C306.81,164.25,306.71,164.35,306.01,164.15z"
	/>
<path class="st1" d="M247.11,163.95c0.8,0.4,0.8,0.8-0.1,1c-0.5,0.1-1.1,0.1-1.7-0.1c-0.2,0-0.3-0.2-0.2-0.4l0,0
	C245.41,163.65,246.11,163.45,247.11,163.95z"/>
<ellipse transform="matrix(0.8281 -0.5606 0.5606 0.8281 -46.0717 181.09)" class="st1" cx="272.23" cy="165.66" rx="0.9" ry="1.1"/>
<g>
	<circle class="st0" cx="70.03" cy="289.45" r="5.5"/>
	<circle class="st2" cx="85.73" cy="289.45" r="5.5"/>
	<circle class="st0" cx="116.13" cy="290.05" r="5.5"/>
	<circle class="st2" cx="131.83" cy="290.05" r="5.5"/>
	<circle class="st0" cx="320.33" cy="290.55" r="5.5"/>
	<circle class="st2" cx="336.03" cy="290.55" r="5.5"/>
	<circle class="st2" cx="229.23" cy="292.85" r="5.5"/>
	<circle class="st2" cx="69.93" cy="379.15" r="5.5"/>
	<circle class="st0" cx="85.53" cy="379.15" r="5.5"/>
	<g>
		<path class="st0" d="M230.73,338.15c-0.2-0.2-0.6-0.3-0.8,0c-3.2,2.7-6.7,4-10.5,4c-39.9,0-79.7,0-119.6-0.1
			c-4.5,0-8.2-1.6-11.1-4.8c-0.2-0.2-0.5-0.2-0.7-0.1c-3.4,2.9-7.1,4.5-11.1,4.6c-3.9,0.2-7.5-0.9-10.8-3.2c-3.7-2.6-6-6.3-6.9-11.3
			c-0.6-3.1-0.6-6.3-0.2-9.7c0.4-3.6,1.5-6.6,3.1-9c2.2-3.2,5.1-5.4,8.8-6.5c2-0.6,5.8-0.9,11.5-0.9c3.8,0,7.7,0,11.6,0
			c0.4,0,0.6,0.3,0.6,0.6c0,8.4,0,16.8,0,25.4c0,2.2,0.7,3.8,2.1,4.8c0.9,0.6,2.4,0.9,4.5,0.9c2.8,0,5.7,0,8.6,0
			c0.5,0,0.6-0.2,0.3-0.6c-1.5-1.8-2.4-3.9-2.6-6.4c-0.1-1.7-0.2-3.3-0.1-5c0.1-2.2,0.2-3.9,0.3-5c0.6-4.8,2.8-8.5,6.7-11.3
			c2.5-1.7,5.3-2.8,8.4-3.1c2.9-0.3,5.8,0,8.7,0.9c6,1.9,9.7,6.1,11.1,12.5c0.3,1.2,0.4,2.7,0.4,4.6c0,1.6,0,3.1,0,4.7
			c0,2.9-0.9,5.6-2.7,8c-0.3,0.4-0.2,0.6,0.3,0.6h15.6c0.2,0,0.3-0.2,0.3-0.3v-45.4c0-0.3,0.3-0.6,0.6-0.6l0,0h8.2
			c0.3,0,0.6,0.3,0.6,0.6l0,0v26.7c0,0.6,0.2,0.7,0.6,0.2c2.9-3.3,6.2-6.1,9.7-8.3c3-1.9,6-3.1,9-3.6c3.4-0.6,6.7-0.5,9.9,0.4
			c6.4,1.8,10.5,5.7,12.2,11.7c1.3,4.7,1.8,10.2,1.5,16.3c0,0,0,0.3-0.1,0.8c-0.1,1.1,0.3,1.6,1.3,1.5c0.7-0.1,1-0.1,1.1-0.1
			c3,0,5.9,0,8.9-0.1c2.2,0,3.7-0.8,4.7-2.3c0.6-0.9,0.8-2.4,0.9-4.6c0.1-6.9,0.2-13.9,0.1-21.1c0-0.3,0.2-0.5,0.5-0.5l0,0h8.3
			c0.2,0,0.3,0.2,0.3,0.3c0,6.9,0,13.8,0,20.8c0,0.4,0.1,1.1,0.2,2.2c0.1,0.9,0.3,1.6,0.5,2.1c0.9,1.9,2.5,2.8,4.8,2.9
			c2,0.1,4,0.1,6,0c1.8-0.1,3.1-0.8,3.9-2c0.5-0.8,0.8-2.1,0.8-3.9c0-2.2,0-4.4,0-6.6c0-2.1,0.2-4.1,0.7-6c0.5-2,1.3-3.8,2.5-5.4
			c2.8-4,6.4-6.4,11-7.2c4.3-0.8,8.3-0.2,12.2,1.6c4.7,2.2,7.8,6.2,9.1,11.8c0.2,1,0.4,2.4,0.4,4c0,1.3,0.1,2.7,0.1,4
			c0.2,4.5-1.1,8.5-3.7,12c-3.5,4.6-8.1,6.8-13.9,6.7c-4.7-0.1-8.9-1.5-12.6-4.4c-0.1-0.1-0.3-0.1-0.4,0c-2.7,3.2-6.3,4.8-10.6,4.8
			c-1.9,0-3.8,0-5.7,0C236.33,342.15,233.23,340.75,230.73,338.15z M68.73,315.55c-0.5,1.1-0.7,2.6-0.7,4.6c0,1.2,0,2.5,0,3.7
			c0,1.5,0.2,2.7,0.5,3.6c1.5,3.9,4.6,5.6,9.4,5c2.5-0.3,4.6-1.3,6.3-2.9c0.7-0.6,1-1.4,1-2.3l-0.1-16.2c0-0.2-0.2-0.3-0.3-0.3l0,0
			c-4.5,0.1-7.1,0.1-8,0C72.93,310.45,70.23,312.05,68.73,315.55z M133.63,318.65c0-4.4-3.6-7.9-7.9-7.9l0,0h-1.2
			c-4.4,0-7.9,3.6-7.9,7.9l0,0v6.3c0,4.4,3.6,7.9,7.9,7.9l0,0h1.2c4.4,0,7.9-3.6,7.9-7.9l0,0V318.65z M262.43,313.05
			c-1.4,1.5-2.1,3.4-2.1,5.7c0,3.1,0,6.1,0,9.2c0,0.2,0.1,0.4,0.2,0.6c2.7,3.1,6,4.4,9.8,4c3.4-0.4,5.6-2.1,6.7-5.2
			c0.3-1,0.5-2.3,0.5-3.9c0-1.3,0-2.7,0-4c-0.1-5.4-2.5-8.3-7.3-8.7c-1.7-0.1-3-0.1-4.1,0.2
			C264.63,311.15,263.43,311.95,262.43,313.05z M196.03,314.35c-2.1-2.2-4.9-3.3-8.2-3.3c-3.4,0-6.7,0.8-9.7,2.4
			c-4.7,2.5-8.8,5.9-12.2,10c-0.1,0.2-0.2,0.4-0.2,0.6v8.4c0,0.2,0.2,0.3,0.3,0.3l0,0h33c0.3,0,0.6-0.2,0.6-0.5
			c0.1-3.5,0-6.9-0.2-10C199.23,319.15,198.03,316.45,196.03,314.35z"/>
		<path class="st0" d="M388.13,331.95c0.4,0.3,0.8,0.5,1.3,0.7c0.4,0.1,0.9,0.2,1.4,0.2c1.6,0,3.2,0,4.7,0c2.2,0,3.7-0.2,4.6-0.7
			c1.7-0.8,2.5-2.4,2.5-4.5c0-2.4,0-4.8,0-7.2c0-3,0.3-5.4,0.8-7.1c1.8-6,6-10,12.6-11.8c1.5-0.4,3.4-0.6,5.6-0.4
			c2,0.1,3.8,0.5,5.5,1.1c6,2.2,9.7,6.5,11,12.9c0.2,1.2,0.4,2.9,0.4,5c0,1.1,0,2.2,0,3.3c0,1.3-0.1,2.4-0.2,3.3
			c-0.7,4.3-2.5,7.8-5.5,10.5c-2.8,2.5-6.2,4-10.2,4.3c-5.1,0.5-9.8-1-14.1-4.4c-0.1-0.1-0.3-0.1-0.4,0c-2.1,2.5-4.8,4.1-8.1,4.6
			c-1.3,0.2-5.1,0.3-11.2,0.2c-4.8-0.1-8-2-9.6-5.7c-0.6-1.4-0.9-3.6-0.9-6.7c0-14.3,0-28.5,0-42.8c0-0.2,0.2-0.4,0.4-0.4l0,0h8.4
			c0.2,0,0.4,0.2,0.4,0.4l0,0v43.1C387.23,330.85,387.53,331.45,388.13,331.95z M413.43,313.85c-1.1,1.6-1.7,3.4-1.7,5.4
			c0,2.8,0,5.6,0,8.4c0,0.2,0.1,0.4,0.2,0.6c1.5,1.9,3.4,3.2,5.6,3.8c1.6,0.4,3,0.6,4.3,0.5c1.5-0.1,2.9-0.6,4.1-1.6
			c2.3-1.8,3.3-4.2,3.2-7.2c0-1.2-0.1-1.8-0.1-1.8c0-0.9,0-1.7,0-2.6c0-1.4-0.1-2.6-0.4-3.4c-1-3.1-3.2-4.9-6.4-5.3
			c-1.9-0.2-3.5-0.1-4.8,0.2C415.83,311.35,414.43,312.35,413.43,313.85z"/>
		<path class="st0" d="M448.53,286.55h8.5c0.2,0,0.4,0.2,0.4,0.4v54.8c0,0.2-0.2,0.4-0.4,0.4h-8.5c-0.2,0-0.4-0.2-0.4-0.4v-54.8
			C448.13,286.75,448.33,286.55,448.53,286.55z"/>
		<path class="st0" d="M312.73,307.65c3.2-3.8,7.1-5.9,11.7-6.4c4.4-0.4,8.5,0.5,12.1,2.8c4.2,2.6,6.7,6.7,7.6,12.3
			c0.2,1.2,0.3,4.2,0.2,8.8c0,4.3-1.4,8-4.2,11.2c-3.2,3.8-7.4,5.7-12.5,5.8c-9.4,0.2-15.6-4.2-18.4-13c-0.4-1.3-0.6-3.3-0.6-6.1
			c0-3.4,0.1-5.5,0.1-6.1C309.23,313.45,310.53,310.35,312.73,307.65z M335.03,318.05c0-4.2-3.4-7.5-7.6-7.4l0,0h-1.8
			c-4.2,0-7.5,3.4-7.4,7.6l0.1,7.2c0,4.2,3.4,7.5,7.6,7.4l0,0h1.8c4.2,0,7.5-3.4,7.4-7.6L335.03,318.05z"/>
		<path class="st5" d="M358.63,341.45c0-12.4,0-24.9,0-37.3c0-0.2,0.2-0.4,0.4-0.4l0,0h8.4c0.2,0,0.4,0.2,0.4,0.4l0,0
			c0,11.5,0,23,0,34.4c0,4.7-0.3,8.1-1,10.2c-1.8,5.7-5.8,9.5-12.1,11.1c-1.1,0.3-2.4,0.5-3.8,0.5c-1.3,0.1-2.6,0.1-3.8,0.1
			c-0.3,0-0.6-0.3-0.6-0.6v-8.1c0-0.3,0.3-0.6,0.6-0.6l0,0c1.9,0.1,3.5,0,5-0.3c2.5-0.5,4.3-1.7,5.4-3.6
			C358.23,346.05,358.63,344.15,358.63,341.45z"/>
		<path class="st2" d="M446.63,358.45c-1-1.6-1.5-3.2-1.4-4.6c0.3-4.4,2.3-6.9,5.9-7.5c2.4-0.4,4.6,0.1,6.4,1.3
			c2.1,1.4,3.2,3.6,3.3,6.5c0,0.2-0.1,0.4-0.3,0.4l0,0l-3.9,0.1c-0.3,0-0.5-0.2-0.6-0.5c-0.2-1.3-1-2.1-2.3-2.4
			c-1.7-0.4-2.9,0-3.4,1.2c-0.4,0.9-0.4,1.9,0,2.9c0.3,0.9,0.9,1.6,1.6,2.2c0.6,0.5,1.4,0.7,2.5,0.7c2.2,0,4.3,0,6.5,0.1
			c0.2,0,0.3,0.2,0.4,0.3l0.1,4.4c0,0.2-0.1,0.3-0.3,0.3l0,0h-16.4c-0.2,0-0.4-0.2-0.4-0.4v-4.1c0-0.3,0.3-0.6,0.6-0.6h1.6
			C446.73,358.75,446.73,358.65,446.63,358.45z"/>
		<path class="st0" d="M410.83,427.75c-1.7,1.6-3.6,2.7-5.7,3.4c-1.3,0.4-3.5,0.6-6.4,0.6c-2.4,0-4.8,0-7.2,0c-2.9,0-5-0.3-6.3-0.9
			c-1.9-0.9-3.2-2.3-4.2-4.2c-0.6-1.2-0.9-3-0.9-5.2c-0.2-14.6-0.2-29.4-0.1-44.4c0-0.4,0.3-0.6,0.7-0.7l8.1-0.1
			c0.2,0,0.3,0.1,0.3,0.3l0,0c0.2,14.3,0.2,28.5,0.2,42.7c0,2.3,1.2,3.4,3.7,3.4c2.6,0,5.2,0,7.8-0.1c2.4-0.1,4-1,4.9-2.7
			c0.4-0.9,0.7-2.5,0.7-4.9c0.1-6.6,0.1-13.3-0.1-20.3c0-0.3,0.2-0.6,0.6-0.6l0,0h8.3c0.3,0,0.5,0.2,0.5,0.5c0.1,7.6,0,15-0.2,22.1
			c-0.1,2.2,0.7,3.8,2.2,4.8c1,0.7,2.5,1.1,4.6,1.1c1.4,0,3.1,0.1,5.2,0.1c2.4,0,3.8-0.8,4.3-2.6c0.1-0.3,0.1-1.7,0.1-4.3
			c0-13,0-26.1,0-39.1c0-0.2,0.1-0.3,0.3-0.3h8.5c0.2,0,0.4,0.2,0.4,0.4l0,0c0,15.1,0,30,0,44.9c0,4.5-1.8,7.5-5.3,9.2
			c-1.3,0.6-3.2,0.9-5.7,0.9c-1.8,0-3.5,0-5.3,0c-3.4,0-5.2,0-5.3-0.1c-3.2-0.3-6-1.6-8.3-4
			C411.23,427.55,411.03,427.55,410.83,427.75z"/>
		<path class="st2" d="M448.33,376.25h8.9c0.1,0,0.2,0.1,0.2,0.2v55.1c0,0.1-0.1,0.2-0.2,0.2h-8.9c-0.1,0-0.2-0.1-0.2-0.2v-55.1
			C448.13,376.35,448.23,376.25,448.33,376.25z"/>
		<path class="st0" d="M361.83,422.25c-1.8-3.4-3.6-6.9-5.4-10.4s-4-6.5-6.8-8.8c-1.9-1.6-4.2-2.6-7-2.9c-3.4-0.4-6.7,0.1-9.9,1.4
			c-0.2,0.1-0.4,0-0.5-0.2v-0.1v-7.6c0-0.3,0.2-0.5,0.4-0.6c6.2-2.1,12.1-2,17.5,0.2c2.9,1.2,5.6,3,8.2,5.6c2.4,2.3,4.5,5,6.2,7.9
			c1.3,2.2,2.4,4.4,3.4,6.7c0.9,2.1,2.2,4.3,3.9,6.7c0.8,1.1,1.8,1.8,3,2.1c0.2,0,0.3,0.2,0.3,0.4v8.5c0,0.2-0.1,0.3-0.3,0.3l0,0
			c-91.4,0.1-182.7,0.1-274.1,0c-3,0-5.2-0.3-6.7-0.9c-2.2-0.8-4.1-2.2-5.7-4c-0.2-0.2-0.5-0.2-0.7,0l0,0c-2.2,2.3-5,3.8-8.3,4.4
			c-5.4,1-10.2-0.2-14.3-3.7c-4.5-3.8-6.6-8.8-6.3-15.1c0.1-1.3,0-2.5,0-3.8c-0.2-3.3,0.7-6.6,2.7-9.9c1.9-3.1,4.5-5.3,7.9-6.6
			c1.9-0.7,4.9-1.1,8.9-1.2c5.1-0.1,10.2-0.1,15.5-0.1c0.3,0,0.6,0.3,0.6,0.6c0,8.4,0,16.7,0,24.9c0,1.8,0.3,3.2,0.9,4
			c1,1.4,2.5,2.1,4.6,2.1c87.2,0,174.5,0,261.7,0C361.83,422.55,361.83,422.45,361.83,422.25
			C361.83,422.35,361.83,422.35,361.83,422.25z M68.73,404.85c-0.7,1.6-1,3.3-0.9,5.1c0,1.1,0.1,2.2,0.1,3.3c0,1.4,0.2,2.5,0.4,3.3
			c1.4,4.3,4.6,6.2,9.6,5.5c2.9-0.4,5.2-1.7,7-4.1c0.1-0.2,0.2-0.4,0.2-0.6v-16.6c0-0.3-0.2-0.6-0.6-0.6c-2.8-0.1-5.4-0.1-7.9,0
			c-2.1,0.1-3.6,0.4-4.6,0.9C70.53,401.95,69.43,403.15,68.73,404.85z"/>
		<circle class="st2" cx="410.93" cy="446.35" r="5.5"/>
	</g>
</g>
</svg>
