<?xml version="1.0" encoding="utf-8"?>
<!-- Generator: Adobe Illustrator 28.0.0, SVG Export Plug-In . SVG Version: 6.00 Build 0)  -->
<svg version="1.1" id="Layer_1" xmlns="http://www.w3.org/2000/svg" xmlns:xlink="http://www.w3.org/1999/xlink" x="0px" y="0px"
	 viewBox="0 0 500 500" style="enable-background:new 0 0 500 500;" xml:space="preserve">
<style type="text/css">
	.st0{fill:#65539B;}
	.st1{font-family:'Arial-BoldMT';}
	.st2{font-size:55.3652px;}
	.st3{letter-spacing:20;}
	.st4{fill:#FBBF0D;}
</style>
<g>
	<g>
		<text transform="matrix(1 0 0 1 26.2649 327.9783)" class="st0 st1 st2 st3">SIWAA</text>
		<text transform="matrix(1 0 0 1 296.7122 327.9783)" class="st0 st1 st2">R</text>
	</g>
	<path class="st0" d="M46.06,170.21c1.52-1.48,4.13-2.22,7.82-2.22c2.25,0,4.78,0.58,7.57,1.73c-2.14,5.22-3.2,11.83-3.2,19.83
		v39.98c-0.08,8.83-2.55,16.02-7.39,21.56c-5.3,6.08-12.4,9.11-21.31,9.11h-2.52c-5.22,0-8.5-1.52-9.86-4.56
		c-0.25-0.58-0.37-1.17-0.37-1.79c0-1.93,1.21-4.15,3.63-6.66c2.1,2.18,4.95,3.26,8.56,3.26h0.56c9.48,0,14.23-6.98,14.23-20.94
		v-50.68C43.77,174.61,44.53,171.74,46.06,170.21C46.06,170.21,46.06,170.21,46.06,170.21z M81.66,147.18
		c1.52-1.52,4.08-2.28,7.69-2.28c2.25,0,4.78,0.58,7.57,1.73c-2.14,5.22-3.2,11.83-3.2,19.83v52.23c0,4.19-0.76,7.05-2.28,8.56
		c-1.48,1.52-4.02,2.28-7.63,2.28c-2.3,0-4.82-0.6-7.57-1.79c2.02-5.22,3.01-11.8,3.01-19.77v-52.23
		C79.25,151.55,80.06,148.7,81.66,147.18C81.66,147.18,81.66,147.18,81.66,147.18z M180.02,219.8v9.73h-15.89
		c-0.08,8.83-2.61,16.02-7.57,21.56c-5.22,6.08-12.28,9.11-21.19,9.11h-9.24c-5.3,0-8.58-1.52-9.86-4.56
		c-0.25-0.53-0.37-1.11-0.37-1.73c0-1.98,1.23-4.21,3.69-6.72c2.02,2.18,4.85,3.26,8.5,3.26h7.15c9.48,0,14.27-6.98,14.35-20.94
		h-14.35c-8.91,0-15.98-3.01-21.19-9.05c-5.05-5.75-7.57-12.99-7.57-21.74c0-8.74,2.52-16.1,7.57-21.8
		c5.3-5.96,12.35-8.93,21.19-8.93s16.1,2.97,21.31,8.93c5.05,5.71,7.57,12.97,7.57,21.8v21.07L180.02,219.8L180.02,219.8z
		 M149.59,198.73c0-6.2-1.13-11.15-3.38-14.84c-2.55-4.15-6.2-6.22-10.97-6.22s-8.27,2.08-10.9,6.22
		c-2.26,3.78-3.38,8.72-3.38,14.84s1.13,11.21,3.38,14.91c2.46,4.1,6.1,6.16,10.9,6.16h14.35V198.73z M177.48,219.8h22.79v9.73
		h-22.79V219.8z M302.2,170.21c1.52-1.48,4.08-2.22,7.69-2.22c2.25,0,4.78,0.58,7.57,1.73c-2.1,5.22-3.14,11.83-3.14,19.83v9.3
		c0,8.83-2.49,16.08-7.45,21.74c-5.3,5.96-12.4,8.93-21.31,8.93h-0.12c-8.99,0-16.14-3.12-21.44-9.36
		c-5.22,6.24-12.4,9.36-21.56,9.36h-0.19c-8.99,0-16.14-3.12-21.44-9.36c-5.22,6.16-12.35,9.28-21.44,9.36h-0.62v-9.73h0.49
		c9.61,0,14.41-7.03,14.41-21.07v-10.84c0-4.19,0.74-7.04,2.22-8.56c1.52-1.52,4.08-2.28,7.69-2.28c2.29,0,4.82,0.56,7.57,1.67
		c-2.02,5.3-3.01,11.93-3.01,19.9v0.12c0,6.24,1.09,11.21,3.26,14.91c2.54,4.1,6.22,6.16,11.03,6.16c9.48,0,14.27-7.03,14.35-21.07
		v-10.84c0-4.19,0.76-7.04,2.28-8.56s4.08-2.28,7.69-2.28c2.25,0,4.78,0.56,7.57,1.67c-2.14,5.3-3.2,11.93-3.2,19.9v0.12
		c0,6.24,1.15,11.21,3.45,14.91c2.5,4.1,6.16,6.16,10.97,6.16c9.48,0,14.23-7.03,14.23-21.07v-19.9c0-4.23,0.8-7.1,2.41-8.62l0,0
		L302.2,170.21z"/>
	<path class="st4" d="M417.31,191.07l-6.59,109.93c2.3,0.8,3.93,2.97,3.79,5.52c-0.19,3.08-2.83,5.43-5.92,5.25
		c-3.08-0.19-5.43-2.83-5.25-5.9c0.15-2.55,2.03-4.51,4.41-5.03l6.59-109.93c-2.3-0.8-3.93-2.97-3.78-5.52
		c0.19-3.08,2.83-5.42,5.92-5.25c3.08,0.19,5.43,2.83,5.25,5.92c-0.15,2.55-2.03,4.52-4.41,5.03"/>
	<path class="st0" d="M373.1,233.33l28.45,23.16l3.11-36.45l-12.48-10.15c-4.86-3.94-7.88-9.55-8.51-15.78
		c-0.64-6.21,1.18-12.32,5.13-17.17l27.56-33.85l18.18,14.79c9.04,7.36,14.68,17.8,15.86,29.39c1.19,11.59-2.21,22.96-9.57,32
		l-8.28,10.16L456,248.51l8.28-10.16c12.46-15.3,18.21-34.54,16.19-54.16c-2.01-19.62-11.54-37.29-26.85-49.76L412,100.57
		l-46.62,57.28c-9.05,11.12-13.23,25.09-11.77,39.34C355.07,211.43,361.99,224.27,373.1,233.33"/>
	<path class="st0" d="M451.97,258.56l-29.28-23.84l-3.1,36.45l13.29,10.82c4.85,3.94,7.86,9.55,8.5,15.78
		c0.64,6.24-1.18,12.34-5.12,17.18l-27.55,33.85l-18.17-14.79c-9.04-7.36-14.68-17.8-15.86-29.4c-1.19-11.59,2.21-22.96,9.57-32
		l8.25-10.13l-23.43-19.08l-8.25,10.13c-12.46,15.3-18.21,34.53-16.2,54.16c2.02,19.64,11.55,37.3,26.85,49.75l41.62,33.88
		l46.62-57.28c9.03-11.1,13.21-25.07,11.75-39.34c-1.47-14.27-8.38-27.11-19.47-36.14"/>
</g>
</svg>
