<?xml version="1.0" encoding="utf-8"?>
<!-- Generator: Adobe Illustrator 28.0.0, SVG Export Plug-In . SVG Version: 6.00 Build 0)  -->
<svg version="1.1" id="Layer_1" xmlns="http://www.w3.org/2000/svg" xmlns:xlink="http://www.w3.org/1999/xlink" x="0px" y="0px"
	 viewBox="0 0 500 500" style="enable-background:new 0 0 500 500;" xml:space="preserve">
<style type="text/css">
	.st0{clip-path:url(#SVGID_00000000937075508855852400000007516428653526177214_);fill:#71B051;}
	.st1{clip-path:url(#SVGID_00000000937075508855852400000007516428653526177214_);fill:#486FB0;}
	
		.st2{clip-path:url(#SVGID_00000109017240981428678880000011238745431364989085_);fill:url(#SVGID_00000142895727198886236390000000523509435336198282_);}
	.st3{clip-path:url(#SVGID_00000071534147875960719870000010225261871069680290_);fill:#486FB0;}
	
		.st4{clip-path:url(#SVGID_00000085219925045228903780000009925108133881382535_);fill:url(#SVGID_00000178175019619290765790000001035739305389860524_);}
	.st5{clip-path:url(#SVGID_00000096778869631351579910000011824640107882276507_);fill:#71B051;}
</style>
<g>
	<g>
		<defs>
			<rect id="SVGID_1_" y="186.68" width="515.12" height="175.25"/>
		</defs>
		<clipPath id="SVGID_00000048484925458426842330000006963077268959990438_">
			<use xlink:href="#SVGID_1_"  style="overflow:visible;"/>
		</clipPath>
		<path style="clip-path:url(#SVGID_00000048484925458426842330000006963077268959990438_);fill:#71B051;" d="M381.32,286.83
			l8.3-22.68l-36.83,8.09c-10.74,2.36-19.98,15.23-22.09,29.78l15.96,5.96C359.68,312.82,375.27,303.32,381.32,286.83"/>
		<path style="clip-path:url(#SVGID_00000048484925458426842330000006963077268959990438_);fill:#71B051;" d="M437.15,263.19
			l7.07-19.34l-31.37,6.9c-9.12,2.01-16.99,12.99-18.8,25.39l13.59,5.06C418.73,285.33,432,277.23,437.15,263.19"/>
		<path style="clip-path:url(#SVGID_00000048484925458426842330000006963077268959990438_);fill:#486FB0;" d="M377.9,230.39
			l12.78,24.26h-43.94c-12.78,0-25.3-12.58-29.76-28.95l17.74-11C349.17,205.72,368.62,212.79,377.9,230.39"/>
		<path style="clip-path:url(#SVGID_00000048484925458426842330000006963077268959990438_);fill:#486FB0;" d="M318.92,301.6
			c-1.18-2.56-4.74-14.13-4.74-14.13h-3.02c-0.04-3.03-0.13-6.11-0.2-9.19l-11.06-5.89l0.19,6.95v2.35v5.78h-20.38
			c0.28-1.13,0.53-2.25,0.81-3.53c2.6-9.41,6.45-15.3,12.06-17.05c0.34-0.15,0.76-0.26,1.21-0.36l-10.53-13.07
			c-1.3,0.59-2.5,1.34-3.6,2.26c-5.17,4.72-9.48,11.76-12.49,22.34l-6.47,23.55h37.28c-1.98,4.5-5.43,7.84-10.81,10.69
			c-7.46,3.94-9.92,5.01-9.92,5.01v20.52c0,0,7.55-5.62,14.23-9.95c7.87-5.11,12.92-10.04,16.37-17.06c1.27-2.85,2.08-5.94,2.58-9.2
			H318.92z"/>
		<path style="clip-path:url(#SVGID_00000048484925458426842330000006963077268959990438_);fill:#486FB0;" d="M243.59,257.39h-8.3
			c0.15-0.65,0.29-1.27,0.46-2c1.46-5.37,3.67-8.72,6.86-9.71c0.19-0.1,0.42-0.17,0.69-0.21l-5.99-7.44
			c-0.74,0.33-1.44,0.75-2.07,1.27c-2.93,2.69-5.39,6.7-7.11,12.72l-3.68,13.39h21.82C245.61,263.97,243.59,257.39,243.59,257.39"/>
		<path style="clip-path:url(#SVGID_00000048484925458426842330000006963077268959990438_);fill:#486FB0;" d="M242.55,278.65
			l-2.59,9.42h-17.99V230.9l-14.64,3.24v61v7.03h4.72h9.92h14.11v0h15.55l3.48-14.11c0.26-1.13,0.52-2.28,0.82-3.56
			c0.43-1.6,0.92-3.12,1.43-4.53L247,267.13C245.31,270.41,243.81,274.19,242.55,278.65"/>
		<path style="clip-path:url(#SVGID_00000048484925458426842330000006963077268959990438_);fill:#486FB0;" d="M183.4,254.68
			c-1.1-0.91-2.32-1.67-3.61-2.25l-10.54,13.07c0.47,0.08,0.88,0.2,1.22,0.37c5.58,1.75,9.48,7.64,12.05,17.05
			c0.29,1.27,0.54,2.39,0.8,3.54h-14.18l-4.18-14.62c-8.57-0.36-17.13-1.35-23.81,4.25c-5.16,4.7-8.75,11.61-12.5,22.33
			c-3.19,9.13-7.29,19.45-7.29,19.45h15.02c0,0,0.77-3.36,3.67-13.55c2.89-10.18,6.45-15.29,12.06-17.04c1.3-0.6,3.46-0.6,6.04-0.6
			h0.33c-0.49,1.59-3.58,11.51-4.68,13.87h48.54l-6.46-23.53C192.88,266.46,188.57,259.38,183.4,254.68"/>
		<path style="clip-path:url(#SVGID_00000048484925458426842330000006963077268959990438_);fill:#486FB0;" d="M163.86,324.05h-1.28
			c-0.07,0-0.13,0.02-0.16,0.09c-0.04,0.06-0.07,0.14-0.08,0.24l-0.83,7.65c-0.01,0.17-0.04,0.26-0.07,0.26
			c-0.03,0-0.07-0.09-0.09-0.26l-1.1-6.08c-0.06-0.33-0.14-0.54-0.24-0.64c-0.1-0.09-0.27-0.14-0.51-0.14h-0.93
			c-0.24,0-0.41,0.04-0.5,0.13c-0.1,0.09-0.18,0.3-0.25,0.65l-1.1,6.08c-0.03,0.17-0.06,0.26-0.09,0.26c-0.03,0-0.05-0.09-0.07-0.26
			l-0.83-7.65c0-0.08-0.03-0.16-0.07-0.23c-0.04-0.07-0.1-0.1-0.17-0.1h-1.29c-0.07,0-0.14,0.03-0.19,0.1
			c-0.05,0.07-0.08,0.16-0.08,0.26v0.05l1.21,8.33c0.05,0.4,0.13,0.7,0.2,0.9c0.09,0.22,0.2,0.37,0.35,0.47
			c0.15,0.1,0.36,0.15,0.63,0.15h0.35c0.36,0,0.64-0.12,0.83-0.35c0.2-0.23,0.34-0.59,0.43-1.06l1.04-5.54
			c0.01-0.06,0.03-0.1,0.04-0.1c0.02,0,0.03,0.04,0.05,0.1l1.04,5.54c0.09,0.47,0.24,0.83,0.44,1.06c0.2,0.23,0.47,0.35,0.83,0.35
			h0.36c0.27,0,0.48-0.05,0.63-0.15c0.15-0.1,0.26-0.25,0.34-0.47c0.08-0.2,0.15-0.51,0.21-0.9l1.2-8.33v-0.05
			c0-0.1-0.03-0.19-0.08-0.26C164,324.08,163.93,324.05,163.86,324.05"/>
		<path style="clip-path:url(#SVGID_00000048484925458426842330000006963077268959990438_);fill:#486FB0;" d="M174.15,324.51
			c-0.48-0.39-1.05-0.59-1.72-0.59c-0.67,0-1.24,0.18-1.71,0.55c-0.48,0.37-0.84,0.91-1.09,1.6c-0.25,0.7-0.37,1.52-0.37,2.45v1.34
			c0,1.11,0.17,2.01,0.51,2.68c0.34,0.68,0.76,1.16,1.27,1.44c0.52,0.28,1.05,0.42,1.6,0.42c0.46,0,0.9-0.07,1.34-0.22
			c0.44-0.14,0.79-0.31,1.06-0.51c0.1-0.06,0.16-0.13,0.21-0.2c0.05-0.07,0.07-0.16,0.07-0.28v-1.07c0-0.27-0.09-0.36-0.28-0.28
			c-0.28,0.12-0.63,0.23-1.06,0.34c-0.43,0.1-0.83,0.15-1.2,0.15c-0.68,0-1.14-0.22-1.39-0.64c-0.25-0.42-0.38-0.98-0.38-1.66v-0.06
			h4.33c0.17,0,0.26-0.15,0.26-0.46v-1.01c0-0.91-0.12-1.71-0.36-2.4C174.99,325.44,174.63,324.9,174.15,324.51 M173.84,328.28
			h-2.82v-0.07c0-0.5,0.06-0.92,0.18-1.24c0.12-0.33,0.29-0.57,0.5-0.74c0.22-0.16,0.46-0.25,0.74-0.25c0.43,0,0.78,0.19,1.02,0.57
			c0.25,0.38,0.38,0.93,0.38,1.66V328.28z"/>
		<path style="clip-path:url(#SVGID_00000048484925458426842330000006963077268959990438_);fill:#486FB0;" d="M185.72,324.31
			c-0.4-0.25-0.89-0.38-1.46-0.38c-0.47,0-0.91,0.06-1.32,0.18c-0.39,0.12-0.73,0.26-1,0.42c-0.11,0.06-0.18,0.12-0.22,0.2
			c-0.04,0.07-0.06,0.16-0.06,0.27v1.11c0,0.26,0.09,0.36,0.28,0.29c0.72-0.31,1.42-0.47,2.11-0.47c0.42,0,0.72,0.1,0.9,0.31
			c0.18,0.21,0.28,0.6,0.28,1.16v0.79h-0.93c-0.58,0-1.07,0.07-1.47,0.19c-0.39,0.13-0.71,0.32-0.96,0.58
			c-0.24,0.26-0.42,0.58-0.53,0.95c-0.11,0.38-0.17,0.84-0.17,1.37v0.09c0,0.73,0.11,1.31,0.33,1.75c0.22,0.44,0.56,0.77,1.02,0.98
			c0.46,0.21,1.05,0.31,1.78,0.31c0.54,0,0.99-0.05,1.35-0.12c0.37-0.08,0.75-0.19,1.14-0.34c0.08-0.03,0.13-0.07,0.15-0.13
			c0.02-0.05,0.03-0.14,0.03-0.27v-6.17c0-0.74-0.11-1.38-0.33-1.9C186.44,324.95,186.12,324.56,185.72,324.31 M185.23,332.45
			c-0.24,0.1-0.56,0.15-0.93,0.15c-0.37,0-0.65-0.04-0.84-0.11c-0.19-0.07-0.33-0.2-0.41-0.38c-0.08-0.18-0.12-0.44-0.12-0.78v-0.11
			c0-0.37,0.03-0.65,0.09-0.85c0.06-0.21,0.19-0.36,0.38-0.45c0.19-0.1,0.49-0.15,0.89-0.15h0.93V332.45z"/>
		<path style="clip-path:url(#SVGID_00000048484925458426842330000006963077268959990438_);fill:#486FB0;" d="M197.3,324.31
			c-0.4-0.25-0.89-0.38-1.46-0.38c-0.47,0-0.91,0.06-1.31,0.18c-0.4,0.12-0.74,0.26-1.01,0.42c-0.1,0.06-0.18,0.12-0.22,0.2
			c-0.04,0.07-0.06,0.16-0.06,0.27v1.11c0,0.26,0.09,0.36,0.28,0.29c0.72-0.31,1.42-0.47,2.12-0.47c0.42,0,0.71,0.1,0.9,0.31
			c0.19,0.21,0.28,0.6,0.28,1.16v0.79h-0.93c-0.58,0-1.07,0.07-1.47,0.19c-0.39,0.13-0.71,0.32-0.96,0.58
			c-0.24,0.26-0.42,0.58-0.53,0.95c-0.11,0.38-0.16,0.84-0.16,1.37v0.09c0,0.73,0.11,1.31,0.33,1.75c0.22,0.44,0.56,0.77,1.02,0.98
			c0.46,0.21,1.05,0.31,1.78,0.31c0.54,0,0.99-0.05,1.35-0.12c0.37-0.08,0.75-0.19,1.14-0.34c0.08-0.03,0.13-0.07,0.15-0.13
			c0.02-0.05,0.03-0.14,0.03-0.27v-6.17c0-0.74-0.11-1.38-0.33-1.9C198.02,324.95,197.7,324.56,197.3,324.31 M196.81,332.45
			c-0.24,0.1-0.56,0.15-0.93,0.15c-0.37,0-0.65-0.04-0.84-0.11c-0.19-0.07-0.33-0.2-0.41-0.38c-0.08-0.18-0.12-0.44-0.12-0.78v-0.11
			c0-0.37,0.03-0.65,0.1-0.85c0.06-0.21,0.19-0.36,0.38-0.45c0.19-0.1,0.49-0.15,0.89-0.15h0.93V332.45z"/>
		<path style="clip-path:url(#SVGID_00000048484925458426842330000006963077268959990438_);fill:#486FB0;" d="M211.54,323.92
			c-0.38,0-0.76,0.07-1.15,0.2c-0.4,0.13-0.76,0.3-1.09,0.5c-0.45-0.47-1.14-0.7-2.05-0.7c-0.34,0-0.75,0.05-1.22,0.15
			c-0.47,0.1-0.87,0.23-1.21,0.39c-0.18,0.08-0.27,0.2-0.27,0.36v9.05c0,0.09,0.03,0.18,0.08,0.26c0.05,0.08,0.11,0.12,0.19,0.12
			h1.22c0.08,0,0.14-0.04,0.19-0.11c0.05-0.07,0.07-0.16,0.07-0.27v-7.75c0.32-0.12,0.6-0.18,0.86-0.18c0.34,0,0.6,0.07,0.78,0.2
			c0.18,0.13,0.31,0.33,0.38,0.61c0.07,0.28,0.11,0.66,0.11,1.15v5.98c0,0.09,0.02,0.18,0.08,0.26c0.05,0.08,0.11,0.12,0.19,0.12
			h1.22c0.08,0,0.14-0.04,0.19-0.11c0.05-0.07,0.07-0.16,0.07-0.27v-5.99c0-0.56-0.04-1.09-0.13-1.59c0.41-0.23,0.8-0.35,1.16-0.35
			c0.28,0,0.51,0.07,0.67,0.2c0.16,0.13,0.28,0.33,0.34,0.61c0.07,0.28,0.1,0.66,0.1,1.15v5.98c0,0.09,0.02,0.18,0.08,0.26
			c0.05,0.08,0.11,0.12,0.19,0.12h1.22c0.08,0,0.14-0.04,0.19-0.11c0.05-0.07,0.07-0.16,0.07-0.27v-5.99c0-1.37-0.21-2.37-0.64-3.01
			C213.01,324.24,212.38,323.92,211.54,323.92"/>
		<path style="clip-path:url(#SVGID_00000048484925458426842330000006963077268959990438_);fill:#486FB0;" d="M221.58,331.51h-1.29
			c-0.07,0-0.13,0.03-0.19,0.1c-0.05,0.07-0.08,0.15-0.08,0.24v2.05c0,0.1,0.03,0.18,0.08,0.26c0.06,0.07,0.11,0.1,0.18,0.1h1.29
			c0.07,0,0.13-0.03,0.19-0.1c0.05-0.07,0.08-0.16,0.08-0.26v-2.05c0-0.1-0.02-0.18-0.07-0.25
			C221.72,331.54,221.65,331.51,221.58,331.51"/>
		<path style="clip-path:url(#SVGID_00000048484925458426842330000006963077268959990438_);fill:#486FB0;" d="M231.29,326.63
			c-0.37-0.3-0.82-0.45-1.35-0.45c-0.52,0-0.97,0.15-1.35,0.45c-0.38,0.29-0.66,0.72-0.85,1.26c-0.19,0.53-0.29,1.14-0.29,1.81v1.14
			c0,0.67,0.1,1.28,0.29,1.81c0.19,0.54,0.47,0.96,0.85,1.26c0.37,0.3,0.82,0.45,1.35,0.45c0.53,0,0.98-0.15,1.35-0.45
			c0.37-0.3,0.65-0.72,0.85-1.26c0.19-0.53,0.28-1.14,0.28-1.81v-1.14c0-0.67-0.1-1.28-0.28-1.81
			C231.95,327.35,231.67,326.93,231.29,326.63 M231.06,330.85c0,0.59-0.1,1.06-0.29,1.4c-0.19,0.34-0.47,0.52-0.83,0.52
			c-0.35,0-0.63-0.17-0.82-0.52c-0.19-0.34-0.29-0.81-0.29-1.4v-1.14c0-0.59,0.09-1.06,0.29-1.4c0.19-0.34,0.46-0.51,0.82-0.51
			c0.36,0,0.64,0.17,0.83,0.51c0.19,0.34,0.29,0.81,0.29,1.4V330.85z"/>
		<path style="clip-path:url(#SVGID_00000048484925458426842330000006963077268959990438_);fill:#486FB0;" d="M238.26,326.21
			c-0.11-0.02-0.25-0.03-0.43-0.03c-0.34,0-0.71,0.04-1.11,0.11c-0.4,0.07-0.77,0.17-1.11,0.31c-0.14,0.04-0.21,0.14-0.21,0.28v7.07
			c0,0.08,0.02,0.15,0.06,0.2c0.04,0.06,0.09,0.1,0.15,0.1h0.95c0.06,0,0.11-0.03,0.15-0.09c0.04-0.06,0.06-0.13,0.06-0.21v-6.04
			c0.36-0.1,0.7-0.15,1.02-0.15c0.11,0,0.2,0,0.27,0c0.07,0,0.13,0.01,0.2,0.01c0.14,0,0.2-0.09,0.2-0.28v-1.02
			C238.46,326.32,238.4,326.23,238.26,326.21"/>
		<path style="clip-path:url(#SVGID_00000048484925458426842330000006963077268959990438_);fill:#486FB0;" d="M245.36,326.55
			c-0.11-0.04-0.27-0.09-0.51-0.15c-0.23-0.06-0.42-0.1-0.56-0.13c-0.14-0.02-0.3-0.05-0.48-0.06c-0.17-0.02-0.36-0.03-0.54-0.03
			c-0.55,0-1.01,0.14-1.38,0.42c-0.37,0.28-0.64,0.69-0.83,1.22c-0.18,0.54-0.27,1.17-0.27,1.91v1.09c0,0.74,0.09,1.37,0.27,1.9
			c0.18,0.53,0.46,0.94,0.83,1.22c0.37,0.28,0.83,0.42,1.38,0.42c0.08,0,0.25-0.02,0.5-0.06c0.25-0.04,0.42-0.07,0.49-0.09v0.11
			c0,0.35-0.02,0.61-0.07,0.78c-0.05,0.17-0.14,0.3-0.29,0.37c-0.14,0.07-0.35,0.11-0.63,0.11c-0.29,0-0.61-0.04-0.96-0.12
			c-0.35-0.08-0.67-0.17-0.94-0.26c-0.15-0.06-0.22,0.02-0.22,0.23v0.72c0,0.06,0.01,0.11,0.02,0.16c0.01,0.04,0.04,0.08,0.07,0.11
			c0.04,0.04,0.08,0.07,0.12,0.1c0.23,0.14,0.51,0.27,0.86,0.39c0.35,0.11,0.69,0.17,1.04,0.17c0.53,0,0.97-0.1,1.32-0.3
			c0.35-0.2,0.61-0.51,0.78-0.93c0.17-0.42,0.26-0.97,0.26-1.63v-7.3c0-0.11-0.02-0.19-0.06-0.25
			C245.55,326.63,245.48,326.59,245.36,326.55 M244.28,332.73c-0.14,0.02-0.32,0.05-0.51,0.08c-0.2,0.02-0.36,0.03-0.48,0.03
			c-0.21,0-0.39-0.05-0.54-0.14c-0.14-0.1-0.26-0.24-0.34-0.42c-0.09-0.18-0.15-0.4-0.18-0.65c-0.03-0.25-0.05-0.51-0.05-0.81v-1.09
			c0-0.64,0.08-1.13,0.24-1.49c0.16-0.35,0.45-0.53,0.87-0.53c0.2,0,0.38,0.01,0.55,0.03c0.16,0.02,0.31,0.06,0.44,0.09V332.73z"/>
		<path style="clip-path:url(#SVGID_00000048484925458426842330000006963077268959990438_);fill:#486FB0;" d="M249.96,332.11h-1.01
			c-0.05,0-0.1,0.03-0.14,0.08c-0.04,0.05-0.07,0.11-0.07,0.19v1.6c0,0.08,0.02,0.15,0.07,0.2c0.04,0.06,0.09,0.08,0.14,0.08h1.01
			c0.06,0,0.11-0.03,0.15-0.08c0.04-0.05,0.06-0.12,0.06-0.21v-1.6c0-0.08-0.02-0.14-0.06-0.19
			C250.07,332.14,250.02,332.11,249.96,332.11"/>
		<path style="clip-path:url(#SVGID_00000048484925458426842330000006963077268959990438_);fill:#486FB0;" d="M256.23,330.01
			l-1.36-1.13c-0.1-0.09-0.19-0.16-0.24-0.21c-0.05-0.05-0.1-0.12-0.13-0.18c-0.03-0.06-0.05-0.15-0.05-0.26
			c0-0.2,0.06-0.33,0.18-0.41c0.12-0.08,0.31-0.12,0.57-0.12c0.5,0,1.06,0.13,1.66,0.39c0.15,0.06,0.22-0.02,0.22-0.23v-0.86
			c0-0.09-0.02-0.17-0.05-0.23c-0.03-0.05-0.09-0.09-0.17-0.13c-0.52-0.31-1.13-0.47-1.81-0.47c-1.31,0-1.97,0.7-1.97,2.12
			c0,0.4,0.08,0.77,0.24,1.1c0.16,0.34,0.37,0.62,0.64,0.85l1.41,1.18c0.17,0.15,0.29,0.27,0.36,0.38c0.07,0.11,0.1,0.24,0.1,0.4
			c0,0.19-0.05,0.35-0.15,0.45c-0.11,0.11-0.32,0.17-0.63,0.17c-0.51,0-1.07-0.12-1.68-0.39c-0.15-0.05-0.22,0.02-0.22,0.22v0.87
			c0,0.08,0.01,0.14,0.04,0.2c0.03,0.06,0.08,0.11,0.17,0.17c0.53,0.31,1.14,0.46,1.82,0.46c0.43,0,0.8-0.1,1.11-0.29
			c0.31-0.19,0.54-0.46,0.69-0.81c0.15-0.35,0.23-0.75,0.23-1.2c0-0.38-0.07-0.73-0.2-1.07
			C256.89,330.67,256.62,330.35,256.23,330.01"/>
		<path style="clip-path:url(#SVGID_00000048484925458426842330000006963077268959990438_);fill:#486FB0;" d="M263.57,326.48
			c-0.32-0.2-0.69-0.3-1.14-0.3c-0.37,0-0.71,0.05-1.02,0.14c-0.31,0.09-0.57,0.2-0.79,0.33c-0.08,0.04-0.14,0.09-0.17,0.15
			c-0.03,0.06-0.05,0.13-0.05,0.21v0.86c0,0.21,0.07,0.28,0.22,0.23c0.56-0.24,1.11-0.36,1.65-0.36c0.32,0,0.56,0.08,0.7,0.24
			c0.14,0.16,0.21,0.46,0.21,0.91v0.62h-0.73c-0.46,0-0.83,0.05-1.15,0.14c-0.31,0.1-0.56,0.25-0.75,0.45
			c-0.19,0.21-0.33,0.45-0.42,0.75c-0.09,0.29-0.13,0.65-0.13,1.07V332c0,0.56,0.09,1.02,0.26,1.37c0.17,0.35,0.44,0.61,0.8,0.76
			c0.36,0.16,0.82,0.24,1.39,0.24c0.42,0,0.77-0.03,1.06-0.09c0.29-0.06,0.59-0.15,0.89-0.27c0.06-0.02,0.11-0.05,0.12-0.09
			c0.02-0.04,0.02-0.11,0.02-0.21v-4.82c0-0.59-0.08-1.08-0.26-1.5C264.12,326.98,263.88,326.68,263.57,326.48 M263.19,332.84
			c-0.19,0.08-0.43,0.12-0.73,0.12c-0.29,0-0.51-0.03-0.66-0.09c-0.15-0.06-0.25-0.15-0.32-0.29c-0.06-0.14-0.1-0.35-0.1-0.62v-0.08
			c0-0.29,0.02-0.51,0.07-0.66c0.05-0.16,0.15-0.28,0.3-0.35c0.15-0.08,0.38-0.12,0.69-0.12h0.73V332.84z"/>
		<path style="clip-path:url(#SVGID_00000048484925458426842330000006963077268959990438_);fill:#71B051;" d="M83.23,286.61
			c0.08,0.72,0.14,1.45,0.19,2.19c0.04,0.75,0.07,1.48,0.07,2.2c0,0.4-0.01,0.83-0.04,1.27h1.13c0.16,0,0.27,0.04,0.32,0.12
			c0.06,0.08,0.08,0.2,0.08,0.38v0.76c0,0.19-0.03,0.32-0.08,0.4c-0.05,0.08-0.16,0.12-0.32,0.12h-6.23c-0.17-0.5-0.3-1.02-0.4-1.56
			c-0.1-0.54-0.14-1.05-0.14-1.53c0-0.67,0.09-1.27,0.26-1.8c0.17-0.53,0.4-0.99,0.7-1.37c0.29-0.39,0.63-0.68,1.02-0.89
			c0.39-0.2,0.79-0.3,1.22-0.3H83.23z M78.86,282.99c0-0.34,0.09-0.62,0.26-0.86c0.17-0.24,0.38-0.35,0.63-0.35
			c0.26,0,0.47,0.11,0.64,0.35c0.17,0.24,0.26,0.52,0.26,0.86c0,0.34-0.09,0.63-0.26,0.87c-0.17,0.24-0.39,0.36-0.64,0.36
			c-0.25,0-0.45-0.12-0.63-0.36C78.94,283.62,78.86,283.33,78.86,282.99 M81.51,292.28c0.03-0.28,0.06-0.56,0.07-0.82
			c0.01-0.27,0.02-0.54,0.02-0.83c0-0.4-0.01-0.77-0.03-1.14c-0.03-0.37-0.05-0.73-0.09-1.08H80.9c-0.11,0-0.24,0.03-0.38,0.12
			c-0.14,0.08-0.27,0.2-0.4,0.37c-0.12,0.17-0.23,0.41-0.31,0.7c-0.08,0.29-0.12,0.64-0.12,1.07c0,0.28,0.01,0.56,0.04,0.82
			c0.03,0.27,0.09,0.53,0.17,0.79H81.51z M81.05,282.99c0-0.34,0.08-0.62,0.25-0.86c0.16-0.24,0.38-0.35,0.64-0.35
			c0.25,0,0.47,0.11,0.64,0.35c0.17,0.24,0.26,0.52,0.26,0.86c0,0.34-0.09,0.63-0.26,0.87c-0.17,0.24-0.38,0.36-0.64,0.36
			c-0.25,0-0.47-0.12-0.64-0.36C81.13,283.62,81.05,283.33,81.05,282.99"/>
		<path style="clip-path:url(#SVGID_00000048484925458426842330000006963077268959990438_);fill:#71B051;" d="M86.68,294.06h-2.47
			c-0.15,0-0.24-0.05-0.28-0.16c-0.03-0.1-0.04-0.28-0.04-0.53v-0.7c0-0.16,0.02-0.27,0.04-0.31c0.04-0.05,0.13-0.08,0.28-0.08h2.47
			V294.06z"/>
		<path style="clip-path:url(#SVGID_00000048484925458426842330000006963077268959990438_);fill:#71B051;" d="M88.35,294.06h-2.46
			c-0.15,0-0.24-0.05-0.28-0.16c-0.03-0.1-0.05-0.28-0.05-0.53v-0.7c0-0.16,0.01-0.27,0.05-0.31c0.03-0.05,0.13-0.08,0.28-0.08h2.46
			V294.06z"/>
		<path style="clip-path:url(#SVGID_00000048484925458426842330000006963077268959990438_);fill:#71B051;" d="M90.03,294.06h-2.47
			c-0.15,0-0.24-0.05-0.28-0.16c-0.03-0.1-0.04-0.28-0.04-0.53v-0.7c0-0.16,0.02-0.27,0.04-0.31c0.03-0.05,0.13-0.08,0.28-0.08h2.47
			V294.06z"/>
		<path style="clip-path:url(#SVGID_00000048484925458426842330000006963077268959990438_);fill:#71B051;" d="M91.7,294.06h-2.47
			c-0.15,0-0.24-0.05-0.28-0.16c-0.03-0.1-0.05-0.28-0.05-0.53v-0.7c0-0.16,0.02-0.27,0.05-0.31c0.03-0.05,0.12-0.08,0.28-0.08h2.47
			V294.06z"/>
		<path style="clip-path:url(#SVGID_00000048484925458426842330000006963077268959990438_);fill:#71B051;" d="M90.95,294.06
			c-0.16,0-0.26-0.04-0.31-0.13c-0.04-0.09-0.07-0.21-0.07-0.39v-0.79c0-0.15,0.02-0.27,0.08-0.35c0.05-0.08,0.15-0.12,0.31-0.12
			h1.2c0.28,0,0.46-0.09,0.54-0.27c0.08-0.18,0.12-0.51,0.12-0.99v-4.42h1.9v3.94c0,0.61,0.08,1.05,0.25,1.32
			c0.17,0.28,0.45,0.41,0.84,0.41h0.6c0.16,0,0.27,0.03,0.32,0.11c0.06,0.08,0.08,0.2,0.08,0.38v0.77c0,0.18-0.03,0.32-0.08,0.4
			c-0.05,0.08-0.16,0.13-0.32,0.13H96c-0.07,0-0.12,0-0.17-0.02c-0.34-0.03-0.62-0.22-0.83-0.56c-0.21-0.33-0.35-0.72-0.4-1.14
			c-0.15,1.14-0.7,1.72-1.68,1.72H90.95z M91.69,296.31c0-0.32,0.08-0.6,0.25-0.83c0.16-0.23,0.38-0.35,0.63-0.35
			c0.25,0,0.46,0.12,0.63,0.35c0.17,0.23,0.26,0.51,0.26,0.83c0,0.35-0.08,0.64-0.26,0.88c-0.17,0.23-0.38,0.35-0.63,0.35
			c-0.26,0-0.47-0.12-0.63-0.35C91.78,296.96,91.69,296.67,91.69,296.31 M93.87,296.31c0-0.32,0.09-0.6,0.26-0.83
			c0.17-0.23,0.38-0.35,0.63-0.35c0.25,0,0.47,0.12,0.64,0.35c0.17,0.23,0.26,0.51,0.26,0.83c0,0.35-0.08,0.64-0.26,0.88
			c-0.17,0.23-0.39,0.35-0.64,0.35c-0.25,0-0.46-0.12-0.63-0.35C93.96,296.96,93.87,296.67,93.87,296.31"/>
		<path style="clip-path:url(#SVGID_00000048484925458426842330000006963077268959990438_);fill:#71B051;" d="M99.25,286.61
			c0.47,0,0.91,0.08,1.35,0.25c0.44,0.17,0.82,0.43,1.16,0.78c0.33,0.36,0.6,0.81,0.8,1.36c0.2,0.55,0.3,1.21,0.3,1.97
			c0,0.21-0.01,0.42-0.03,0.64c-0.02,0.22-0.05,0.44-0.09,0.67h1.26c0.16,0,0.26,0.04,0.32,0.12c0.05,0.08,0.08,0.2,0.08,0.38v0.76
			c0,0.19-0.03,0.32-0.08,0.4c-0.06,0.08-0.16,0.13-0.31,0.13h-7.88c-0.16,0-0.26-0.05-0.31-0.13c-0.05-0.09-0.07-0.22-0.07-0.39
			v-0.78c0-0.15,0.03-0.27,0.08-0.35c0.05-0.08,0.15-0.13,0.3-0.13h1.1c0-0.22-0.01-0.43-0.02-0.65c-0.01-0.21-0.01-0.42-0.01-0.63
			c0-0.72,0.02-1.45,0.07-2.2c0.05-0.74,0.11-1.48,0.18-2.19H99.25z M100.75,292.28c0.08-0.25,0.14-0.51,0.17-0.8
			c0.04-0.27,0.06-0.55,0.06-0.82c0-0.43-0.04-0.78-0.13-1.07c-0.08-0.29-0.18-0.52-0.31-0.7c-0.12-0.17-0.25-0.3-0.39-0.37
			c-0.14-0.08-0.27-0.12-0.39-0.12h-0.58c-0.03,0.35-0.06,0.71-0.09,1.07c-0.02,0.37-0.03,0.75-0.03,1.15
			c0,0.27,0.01,0.55,0.03,0.82c0.01,0.27,0.03,0.55,0.06,0.83H100.75z"/>
		<path style="clip-path:url(#SVGID_00000048484925458426842330000006963077268959990438_);fill:#71B051;" d="M103.8,294.06
			c-0.16,0-0.26-0.04-0.31-0.13c-0.05-0.09-0.07-0.22-0.07-0.4v-0.78c0-0.15,0.03-0.27,0.08-0.35c0.05-0.08,0.15-0.13,0.3-0.13h0.73
			c0.14,0,0.26-0.01,0.37-0.05c0.1-0.03,0.18-0.09,0.24-0.18c0.06-0.09,0.11-0.22,0.13-0.38c0.03-0.17,0.04-0.38,0.04-0.64v-4.41
			h1.9v3.94c0,0.5,0.07,0.92,0.2,1.25c0.13,0.32,0.37,0.48,0.72,0.48h0.53c0.16,0,0.27,0.04,0.33,0.12c0.05,0.08,0.08,0.2,0.08,0.38
			v0.76c0,0.19-0.03,0.32-0.08,0.4c-0.06,0.08-0.16,0.12-0.33,0.12h-0.2c-0.18,0-0.35-0.05-0.51-0.13c-0.16-0.1-0.29-0.22-0.4-0.38
			c-0.11-0.16-0.2-0.34-0.28-0.55c-0.08-0.2-0.13-0.42-0.15-0.65c-0.15,1.14-0.71,1.71-1.68,1.71H103.8z M105.38,282.99
			c0-0.34,0.08-0.62,0.25-0.86c0.17-0.24,0.38-0.35,0.63-0.35c0.25,0,0.47,0.11,0.64,0.35c0.17,0.24,0.26,0.52,0.26,0.86
			c0,0.34-0.09,0.63-0.26,0.87c-0.17,0.24-0.39,0.36-0.64,0.36c-0.26,0-0.47-0.12-0.63-0.36
			C105.47,283.62,105.38,283.33,105.38,282.99"/>
		<path style="clip-path:url(#SVGID_00000048484925458426842330000006963077268959990438_);fill:#71B051;" d="M108.29,294.06
			c-0.16,0-0.26-0.04-0.31-0.13c-0.04-0.09-0.07-0.22-0.07-0.4v-0.78c0-0.15,0.03-0.27,0.08-0.35c0.05-0.08,0.15-0.13,0.31-0.13
			h2.09v-5.67h1.92v7.45H108.29z M109.08,282.99c0-0.34,0.09-0.62,0.26-0.86c0.17-0.24,0.38-0.35,0.63-0.35
			c0.26,0,0.47,0.11,0.64,0.35c0.17,0.24,0.26,0.52,0.26,0.86c0,0.34-0.09,0.63-0.26,0.87c-0.17,0.24-0.39,0.36-0.64,0.36
			c-0.24,0-0.45-0.12-0.63-0.36C109.17,283.62,109.08,283.33,109.08,282.99 M111.28,282.99c0-0.34,0.08-0.62,0.25-0.86
			c0.17-0.24,0.38-0.35,0.64-0.35c0.26,0,0.47,0.11,0.64,0.35c0.17,0.24,0.26,0.52,0.26,0.86c0,0.34-0.09,0.63-0.26,0.87
			c-0.17,0.24-0.39,0.36-0.64,0.36c-0.25,0-0.47-0.12-0.64-0.36C111.36,283.62,111.28,283.33,111.28,282.99"/>
		<path style="clip-path:url(#SVGID_00000048484925458426842330000006963077268959990438_);fill:#71B051;" d="M76.33,310.35
			c0.08,0.72,0.14,1.45,0.19,2.2c0.04,0.75,0.07,1.48,0.07,2.2c0,0.4-0.01,0.83-0.04,1.27h1.13c0.16,0,0.27,0.04,0.32,0.11
			c0.06,0.08,0.09,0.2,0.09,0.38v0.76c0,0.19-0.03,0.32-0.09,0.4c-0.05,0.08-0.16,0.12-0.32,0.12h-6.23c-0.17-0.5-0.3-1.02-0.4-1.56
			c-0.1-0.54-0.14-1.05-0.14-1.53c0-0.67,0.09-1.26,0.26-1.8c0.17-0.53,0.41-0.99,0.7-1.38c0.29-0.38,0.63-0.67,1.02-0.88
			c0.39-0.21,0.79-0.31,1.22-0.31H76.33z M71.96,306.74c0-0.34,0.08-0.62,0.26-0.86c0.17-0.23,0.38-0.35,0.63-0.35
			c0.26,0,0.47,0.12,0.64,0.35c0.17,0.24,0.26,0.52,0.26,0.86c0,0.34-0.08,0.63-0.26,0.87c-0.17,0.24-0.38,0.36-0.64,0.36
			c-0.24,0-0.45-0.12-0.63-0.36C72.04,307.36,71.96,307.08,71.96,306.74 M74.61,316.03c0.03-0.28,0.06-0.56,0.07-0.82
			c0.01-0.27,0.02-0.54,0.02-0.83c0-0.4-0.01-0.78-0.04-1.15c-0.03-0.37-0.05-0.73-0.09-1.08h-0.57c-0.11,0-0.24,0.04-0.38,0.11
			c-0.14,0.08-0.27,0.2-0.4,0.38c-0.13,0.17-0.23,0.41-0.31,0.69c-0.08,0.29-0.13,0.65-0.13,1.08c0,0.28,0.02,0.56,0.05,0.82
			c0.03,0.27,0.09,0.53,0.17,0.79H74.61z M74.15,306.74c0-0.34,0.08-0.62,0.25-0.86c0.17-0.23,0.38-0.35,0.64-0.35
			c0.26,0,0.47,0.12,0.64,0.35c0.17,0.24,0.26,0.52,0.26,0.86c0,0.34-0.08,0.63-0.26,0.87c-0.17,0.24-0.38,0.36-0.64,0.36
			c-0.26,0-0.46-0.12-0.64-0.36C74.23,307.36,74.15,307.08,74.15,306.74"/>
		<path style="clip-path:url(#SVGID_00000048484925458426842330000006963077268959990438_);fill:#71B051;" d="M77.31,317.81
			c-0.16,0-0.26-0.05-0.31-0.13c-0.04-0.09-0.07-0.21-0.07-0.39v-0.79c0-0.15,0.03-0.27,0.08-0.35c0.05-0.08,0.16-0.12,0.31-0.12
			h2.09v-5.68h1.92v7.46H77.31z M77.86,320.06c0-0.33,0.08-0.61,0.25-0.84c0.17-0.23,0.38-0.35,0.63-0.35
			c0.25,0,0.46,0.12,0.63,0.35c0.17,0.23,0.26,0.52,0.26,0.84c0,0.35-0.08,0.64-0.26,0.87c-0.17,0.24-0.38,0.35-0.63,0.35
			c-0.25,0-0.46-0.11-0.63-0.35C77.94,320.7,77.86,320.42,77.86,320.06 M80.04,320.06c0-0.33,0.09-0.61,0.26-0.84
			c0.17-0.23,0.38-0.35,0.63-0.35c0.26,0,0.47,0.12,0.64,0.35c0.17,0.23,0.26,0.52,0.26,0.84c0,0.35-0.09,0.64-0.26,0.87
			c-0.17,0.24-0.38,0.35-0.64,0.35c-0.25,0-0.46-0.11-0.63-0.35C80.13,320.7,80.04,320.42,80.04,320.06"/>
		<path style="clip-path:url(#SVGID_00000048484925458426842330000006963077268959990438_);fill:#71B051;" d="M87.06,317.81
			c-0.19,0-0.36-0.05-0.51-0.14c-0.15-0.09-0.28-0.21-0.4-0.37c-0.11-0.16-0.21-0.34-0.28-0.55c-0.07-0.21-0.12-0.43-0.15-0.65v0.85
			c0,0.15,0,0.3-0.01,0.45c-0.01,0.15-0.01,0.29-0.02,0.42c-0.03,0.62-0.11,1.16-0.23,1.6c-0.12,0.45-0.27,0.81-0.45,1.09
			c-0.19,0.29-0.4,0.5-0.65,0.63c-0.25,0.14-0.51,0.21-0.79,0.21c-0.32,0-0.63-0.05-0.93-0.12c-0.3-0.08-0.61-0.23-0.93-0.45
			c0.03-0.17,0.07-0.34,0.09-0.5c0.03-0.16,0.05-0.33,0.08-0.5c0.11,0.03,0.23,0.05,0.35,0.07c0.12,0.02,0.22,0.03,0.32,0.03
			c0.2,0,0.38-0.04,0.53-0.11c0.15-0.07,0.29-0.2,0.39-0.4c0.1-0.19,0.18-0.45,0.24-0.78c0.05-0.33,0.08-0.76,0.08-1.28v-6.93h1.92
			v4.07c0,0.46,0.07,0.84,0.2,1.15c0.14,0.3,0.37,0.46,0.71,0.46h0.74c0.16,0,0.27,0.04,0.32,0.11c0.05,0.07,0.08,0.2,0.08,0.37
			v0.77c0,0.18-0.03,0.32-0.09,0.4c-0.05,0.08-0.16,0.12-0.31,0.12H87.06z"/>
		<path style="clip-path:url(#SVGID_00000048484925458426842330000006963077268959990438_);fill:#71B051;" d="M89.44,317.81h-2.47
			c-0.15,0-0.24-0.05-0.28-0.15c-0.03-0.1-0.05-0.28-0.05-0.53v-0.7c0-0.16,0.02-0.27,0.05-0.32c0.03-0.05,0.13-0.08,0.28-0.08h2.47
			V317.81z"/>
		<path style="clip-path:url(#SVGID_00000048484925458426842330000006963077268959990438_);fill:#71B051;" d="M91.12,317.81h-2.47
			c-0.15,0-0.25-0.05-0.28-0.15c-0.03-0.1-0.05-0.28-0.05-0.53v-0.7c0-0.16,0.02-0.27,0.05-0.32c0.03-0.05,0.12-0.08,0.28-0.08h2.47
			V317.81z"/>
		<path style="clip-path:url(#SVGID_00000048484925458426842330000006963077268959990438_);fill:#71B051;" d="M92.79,317.81h-2.47
			c-0.15,0-0.24-0.05-0.28-0.15c-0.03-0.1-0.04-0.28-0.04-0.53v-0.7c0-0.16,0.02-0.27,0.04-0.32c0.03-0.05,0.13-0.08,0.28-0.08h2.47
			V317.81z"/>
		<path style="clip-path:url(#SVGID_00000048484925458426842330000006963077268959990438_);fill:#71B051;" d="M94.47,317.81H92
			c-0.15,0-0.24-0.05-0.27-0.15c-0.03-0.1-0.05-0.28-0.05-0.53v-0.7c0-0.16,0.02-0.27,0.05-0.32c0.03-0.05,0.12-0.08,0.27-0.08h2.47
			V317.81z"/>
		<path style="clip-path:url(#SVGID_00000048484925458426842330000006963077268959990438_);fill:#71B051;" d="M96.15,317.81h-2.47
			c-0.15,0-0.24-0.05-0.27-0.15c-0.03-0.1-0.05-0.28-0.05-0.53v-0.7c0-0.16,0.02-0.27,0.05-0.32c0.03-0.05,0.12-0.08,0.27-0.08h2.47
			V317.81z"/>
		<path style="clip-path:url(#SVGID_00000048484925458426842330000006963077268959990438_);fill:#71B051;" d="M97.83,317.81h-2.47
			c-0.16,0-0.25-0.05-0.28-0.15c-0.03-0.1-0.05-0.28-0.05-0.53v-0.7c0-0.16,0.02-0.27,0.05-0.32c0.03-0.05,0.12-0.08,0.28-0.08h2.47
			V317.81z"/>
		<path style="clip-path:url(#SVGID_00000048484925458426842330000006963077268959990438_);fill:#71B051;" d="M102.27,317.81
			c-0.2,0-0.38-0.05-0.53-0.15c-0.15-0.1-0.29-0.23-0.4-0.39c-0.11-0.16-0.21-0.35-0.28-0.56c-0.07-0.21-0.12-0.42-0.15-0.62
			c-0.09,0.58-0.27,1.02-0.55,1.3c-0.28,0.28-0.66,0.42-1.13,0.42h-2.02c-0.16,0-0.26-0.04-0.31-0.13
			c-0.05-0.09-0.07-0.22-0.07-0.39v-0.79c0-0.15,0.02-0.27,0.08-0.35c0.05-0.08,0.15-0.12,0.3-0.12h1.32c0.21,0,0.36-0.08,0.45-0.26
			c0.09-0.17,0.14-0.44,0.14-0.82v-2.63h1.9v1.98c0,0.5,0.06,0.92,0.19,1.24c0.13,0.33,0.36,0.49,0.69,0.49h0.41
			c0.21,0,0.36-0.08,0.45-0.26c0.09-0.17,0.14-0.44,0.14-0.82v-3.59h1.9v2.94c0,0.5,0.07,0.92,0.2,1.24
			c0.13,0.33,0.36,0.49,0.69,0.49h0.84v-5.67h1.93v7.45h-2.41c-0.2,0-0.37-0.05-0.53-0.15c-0.15-0.1-0.28-0.23-0.4-0.39
			c-0.12-0.16-0.21-0.35-0.28-0.56c-0.07-0.21-0.12-0.42-0.15-0.62c-0.09,0.58-0.28,1.02-0.55,1.3c-0.28,0.28-0.65,0.42-1.13,0.42
			H102.27z"/>
		<path style="clip-path:url(#SVGID_00000048484925458426842330000006963077268959990438_);fill:#71B051;" d="M109.25,303.24v-1.3
			h0.76v-1.03c0-0.45,0.05-0.81,0.14-1.08c0.09-0.28,0.21-0.49,0.36-0.64c0.15-0.16,0.33-0.26,0.52-0.31
			c0.19-0.06,0.4-0.08,0.6-0.08h0.87v1.41h-0.73c-0.18,0-0.33,0.05-0.45,0.16c-0.11,0.11-0.17,0.31-0.17,0.6v0.96h1.4v1.3H109.25z
			 M110.35,304.93h1.9v12.88h-1.9V304.93z"/>
	</g>
	<g>
		<defs>
			<path id="SVGID_00000057847433948154588740000010501005059260234136_" d="M317.3,225.7c4.45,16.37,16.97,28.95,29.76,28.95h43.86
				c-18.02-14.25-43.81-24.7-73.53-29L317.3,225.7z"/>
		</defs>
		<clipPath id="SVGID_00000000932077674473302640000017298609602062762133_">
			<use xlink:href="#SVGID_00000057847433948154588740000010501005059260234136_"  style="overflow:visible;"/>
		</clipPath>
		
			<linearGradient id="SVGID_00000023247554634422960460000012865987029188233641_" gradientUnits="userSpaceOnUse" x1="-950.3515" y1="405.4613" x2="-949.788" y2="405.4613" gradientTransform="matrix(67.2904 -74.4154 -74.4154 -67.2904 94446.1172 -43163.6719)">
			<stop  offset="0" style="stop-color:#283D8C"/>
			<stop  offset="1" style="stop-color:#1E75B7"/>
		</linearGradient>
		
			<polygon style="clip-path:url(#SVGID_00000000932077674473302640000017298609602062762133_);fill:url(#SVGID_00000023247554634422960460000012865987029188233641_);" points="
			306.73,241.6 350.42,175.65 401.49,238.69 357.8,304.65 		"/>
	</g>
	<g>
		<defs>
			<rect id="SVGID_00000100378490055831446850000015293326486237058748_" y="186.68" width="515.12" height="175.25"/>
		</defs>
		<clipPath id="SVGID_00000059270815617057391860000005861256780413725837_">
			<use xlink:href="#SVGID_00000100378490055831446850000015293326486237058748_"  style="overflow:visible;"/>
		</clipPath>
		<path style="clip-path:url(#SVGID_00000059270815617057391860000005861256780413725837_);fill:#486FB0;" d="M415.33,323.76
			l12.6-0.71l-15.62-27.21c-4.54-7.92-13.17-11.2-20.2-8.14l2.65,14.9C396.92,314.75,406.18,324.28,415.33,323.76"/>
	</g>
	<g>
		<defs>
			<path id="SVGID_00000128455993497564724790000005396823227476174986_" d="M392.23,287.91l0.01,0.07
				c12,16.87,24.63,29.13,35.77,35.23l-15.59-27.16c-3.41-5.94-9.12-9.27-14.72-9.27C395.84,286.77,393.98,287.14,392.23,287.91"/>
		</defs>
		<clipPath id="SVGID_00000162353210442259520140000009636525699237818501_">
			<use xlink:href="#SVGID_00000128455993497564724790000005396823227476174986_"  style="overflow:visible;"/>
		</clipPath>
		
			<linearGradient id="SVGID_00000094613046075397492830000005165464227245608362_" gradientUnits="userSpaceOnUse" x1="-953.92" y1="403.0456" x2="-953.3417" y2="403.0456" gradientTransform="matrix(-9.8331 56.9678 -56.9678 -9.8331 13995.1465 58585.3711)">
			<stop  offset="0" style="stop-color:#283D8C"/>
			<stop  offset="1" style="stop-color:#1E75B7"/>
		</linearGradient>
		
			<polygon style="clip-path:url(#SVGID_00000162353210442259520140000009636525699237818501_);fill:url(#SVGID_00000094613046075397492830000005165464227245608362_);" points="
			393.26,278.58 387.75,322.15 426.98,331.39 432.48,287.83 		"/>
	</g>
	<g>
		<defs>
			<rect id="SVGID_00000122685837735374424110000002571253875027012273_" y="186.68" width="515.12" height="175.25"/>
		</defs>
		<clipPath id="SVGID_00000062911238720731826370000002523043418191324851_">
			<use xlink:href="#SVGID_00000122685837735374424110000002571253875027012273_"  style="overflow:visible;"/>
		</clipPath>
		<path style="clip-path:url(#SVGID_00000062911238720731826370000002523043418191324851_);fill:#71B051;" d="M342.5,278.04
			c7.37,8.47,16.89,13.59,27.3,13.59c3.5,0,6.91-0.59,10.17-1.68c0.46-0.99,0.88-2,1.25-3.04l8.31-22.69l-36.83,8.1
			C349.05,273.12,345.58,275.16,342.5,278.04"/>
	</g>
</g>
</svg>
