<?xml version="1.0" encoding="utf-8"?>
<!-- Generator: Adobe Illustrator 28.0.0, SVG Export Plug-In . SVG Version: 6.00 Build 0)  -->
<svg version="1.1" id="Layer_1" xmlns="http://www.w3.org/2000/svg" xmlns:xlink="http://www.w3.org/1999/xlink" x="0px" y="0px"
	 viewBox="0 0 500 500" style="enable-background:new 0 0 500 500;" xml:space="preserve">
<style type="text/css">
	.st0{fill:#D94601;}
	.st1{fill:#626365;}
</style>
<path class="st0" d="M305.67,61.99c0.35,0.13,0.19,0.36-0.36,1.08c-3.22,4.24-4.26,9.17-4.38,14.34c-0.11,4.51,0.59,8.96,1.22,13.41
	c1.96,13.71,4.72,27.28,6.95,40.95c1.2,7.33,2.15,14.69,3.14,22.05c1.17,8.72,2.8,17.37,4.36,26.03
	c1.97,10.96,4.17,21.89,5.39,32.96c0.85,7.73,1.27,15.48,0.09,23.23c-0.26,1.73-0.67,3.42-1.33,5.05c-0.32,0.81-0.59,1.01-1.33,0.32
	c-4.06-3.78-7.38-8.14-10.26-12.85c-3.95-6.47-7.13-13.36-10.6-20.08c-8-15.51-16.7-30.63-24.87-46.05
	c-7.13-13.46-15.13-26.4-22.86-39.54c-18.64-31.66-33.65-36.41-33.65-36.41c-9.83-5.82-22.46-3.5-29.94,5.14
	c-5.94,6.86-13.87,17.91-19.23,32.65c-1.12,3.08-2.34,6.12-3.55,9.16c-5.76,14.4-21.71,62.84-21.71,157.77
	c0,0.18-0.09,0.34-0.13,0.51c-0.37-0.02-0.48-0.28-0.63-0.47c-13.25-14.84-23.7-30.6-32.09-60.61c-3.17-11.08-4.75-23.09-4.56-34.58
	c0.21-12.59,1.68-24.43,4.51-36.7c3.17-13.75,8.74-26.73,16.21-38.63c40.4-64.37,105.33-68.73,105.33-68.73
	S273.78,46.37,305.67,61.99z"/>
<path class="st1" d="M394.34,199.04c-0.21,2.4-0.32,6.48-0.54,8.88c-1.14,12.2-3.04,23.21-7.36,34.65
	c-7.02,18.6-14.54,33.08-30.27,50.59c-1.86,2.12-4.24,4.87-6.5,6.62c-0.07-0.12-0.02,0.02,0,0c1.89-4.66,1.92-9.45,2.26-13.33
	c1.3-14.87,0.96-29.78,0.59-44.67c-0.24-9.66-0.6-19.31-1.01-28.97c-0.42-9.84-0.95-19.67-1.47-29.5c-0.44-8.2-0.91-16.4-1.42-24.59
	c-0.53-8.57-1.11-17.13-1.69-25.69c-0.53-7.82-1.07-15.64-1.65-23.46c-0.54-7.37-1.12-14.74-1.69-22.11
	c-0.01-0.59-0.15-1.32,0.02-1.38c0.9-0.03,1.21,0.31,1.35,0.45c14.93,14.96,27.71,27.84,37.1,50.39
	c5.81,12.04,8.86,25.13,10.88,38.36c0.62,4.08,1.06,8.18,1.22,12.3c0.02,0.4,0.12,0.8,0.18,1.19
	C394.34,192.2,394.34,195.62,394.34,199.04z"/>
<path class="st1" d="M175,318.14c-0.08,0.61,0.02,0.96,0.59,1.25c1.22,0.62,2.41,1.32,3.62,1.96c12.38,6.46,25.22,11.74,38.92,14.72
	c10.41,2.26,20.98,3.24,31.62,3.59c2.93,0.08,5.88,0.3,8.8,0c7.46-0.77,14.83-2.15,22.18-3.69c18.36-3.85,35.04-11.51,50.53-21.94
	c0.73-0.49,0.77-0.71,0.09-1.32c-5.49-4.93-10.34-10.45-15-16.16c-7.4-9.07-13.16-19.23-19.42-29.08
	c-11.85-18.63-23.51-37.39-34.64-56.46c-6.91-11.84-14.11-23.51-22.08-34.68c-4.18-5.86-8.67-11.43-14.05-16.17
	c-3.51-3.09-7.77-5.28-12.39-6.05c-4.11-0.69-9.05-0.41-13.47,2.89c-2.8,2.09-4.76,5.11-5.79,8.45
	c-4.45,14.43-21.6,75.35-19.55,149.97"/>
<path class="st0" d="M112.17,397.72v-28.61h5.02l11.98,26.35h0.95v-26.35h2.51v28.61h-4.94l-12.06-26.31h-0.91v26.31H112.17z"/>
<path class="st0" d="M153.42,397.72v-28.61h2.55v28.61H153.42z"/>
<path class="st0" d="M173.67,371.41v-2.3h20.58v2.3h-8.98v26.31h-2.55v-26.31H173.67z"/>
<path class="st0" d="M214.51,386.44v11.28h-2.55v-28.61h10.5c2.99,0,5.22,0.68,6.69,2.04c1.47,1.36,2.2,3.51,2.2,6.44
	c0,4.58-1.84,7.37-5.52,8.36l5.89,11.77h-2.84l-5.64-11.28H214.51z M228.72,377.63c0-2.14-0.51-3.72-1.52-4.73
	c-1.02-1.02-2.59-1.52-4.73-1.52h-7.95v12.8h7.95C226.63,384.17,228.72,381.99,228.72,377.63z"/>
<path class="st0" d="M272.11,383.64c0,5.11-0.8,8.8-2.41,11.08s-4.53,3.42-8.77,3.42c-4.24,0-7.16-1.17-8.77-3.5
	s-2.41-6.02-2.41-11.05c0-5.04,0.81-8.77,2.43-11.22c1.62-2.44,4.53-3.66,8.73-3.66s7.12,1.21,8.75,3.64
	C271.29,374.77,272.11,378.53,272.11,383.64z M254.12,392.96c1.15,1.91,3.42,2.86,6.81,2.86s5.66-0.93,6.81-2.8
	c1.15-1.87,1.73-4.99,1.73-9.37c0-4.38-0.6-7.58-1.81-9.61c-1.21-2.03-3.46-3.05-6.75-3.05c-3.4,0-5.7,1.1-6.88,3.29
	c-0.63,1.13-1.06,2.42-1.3,3.87c-0.23,1.45-0.35,3.25-0.35,5.39C252.39,387.92,252.96,391.06,254.12,392.96z"/>
<path class="st0" d="M302.94,385.53v-2.26h7.78v13.83c-0.8,0.17-2.2,0.38-4.2,0.64c-2,0.26-3.66,0.39-4.98,0.39
	c-4.12,0-6.97-1.21-8.56-3.62c-1.59-2.42-2.39-6.08-2.39-10.99c0-2.44,0.17-4.53,0.49-6.26c0.33-1.73,0.91-3.27,1.73-4.61
	c1.56-2.63,4.46-3.95,8.69-3.95c2.58,0,5.2,0.26,7.86,0.78l1.36,0.29l-0.12,2.18c-3.43-0.63-6.4-0.95-8.89-0.95
	c-3.32,0-5.56,1-6.73,2.98c-1.17,1.99-1.75,5.15-1.75,9.49c0,4.34,0.58,7.48,1.75,9.43c1.17,1.95,3.4,2.92,6.69,2.92
	c1.95,0,4.13-0.22,6.55-0.66v-9.63H302.94z"/>
<path class="st0" d="M330.69,397.72v-28.61h17.17v2.3h-14.61v10.62h12.14v2.26h-12.14v11.16h14.61v2.26H330.69z"/>
<path class="st0" d="M367,397.72v-28.61h5.02L384,395.45h0.95v-26.35h2.51v28.61h-4.94l-12.06-26.31h-0.91v26.31H367z"/>
<path class="st1" d="M148.25,433.58c-0.29,0-0.54-0.07-0.74-0.2c-0.19-0.12-0.34-0.28-0.46-0.48c-0.11-0.18-0.18-0.39-0.22-0.62
	c-0.04-0.2-0.05-0.4-0.05-0.59c0-0.12,0.02-0.28,0.05-0.48c0.03-0.17,0.07-0.35,0.12-0.53c0.05-0.18,0.09-0.35,0.14-0.51
	c0.05-0.16,0.08-0.28,0.11-0.37l5.39-17.68l0.05-0.06c0.07-0.1,0.14-0.18,0.22-0.24c0.05-0.06,0.16-0.13,0.29-0.18
	c0.13-0.06,0.28-0.08,0.45-0.08h0.23c0.26,0,0.5,0.05,0.7,0.15c0.2,0.1,0.37,0.24,0.49,0.41c0.12,0.16,0.2,0.35,0.24,0.56
	c0.04,0.18,0.06,0.37,0.06,0.57c0,0.16-0.01,0.33-0.04,0.51c-0.02,0.16-0.05,0.32-0.08,0.47c-0.03,0.16-0.06,0.3-0.09,0.43
	l-0.07,0.29l-2.57,8.76l0.57-0.06c1.35-0.3,2.78-0.62,4.24-0.95c1.44-0.33,2.84-0.64,4.22-0.94c0.04-0.03,0.1-0.1,0.18-0.26
	c0.11-0.22,0.22-0.52,0.33-0.89c0.12-0.39,0.25-0.85,0.39-1.38c0.14-0.54,0.32-1.14,0.52-1.8l0.28-0.91
	c0.11-0.41,0.21-0.86,0.3-1.31c0.1-0.48,0.22-0.93,0.35-1.33c0.15-0.43,0.35-0.79,0.59-1.08c0.29-0.35,0.68-0.53,1.14-0.53
	c0.59,0,1.06,0.2,1.4,0.59c0.32,0.37,0.48,0.84,0.48,1.38c0,0.33-0.11,0.81-0.33,1.52c-0.21,0.65-0.47,1.43-0.78,2.36
	c-0.12,0.35-0.24,0.71-0.38,1.07c-0.13,0.36-0.25,0.7-0.36,1.03c-0.11,0.32-0.19,0.61-0.26,0.88c-0.08,0.3-0.09,0.47-0.09,0.55
	c0,0.12,0.02,0.23,0.05,0.34c0.06,0.19,0.08,0.4,0.08,0.63c0,0.5-0.14,0.93-0.42,1.28c-0.21,0.26-0.48,0.53-0.82,0.79
	c-0.01,0.05-0.02,0.1-0.03,0.16c-0.03,0.16-0.07,0.32-0.12,0.49l-0.17,0.67c-0.12,0.47-0.22,0.95-0.3,1.42
	c-0.08,0.48-0.16,0.96-0.22,1.43c-0.07,0.48-0.14,0.96-0.21,1.44c-0.07,0.48-0.17,0.97-0.29,1.45c-0.06,0.24-0.17,0.46-0.32,0.65
	c-0.14,0.17-0.3,0.32-0.49,0.44c-0.18,0.12-0.37,0.21-0.57,0.28c-0.2,0.07-0.4,0.1-0.6,0.1c-0.31,0-0.58-0.08-0.79-0.24
	c-0.19-0.14-0.33-0.3-0.44-0.49c-0.1-0.18-0.17-0.37-0.2-0.55c-0.03-0.18-0.05-0.32-0.05-0.44c0-0.12,0.02-0.31,0.05-0.58
	c0.03-0.25,0.07-0.54,0.13-0.87c0.05-0.33,0.12-0.69,0.19-1.07l0.2-1.1c0.14-0.77,0.3-1.57,0.47-2.41
	c-0.06,0.01-0.12,0.02-0.17,0.03c-0.26,0.05-0.57,0.11-0.93,0.2c-0.14,0.05-0.4,0.12-0.74,0.21l-3.96,1.07l-3.38,0.92
	c-0.13,0.28-0.25,0.57-0.36,0.88c-0.14,0.39-0.27,0.79-0.4,1.19c-0.12,0.4-0.23,0.8-0.33,1.19l-0.28,1.12
	c-0.04,0.16-0.12,0.32-0.24,0.48c-0.11,0.15-0.23,0.28-0.36,0.39c-0.14,0.12-0.29,0.22-0.44,0.3
	C148.61,433.53,148.43,433.58,148.25,433.58z"/>
<path class="st1" d="M177.61,432.81c-0.22,0-0.49-0.01-0.79-0.04c-0.31-0.03-0.63-0.09-0.97-0.17c-0.34-0.09-0.68-0.22-1.01-0.38
	c-0.35-0.18-0.66-0.41-0.93-0.69c-0.27-0.29-0.49-0.64-0.66-1.06c-0.17-0.42-0.25-0.92-0.25-1.48c0-0.35,0.04-0.72,0.11-1.13
	c-0.04-0.03-0.09-0.07-0.13-0.11c-0.19-0.19-0.29-0.45-0.29-0.77c0-0.48,0.14-0.9,0.4-1.25c0.22-0.29,0.51-0.5,0.85-0.63
	c0.1-0.18,0.22-0.39,0.38-0.65c0.21-0.34,0.48-0.72,0.78-1.12c0.31-0.4,0.66-0.81,1.06-1.21c0.4-0.41,0.85-0.79,1.34-1.13
	c0.49-0.34,1.03-0.62,1.59-0.84c0.58-0.22,1.21-0.34,1.87-0.34c0.56,0,1.06,0.07,1.48,0.21c0.44,0.14,0.81,0.35,1.1,0.61
	c0.3,0.27,0.53,0.59,0.68,0.96c0.15,0.36,0.22,0.75,0.22,1.16c0,0.34-0.05,0.68-0.14,0.99c-0.14,0.55-0.4,1.05-0.79,1.48
	c-0.37,0.4-0.8,0.76-1.29,1.06c-0.48,0.3-1.01,0.54-1.57,0.74c-0.54,0.19-1.1,0.35-1.65,0.48c-0.54,0.13-1.07,0.22-1.58,0.29
	c-0.38,0.05-0.72,0.09-1.02,0.13c-0.03,0.08-0.05,0.17-0.08,0.27c-0.05,0.21-0.07,0.41-0.07,0.6c0,0.36,0.13,0.62,0.41,0.81
	c0.32,0.23,0.8,0.34,1.42,0.34c0.38,0,0.74-0.04,1.08-0.13c0.36-0.09,0.69-0.2,1.01-0.33c0.32-0.14,0.63-0.29,0.91-0.45
	c0.29-0.17,0.55-0.33,0.79-0.49c0.33-0.22,0.66-0.41,0.96-0.57c0.35-0.18,0.68-0.27,0.97-0.27c0.5,0,0.73,0.22,0.83,0.4
	c0.1,0.18,0.15,0.37,0.15,0.58c0,0.08,0,0.16-0.01,0.24c-0.01,0.09-0.02,0.16-0.03,0.22c-0.05,0.28-0.16,0.56-0.32,0.84
	c-0.16,0.28-0.36,0.52-0.61,0.72c-0.97,0.76-1.97,1.31-2.98,1.63C179.84,432.65,178.75,432.81,177.61,432.81z M180.58,422.82
	c-0.31,0-0.62,0.08-0.92,0.25c-0.34,0.19-0.67,0.42-0.97,0.7c-0.31,0.28-0.58,0.59-0.82,0.91c-0.02,0.03-0.05,0.07-0.07,0.1
	c0.26-0.04,0.51-0.09,0.75-0.14c0.5-0.11,0.93-0.25,1.29-0.42c0.34-0.16,0.62-0.34,0.83-0.53c0.18-0.16,0.29-0.33,0.34-0.5
	l0.01-0.12c0-0.11-0.03-0.13-0.06-0.15C180.85,422.85,180.73,422.82,180.58,422.82z"/>
<path class="st1" d="M200.38,432.75c-0.31,0-0.55-0.02-0.75-0.06c-0.23-0.05-0.41-0.13-0.56-0.23c-0.17-0.12-0.29-0.29-0.34-0.48
	c-0.04-0.13-0.06-0.29-0.06-0.45c0-0.28,0.03-0.62,0.1-1c0.01-0.08,0.03-0.17,0.04-0.27c-0.05,0.04-0.1,0.08-0.16,0.13
	c-0.36,0.3-0.74,0.59-1.13,0.86c-0.4,0.28-0.8,0.52-1.2,0.71c-0.44,0.21-0.86,0.32-1.25,0.32c-0.31,0-0.62-0.05-0.9-0.14
	c-0.29-0.1-0.54-0.23-0.75-0.39c-0.52-0.41-0.89-0.82-1.13-1.25c-0.25-0.44-0.37-0.95-0.37-1.52c0-0.24,0.02-0.5,0.06-0.76
	c0.04-0.25,0.1-0.54,0.19-0.86c0.35-1.44,0.95-2.79,1.79-4.02c0.84-1.23,1.91-2.29,3.16-3.16c0.52-0.36,1.05-0.6,1.58-0.7
	c0.49-0.1,0.99-0.15,1.48-0.15c0.22,0,0.46,0.01,0.73,0.04c0.22,0.02,0.43,0.05,0.61,0.07c0.18-0.04,0.33-0.07,0.45-0.08
	c0.15-0.02,0.3-0.03,0.47-0.03c0.33,0,0.6,0.05,0.83,0.14c0.24,0.1,0.44,0.23,0.6,0.41c0.15,0.17,0.26,0.36,0.33,0.58
	c0.06,0.2,0.09,0.41,0.09,0.62c0,0.28-0.04,0.55-0.13,0.81l-0.21,0.63l-1.74,6.94c-0.02,0.31-0.05,0.66-0.08,0.97
	c-0.03,0.34-0.09,0.67-0.18,0.98l-0.11,0.32c-0.05,0.17-0.15,0.33-0.27,0.49c-0.12,0.15-0.27,0.28-0.46,0.39
	C200.93,432.68,200.68,432.75,200.38,432.75z M200.66,422.12c-0.35,0.01-0.7,0.08-1.05,0.22c-0.4,0.15-0.79,0.36-1.17,0.62
	c-0.38,0.27-0.75,0.58-1.09,0.94c-0.35,0.36-0.67,0.76-0.95,1.17c-0.29,0.42-0.53,0.85-0.74,1.28c-0.2,0.43-0.36,0.86-0.47,1.28
	c-0.03,0.12-0.07,0.28-0.1,0.49c-0.04,0.2-0.05,0.41-0.05,0.61c0,0.18,0.03,0.34,0.08,0.48c0.33-0.02,0.6-0.08,0.86-0.21
	c0.29-0.15,0.57-0.33,0.82-0.53c0.37-0.3,0.75-0.65,1.13-1.01c0.38-0.38,0.75-0.77,1.08-1.17c0.33-0.4,0.63-0.82,0.89-1.25
	c0.25-0.41,0.43-0.82,0.54-1.21c0.07-0.24,0.12-0.52,0.17-0.83c0.04-0.31,0.07-0.59,0.07-0.83
	C200.66,422.14,200.66,422.13,200.66,422.12z"/>
<path class="st1" d="M213.32,432.93c-0.32,0-0.61-0.07-0.85-0.22c-0.23-0.13-0.43-0.31-0.58-0.52c-0.15-0.2-0.25-0.42-0.32-0.65
	c-0.06-0.22-0.1-0.44-0.1-0.64c0-0.16,0.01-0.35,0.04-0.58c0.03-0.22,0.06-0.44,0.1-0.67c0.04-0.23,0.08-0.46,0.13-0.68
	c0.05-0.24,0.09-0.44,0.14-0.62l3.41-13.55c0.01-0.23,0.05-0.56,0.09-0.92c0.05-0.38,0.13-0.74,0.23-1.07
	c0.11-0.35,0.27-0.66,0.47-0.9c0.25-0.31,0.59-0.47,0.99-0.47c0.19,0,0.39,0.03,0.61,0.1c0.2,0.06,0.4,0.15,0.59,0.26
	c0.2,0.12,0.37,0.27,0.51,0.44c0.17,0.21,0.26,0.47,0.26,0.73c0,0.11-0.02,0.24-0.06,0.37c-0.02,0.08-0.04,0.16-0.06,0.24
	l-3.31,13.28c-0.13,0.52-0.24,1.01-0.32,1.49c-0.09,0.47-0.15,0.86-0.2,1.17l0,0.25c0,0.28-0.02,0.59-0.06,0.92
	c-0.04,0.35-0.11,0.68-0.22,0.98c-0.12,0.33-0.29,0.61-0.5,0.84C214.07,432.79,213.72,432.93,213.32,432.93z"/>
<path class="st1" d="M230.09,432.37c-0.64,0-1.22-0.12-1.72-0.35c-0.51-0.24-0.94-0.56-1.28-0.97c-0.34-0.4-0.6-0.87-0.78-1.4
	c-0.17-0.52-0.26-1.09-0.26-1.68c0-0.77,0.09-1.58,0.26-2.4c0.13-0.62,0.27-1.22,0.41-1.8c-0.08-0.02-0.16-0.03-0.24-0.06
	c-0.27-0.07-0.53-0.17-0.75-0.29c-0.25-0.13-0.45-0.3-0.62-0.51c-0.19-0.24-0.29-0.52-0.29-0.83c0-0.13,0.02-0.27,0.07-0.43
	c0.04-0.16,0.11-0.31,0.19-0.46c0.09-0.17,0.22-0.32,0.37-0.44c0.19-0.15,0.41-0.23,0.65-0.23h1.72c0.04-0.1,0.07-0.2,0.1-0.3
	c0.11-0.51,0.22-0.96,0.33-1.34l0.26-0.95c0.07-0.25,0.12-0.46,0.16-0.62c0.04-0.17,0.05-0.25,0.05-0.28c0-0.1,0-0.2-0.01-0.3
	c-0.01-0.11-0.01-0.27-0.01-0.47v-0.13c0-0.08,0.01-0.2,0.02-0.33c0.02-0.15,0.07-0.34,0.15-0.58c0.07-0.23,0.2-0.45,0.39-0.65
	c0.23-0.25,0.56-0.37,0.96-0.37c0.32,0,0.6,0.07,0.84,0.21c0.23,0.13,0.42,0.31,0.56,0.53c0.13,0.2,0.24,0.43,0.3,0.68
	c0.06,0.24,0.09,0.48,0.09,0.73c0,0.26-0.03,0.49-0.08,0.71l-0.78,3.01c0.2-0.03,1.66-0.31,1.66-0.31c0.4-0.08,0.74-0.15,1.03-0.22
	c0.3-0.07,0.55-0.13,0.77-0.18l0.54-0.12c0.18-0.04,0.33-0.06,0.46-0.06c0.16,0,0.33,0.01,0.5,0.04c0.19,0.03,0.36,0.08,0.51,0.15
	c0.18,0.09,0.33,0.21,0.45,0.37c0.13,0.18,0.19,0.4,0.19,0.66c0,0.28-0.06,0.55-0.18,0.77c-0.11,0.21-0.25,0.4-0.43,0.56
	c-0.17,0.15-0.36,0.27-0.57,0.37c-0.2,0.09-0.4,0.15-0.6,0.2c-0.15,0.03-0.32,0.07-0.54,0.12c0,0-1.29,0.3-1.58,0.37
	c-0.29,0.07-0.57,0.14-0.84,0.21c-0.41,0.11-0.76,0.2-1.04,0.27c-0.3,0.07-0.55,0.13-0.77,0.17c-0.21,0.04-0.38,0.06-0.51,0.08
	c-0.01,0-0.02,0-0.03,0c-0.13,0.39-0.24,0.78-0.33,1.16c-0.12,0.48-0.22,0.92-0.31,1.33c-0.08,0.41-0.14,0.77-0.18,1.09
	c-0.04,0.31-0.06,0.55-0.06,0.72c0,0.21,0.02,0.4,0.06,0.59c0.03,0.16,0.08,0.29,0.16,0.4c0.06,0.09,0.15,0.17,0.25,0.22
	c0.11,0.06,0.27,0.09,0.47,0.09c0.39,0,0.76-0.11,1.15-0.32c0.42-0.24,0.82-0.54,1.2-0.9c0.39-0.38,0.77-0.79,1.12-1.24
	c0.36-0.46,0.7-0.9,1-1.32c0.18-0.27,0.46-0.43,0.79-0.43c0.09,0,0.19,0.01,0.3,0.04c0.12,0.03,0.24,0.08,0.36,0.15
	c0.12,0.08,0.23,0.18,0.31,0.3c0.1,0.15,0.16,0.33,0.16,0.52c0,0.11-0.01,0.19-0.02,0.26c-0.15,0.59-0.39,1.18-0.7,1.76
	c-0.3,0.55-0.6,1.11-0.91,1.67c-0.12,0.22-0.28,0.45-0.48,0.66c-0.19,0.2-0.39,0.39-0.6,0.57c-0.21,0.18-0.44,0.35-0.67,0.52
	c-0.23,0.16-0.44,0.3-0.64,0.43c-0.39,0.24-0.81,0.41-1.26,0.5C230.91,432.33,230.49,432.37,230.09,432.37z"/>
<path class="st1" d="M254.01,433.3c-0.7,0-1.18-0.17-1.48-0.52c-0.28-0.32-0.42-0.75-0.42-1.28c0-0.25,0.02-0.51,0.07-0.79
	c0.05-0.27,0.11-0.54,0.18-0.83c0.13-0.48,0.27-0.95,0.43-1.43l0.46-1.4c0.15-0.47,0.3-0.94,0.45-1.41
	c0.14-0.46,0.27-0.92,0.38-1.38c-0.12,0.01-0.25,0.04-0.38,0.09c-0.19,0.07-0.35,0.14-0.46,0.22c-0.57,0.38-1.08,0.77-1.5,1.14
	c-0.43,0.37-0.83,0.77-1.18,1.17c-0.36,0.41-0.7,0.85-1.02,1.31c-0.33,0.48-0.67,1-1.03,1.57c-0.28,0.53-0.5,1-0.65,1.38
	c-0.16,0.42-0.3,0.76-0.44,1.02c-0.17,0.32-0.35,0.55-0.58,0.7c-0.24,0.17-0.56,0.25-0.98,0.25c-0.63,0-0.96-0.27-1.12-0.5
	c-0.2-0.28-0.31-0.64-0.31-1.07c0-0.29,0.04-0.62,0.13-0.97l4.37-17.5c0.03-0.14,0.09-0.28,0.17-0.44c0.08-0.17,0.2-0.32,0.34-0.47
	c0.14-0.14,0.31-0.26,0.5-0.35c0.21-0.1,0.45-0.15,0.7-0.15c0.15,0,0.32,0.01,0.49,0.02c0.19,0.02,0.37,0.05,0.53,0.1
	c0.21,0.06,0.38,0.17,0.52,0.32c0.16,0.17,0.25,0.4,0.25,0.66c0,0.05-0.01,0.14-0.03,0.29c-0.02,0.13-0.05,0.26-0.09,0.42
	c-0.48,1.92-0.99,3.91-1.53,5.99l-1.16,4.43c0.14-0.14,0.28-0.28,0.43-0.42c0.6-0.57,1.23-1.07,1.86-1.48
	c0.64-0.42,1.32-0.75,2.01-0.98c0.7-0.24,1.44-0.36,2.2-0.36c0.59,0,1.06,0.2,1.4,0.59c0.32,0.37,0.48,0.84,0.48,1.4
	c0,0.24-0.03,0.48-0.1,0.72c-0.11,0.41-0.23,0.82-0.37,1.22c-0.13,0.39-0.27,0.79-0.41,1.19c-0.14,0.4-0.28,0.8-0.42,1.21
	c-0.14,0.4-0.26,0.8-0.36,1.22c-0.14,0.54-0.23,1.05-0.28,1.52c-0.05,0.49-0.09,0.88-0.1,1.18c-0.02,0.28-0.06,0.56-0.13,0.83
	c-0.07,0.29-0.19,0.55-0.33,0.77c-0.16,0.24-0.36,0.43-0.6,0.58C254.64,433.22,254.34,433.3,254.01,433.3z"/>
<path class="st1" d="M289.43,431.98c-0.37,0-0.72-0.06-1.04-0.18c-0.29-0.11-0.56-0.25-0.8-0.4c-0.24-0.16-0.44-0.32-0.61-0.5
	c-0.15-0.16-0.28-0.3-0.37-0.41c-0.55-0.64-0.96-1.29-1.21-1.92c-0.26-0.64-0.39-1.35-0.39-2.12c0-0.54,0.07-1.15,0.19-1.83
	c0.13-0.69,0.36-1.37,0.69-2.01c0.43-0.86,0.91-1.7,1.44-2.5c0.52-0.79,1.07-1.54,1.63-2.22c0.56-0.68,1.13-1.29,1.68-1.82
	c0.57-0.54,1.12-0.97,1.65-1.27l0,0l0.96-0.59c0.36-0.22,0.72-0.42,1.1-0.6c0.38-0.18,0.77-0.34,1.16-0.46
	c0.41-0.13,0.83-0.19,1.24-0.19c0.44,0,0.86,0.09,1.25,0.27c0.39,0.17,0.73,0.41,1.02,0.72c0.29,0.3,0.52,0.65,0.69,1.05
	c0.17,0.4,0.25,0.83,0.25,1.28c0,0.31-0.02,0.55-0.06,0.73c-0.05,0.23-0.13,0.42-0.24,0.56c-0.14,0.17-0.32,0.27-0.53,0.31
	c-0.12,0.02-0.26,0.03-0.43,0.03c-0.3,0-0.55-0.07-0.74-0.22c-0.16-0.12-0.29-0.27-0.39-0.45c-0.09-0.15-0.15-0.33-0.2-0.51
	c-0.03-0.12-0.06-0.23-0.11-0.33c-0.03-0.07-0.06-0.12-0.1-0.17c-0.26,0.03-0.59,0.1-0.94,0.23c-0.38,0.15-0.78,0.35-1.18,0.6
	c-0.41,0.25-0.82,0.55-1.24,0.88c-0.42,0.33-0.82,0.67-1.2,1.02c-0.38,0.35-0.73,0.69-1.06,1.02s-0.6,0.64-0.84,0.91
	c-0.33,0.42-0.64,0.86-0.92,1.31c-0.28,0.44-0.52,0.9-0.72,1.36c-0.2,0.45-0.35,0.92-0.46,1.4c-0.11,0.47-0.16,0.97-0.16,1.48
	c0,0.36,0.05,0.68,0.15,0.95c0.11,0.29,0.23,0.54,0.35,0.74c0.11,0.18,0.24,0.3,0.4,0.36c0.19,0.08,0.43,0.12,0.71,0.12
	c0.71,0,1.38-0.07,1.98-0.2c0.61-0.14,1.2-0.32,1.75-0.55c0.56-0.23,1.11-0.5,1.65-0.82c0.55-0.32,1.12-0.67,1.71-1.04l0.11-0.07
	h0.48c0.19,0,0.37,0.05,0.56,0.14c0.17,0.09,0.32,0.2,0.44,0.33c0.13,0.13,0.23,0.28,0.31,0.45c0.09,0.19,0.13,0.38,0.13,0.58
	c0,0.4-0.15,0.79-0.45,1.16c-0.26,0.32-0.58,0.62-0.97,0.91c-0.37,0.27-0.8,0.53-1.27,0.77c-0.46,0.24-0.92,0.45-1.37,0.63
	c-0.45,0.18-0.86,0.33-1.25,0.46c-0.4,0.13-0.72,0.22-0.97,0.27l-0.55,0.12c-0.19,0.04-0.41,0.08-0.67,0.12
	c-0.26,0.04-0.57,0.08-0.93,0.1C290.41,431.97,289.96,431.98,289.43,431.98z"/>
<path class="st1" d="M314.72,432.75c-0.31,0-0.55-0.02-0.75-0.06c-0.23-0.05-0.42-0.13-0.56-0.23c-0.17-0.13-0.28-0.29-0.34-0.48
	c-0.04-0.14-0.06-0.29-0.06-0.45c0-0.28,0.03-0.62,0.1-1c0.01-0.08,0.03-0.17,0.04-0.27c-0.05,0.04-0.1,0.09-0.16,0.13
	c-0.36,0.3-0.74,0.59-1.13,0.86c-0.4,0.28-0.8,0.52-1.2,0.71c-0.44,0.21-0.86,0.32-1.25,0.32c-0.31,0-0.61-0.05-0.9-0.14
	c-0.29-0.1-0.54-0.23-0.75-0.39c-0.52-0.41-0.89-0.82-1.13-1.25c-0.25-0.44-0.37-0.95-0.37-1.52c0-0.24,0.02-0.5,0.07-0.76
	c0.04-0.25,0.1-0.54,0.19-0.86c0.34-1.43,0.95-2.79,1.79-4.02c0.84-1.23,1.91-2.29,3.16-3.16c0.52-0.36,1.05-0.6,1.58-0.7
	c0.49-0.1,0.99-0.15,1.48-0.15c0.22,0,0.46,0.01,0.73,0.04c0.22,0.02,0.43,0.05,0.61,0.07c0.18-0.04,0.33-0.07,0.45-0.08
	c0.14-0.02,0.3-0.03,0.46-0.03c0.33,0,0.6,0.05,0.83,0.14c0.24,0.1,0.45,0.24,0.6,0.41c0.15,0.17,0.26,0.36,0.33,0.58
	c0.06,0.2,0.09,0.41,0.09,0.62c0,0.28-0.04,0.55-0.13,0.81l-0.21,0.63l-1.74,6.94l-0.08,0.97c-0.03,0.35-0.09,0.68-0.18,0.98
	l-0.1,0.31c-0.06,0.17-0.15,0.34-0.27,0.49c-0.12,0.15-0.27,0.28-0.45,0.39C315.27,432.68,315.01,432.75,314.72,432.75z
	 M314.99,422.12c-0.35,0.01-0.7,0.08-1.05,0.22c-0.4,0.15-0.79,0.36-1.17,0.62c-0.38,0.26-0.74,0.58-1.09,0.94
	c-0.35,0.36-0.67,0.76-0.95,1.17c-0.28,0.41-0.53,0.84-0.74,1.28c-0.2,0.43-0.36,0.86-0.47,1.28c-0.04,0.12-0.07,0.28-0.11,0.49
	c-0.03,0.2-0.05,0.41-0.05,0.61c0,0.18,0.03,0.34,0.08,0.48c0.33-0.02,0.6-0.08,0.86-0.21c0.29-0.15,0.57-0.33,0.83-0.54
	c0.37-0.3,0.75-0.64,1.13-1.01c0.38-0.37,0.74-0.77,1.08-1.17c0.33-0.41,0.63-0.83,0.89-1.25c0.24-0.41,0.43-0.82,0.54-1.22
	c0.06-0.24,0.12-0.51,0.17-0.83c0.05-0.31,0.07-0.59,0.07-0.83C315,422.14,314.99,422.13,314.99,422.12z"/>
<path class="st1" d="M327.46,432.86c-0.65,0-1.01-0.3-1.2-0.55c-0.25-0.32-0.37-0.71-0.37-1.14c0-0.19,0.03-0.39,0.08-0.59
	c0.11-0.58,0.24-1.26,0.39-2.01c0.15-0.74,0.31-1.49,0.46-2.25c0.16-0.76,0.31-1.5,0.46-2.23c0.15-0.7,0.27-1.35,0.37-1.94
	c-0.01-0.08-0.01-0.15-0.01-0.21v-0.22c0-0.29,0.02-0.59,0.06-0.88c0.04-0.3,0.09-0.57,0.16-0.82c0.12-0.43,0.26-0.71,0.44-0.89
	c0.21-0.21,0.51-0.31,0.9-0.31c0.35,0,0.64,0.08,0.87,0.23c0.22,0.15,0.4,0.34,0.52,0.58c0.11,0.21,0.19,0.46,0.22,0.73
	c0.01,0.12,0.03,0.24,0.03,0.36c0.29-0.28,0.6-0.53,0.93-0.76c0.34-0.24,0.7-0.43,1.08-0.59c0.4-0.16,0.83-0.25,1.27-0.25
	c0.18,0,0.35,0.02,0.53,0.05c0.16,0.03,0.33,0.07,0.49,0.12c0.18,0.04,0.38,0.11,0.59,0.19c0.22,0.09,0.44,0.21,0.66,0.37
	c0.34,0.26,0.63,0.58,0.85,0.96c0.24,0.4,0.36,0.82,0.36,1.25c0,0.19-0.04,0.38-0.11,0.58c-0.07,0.2-0.16,0.38-0.28,0.55
	c-0.12,0.17-0.27,0.31-0.44,0.43c-0.2,0.14-0.43,0.21-0.67,0.21c-0.2,0-0.43-0.05-0.7-0.14c-0.27-0.1-0.51-0.23-0.69-0.39
	c-0.09-0.08-0.18-0.18-0.27-0.31c-0.07-0.11-0.14-0.21-0.2-0.32l-0.14-0.23l-0.03,0c-0.37,0-0.72,0.09-1.06,0.28
	c-0.37,0.21-0.72,0.47-1.05,0.77c-0.34,0.31-0.65,0.65-0.93,1.01c-0.27,0.34-0.5,0.65-0.71,0.93c-0.17,0.69-0.36,1.43-0.57,2.2
	c-0.21,0.79-0.42,1.61-0.63,2.47v0.28c0,0.27-0.01,0.55-0.03,0.84c-0.02,0.32-0.09,0.62-0.19,0.88l-0.02,0.05l-0.03,0.05
	c-0.14,0.19-0.33,0.35-0.58,0.48C328.05,432.8,327.77,432.86,327.46,432.86z"/>
<path class="st1" d="M347.91,432.81c-0.22,0-0.49-0.01-0.79-0.04c-0.31-0.03-0.63-0.09-0.97-0.17c-0.34-0.09-0.68-0.22-1.01-0.38
	c-0.35-0.18-0.66-0.41-0.93-0.69c-0.27-0.29-0.49-0.64-0.66-1.06c-0.17-0.42-0.25-0.92-0.25-1.48c0-0.35,0.04-0.72,0.11-1.13
	c-0.04-0.03-0.09-0.07-0.13-0.11c-0.19-0.19-0.29-0.45-0.29-0.77c0-0.48,0.14-0.9,0.4-1.25c0.22-0.29,0.51-0.5,0.85-0.63
	c0.1-0.18,0.22-0.39,0.38-0.65c0.21-0.34,0.48-0.72,0.78-1.12c0.31-0.4,0.66-0.81,1.06-1.21c0.4-0.41,0.85-0.79,1.34-1.13
	c0.49-0.34,1.03-0.62,1.6-0.84c0.58-0.22,1.21-0.34,1.87-0.34c0.56,0,1.06,0.07,1.48,0.21c0.44,0.14,0.81,0.35,1.1,0.61
	c0.3,0.27,0.53,0.59,0.68,0.96c0.15,0.36,0.22,0.75,0.22,1.16c0,0.34-0.05,0.68-0.14,0.99c-0.14,0.55-0.4,1.05-0.79,1.48
	c-0.37,0.4-0.8,0.76-1.29,1.06c-0.48,0.3-1.01,0.54-1.57,0.74c-0.55,0.19-1.1,0.35-1.65,0.48c-0.54,0.13-1.07,0.22-1.58,0.29
	c-0.38,0.05-0.72,0.09-1.02,0.13c-0.03,0.08-0.05,0.17-0.08,0.27c-0.05,0.21-0.07,0.41-0.07,0.6c0,0.36,0.13,0.62,0.41,0.81
	c0.32,0.23,0.8,0.34,1.42,0.34c0.38,0,0.74-0.04,1.08-0.13c0.35-0.09,0.69-0.2,1.01-0.33c0.32-0.14,0.63-0.29,0.91-0.45
	c0.29-0.17,0.55-0.33,0.79-0.49c0.33-0.22,0.66-0.41,0.96-0.57c0.35-0.18,0.68-0.27,0.97-0.27c0.5,0,0.73,0.22,0.83,0.4
	c0.1,0.18,0.15,0.37,0.15,0.58c0,0.08,0,0.16-0.01,0.24c-0.01,0.09-0.02,0.16-0.03,0.22c-0.06,0.28-0.16,0.56-0.32,0.84
	c-0.16,0.28-0.36,0.52-0.61,0.72c-0.97,0.76-1.97,1.31-2.98,1.63C350.14,432.65,349.05,432.81,347.91,432.81z M350.88,422.82
	c-0.31,0-0.62,0.08-0.92,0.25c-0.34,0.19-0.67,0.42-0.97,0.7c-0.31,0.28-0.58,0.59-0.82,0.91c-0.03,0.03-0.05,0.07-0.07,0.1
	c0.26-0.04,0.51-0.09,0.75-0.14c0.5-0.11,0.93-0.25,1.29-0.42c0.34-0.16,0.62-0.34,0.83-0.53c0.18-0.16,0.29-0.33,0.34-0.5
	l0.01-0.12c0-0.11-0.03-0.13-0.06-0.15C351.16,422.85,351.03,422.82,350.88,422.82z"/>
</svg>
