<?xml version="1.0" encoding="utf-8"?>
<!-- Generator: Adobe Illustrator 28.0.0, SVG Export Plug-In . SVG Version: 6.00 Build 0)  -->
<svg version="1.1" id="Layer_1" xmlns="http://www.w3.org/2000/svg" xmlns:xlink="http://www.w3.org/1999/xlink" x="0px" y="0px"
	 viewBox="0 0 500 500" style="enable-background:new 0 0 500 500;" xml:space="preserve">
<style type="text/css">
	.st0{fill:#2C685B;}
	.st1{fill:#6C7377;}
</style>
<g>
	<path class="st0" d="M453.6,212.93l-0.99,32.88c0,2.91-0.71,5.75-1.78,8.38l-0.43,0.99l5.47,3.2l5.47-3.2l-0.28-0.71
		c-1.21-2.91-1.92-5.89-2.06-8.95v-33.59c5.75,5.75,9.66,13.64,10.58,21.59c3.84-6.04,4.12-14.06,1.63-20.74
		c-0.85-2.2-1.78-4.26-3.05-6.18c6.6,2.34,12.78,6.18,17.47,11.43c0.14-7.32-3.84-14.13-9.52-18.68c-0.85-0.57-1.49-1.21-2.34-1.63
		c5.11-0.57,10.3-0.28,15.41,1.07c-3.84-6.18-10.87-9.8-18.18-10.58c-5.11-0.57-10.16,2.49-14.99,3.98
		c-4.83-1.49-9.87-4.55-14.99-3.98c-7.17,0.71-14.28,4.4-18.18,10.58c5.11-1.35,10.58-1.63,15.84-1.07
		c-0.85,0.57-1.49,1.07-2.34,1.63c-5.61,4.55-9.66,11.43-9.52,18.68c4.83-5.26,10.87-9.23,17.61-11.58
		c-1.21,1.92-2.34,4.12-3.05,6.32c-2.49,6.75-2.2,14.7,1.63,20.74c0.99-8.1,4.55-15.98,10.58-21.73"/>
	<path class="st0" d="M435.91,278.12l6.32-5.11c29.54-25.14,53.34-20.67,61.79-17.76c0.71,0.28,0.57,1.21-0.14,1.07
		c-8.81,0-32.88,1.49-57.88,20.88l-3.41,2.77l-7.03,5.61c-1.92,1.49-4.97,0.99-6.04-1.35c-0.71-1.35-0.57-3.2,0.57-4.4
		c0.99-1.07,2.2-1.49,3.41-1.35c0.57,0,1.07,0.14,1.63,0.43l1.07-0.85h-0.28L435.91,278.12L435.91,278.12z"/>
	<path class="st0" d="M476.04,278.12l-6.32-5.11c-29.54-25.14-53.34-20.67-61.79-17.76c-0.71,0.28-0.57,1.21,0.14,1.07
		c8.81,0,32.88,1.49,57.88,20.88l3.41,2.77l7.03,5.61c1.92,1.49,4.97,0.99,6.04-1.35c0.71-1.35,0.57-3.2-0.57-4.4
		c-0.99-1.07-2.2-1.49-3.41-1.35c-0.57,0-1.07,0.14-1.63,0.43l-1.07-0.85h0.28L476.04,278.12L476.04,278.12z"/>
	<path class="st1" d="M14.25,220.6c0,0,7.03,6.75,5.75,9.09c-0.28,0.43-1.63,0.57-3.2,0.43h-6.32c-1.07,0-3.69-0.28-3.69-3.27
		C7.08,222.73,14.25,220.67,14.25,220.6 M12.54,216.76c0,0.99-0.71,1.63-1.63,1.63c-0.92,0-1.63-0.85-1.63-1.63
		c0-0.78,0.71-1.63,1.63-1.63C11.83,215.13,12.54,215.98,12.54,216.76 M13.25,226.21c0-0.85-0.71-1.35-1.35-1.35
		s-1.35,0.71-1.35,1.35s0.71,1.35,1.35,1.35S13.25,226.85,13.25,226.21 M16.81,216.76c0,0.99-0.71,1.63-1.63,1.63
		c-0.92,0-1.63-0.85-1.63-1.63c0-0.78,0.71-1.63,1.63-1.63C16.1,215.13,16.81,215.98,16.81,216.76"/>
	<path class="st1" d="M26.89,222.94l3.27-1.35v8.81c0,2.63-1.49,4.55-3.84,4.55h-5.11l1.63-3.2h3.05c1.07,0,1.21-1.49,1.21-1.49
		c0-0.43-0.28-7.46-0.28-7.46"/>
	<path class="st1" d="M39.39,220.88c0,0,6.46,6.18,6.46,8.81c0,2.63,0,0.14,0,0.28c-0.57,2.91-2.34,4.97-4.97,4.97h-9.37l1.63-3.2
		h8.38c0.85,0,1.07-0.99,1.07-1.35c0-0.36,0-0.14,0-0.14h-6.32c-1.07,0-3.69-0.28-3.69-3.27c0.28-4.12,6.75-5.89,6.75-5.89
		 M38.96,226.21c0-0.85-0.71-1.35-1.35-1.35s-1.35,0.71-1.35,1.35s0.71,1.35,1.35,1.35S38.96,226.85,38.96,226.21"/>
	<path class="st1" d="M54.94,227.06v3.2H46v-3.2h4.55l-0.28-3.69l3.2-1.92v5.47h1.49V227.06z M50.68,218.25
		c0,0.99-0.71,1.63-1.63,1.63c-0.92,0-1.63-0.85-1.63-1.63c0-0.78,0.71-1.63,1.63-1.63C49.97,216.62,50.68,217.47,50.68,218.25"/>
	<path class="st1" d="M70.07,230.25h-3.98c-1.07,0.57-2.91,0.71-4.55,0.71c-1.63,0-3.55-0.28-4.69-0.71h-3.2v-3.2h2.34
		c0.28-1.49,1.35-5.61,5.61-5.75c2.49,0,4.83,2.91,5.47,5.75h2.77v3.2H70H70.07z M62.54,226.21c0-0.85-0.71-1.35-1.35-1.35
		s-1.35,0.71-1.35,1.35s0.71,1.49,1.35,1.49S62.54,226.99,62.54,226.21"/>
	<polygon class="st1" points="74.19,211.5 74.19,230.25 67.02,230.25 67.02,227.06 71.21,227.06 71.07,212.93 	"/>
	<path class="st1" d="M6.93,259.66l5.61-13.64h2.2l5.47,13.49c-0.43,0.28-1.78,0.57-2.34,0.43l-1.35-3.55h-5.89l-1.35,3.55
		c-0.57,0-1.63,0-2.2-0.43 M11.19,254.4h4.4l-2.2-5.75L11.19,254.4L11.19,254.4z"/>
	<path class="st1" d="M21.35,245.38c0.57-0.43,1.35-0.71,2.34-0.71v15.13c-0.57,0.28-1.35,0.14-1.92,0c0,0-0.28-12.36-0.43-14.56"/>
	<path class="st1" d="M31.72,260.08c0,0,0-8.1-0.28-13.21c0.57-0.43,1.35-0.71,2.34-0.71l4.69,6.75l4.26-6.04
		c0.57-0.43,1.35-0.71,2.34-0.71v13.78c-0.57,0.14-1.35,0.28-2.06,0c0,0,0-5.47-0.14-10.16l-3.84,5.4h-1.21l-3.98-5.75v10.44
		c-0.57,0.14-1.35,0.28-2.06,0"/>
	<path class="st1" d="M47.13,257.31c0-2.06,1.78-3.05,4.26-3.05h2.2v-0.43c0-1.63-1.35-1.92-2.63-1.92s-2.2,0.43-2.91,0.85
		c-0.28-0.28-0.85-1.07-0.85-1.63c1.07-0.57,2.77-0.99,4.12-0.99c2.34,0,4.26,0.85,4.26,3.69v6.04h-1.78v-0.85
		c-0.99,0.57-1.78,1.07-2.49,1.07c-2.49,0-4.12-1.07-4.12-3.05 M53.59,258.17v-2.49c-1.78-0.14-3.2,0-4.12,0.28
		c0,0.28-0.14,0.57-0.14,0.85c0,1.21,1.07,1.49,2.49,1.49c1.42,0,1.07,0,1.92-0.28"/>
	<path class="st1" d="M64.67,259.09c-0.99,0.57-1.92,1.07-2.49,1.07c-3.2,0-5.11-1.92-5.11-4.83s2.06-5.26,5.47-5.26
		c3.41,0,1.21,0,1.78,0.14l-0.28-4.97c0.57-0.43,1.35-0.71,2.34-0.71v15.13h-1.49c0,0,0-0.43-0.14-0.99 M64.67,257.88l-0.28-5.61
		c-0.57-0.28-1.49-0.43-2.34-0.43c-0.85,0-1.78,0.28-2.2,0.57c-0.43,0.57-0.71,1.21-0.71,2.34c0,2.34,1.35,3.41,3.55,3.41
		c2.2,0,1.35-0.14,1.92-0.43"/>
	<path class="st1" d="M68.15,246.31c0,0,0.85-0.99,2.06-1.49c0.71,0.99,1.49,2.06,1.49,2.06l-2.06,1.49L68.15,246.31L68.15,246.31z
		 M68.86,250.71c0.57-0.28,1.49-0.43,2.2-0.43v9.66c-0.43,0.28-1.35,0.14-1.92,0C69.15,259.94,69.01,252.91,68.86,250.71"/>
	<path class="st1" d="M80.09,255.11c0-2.63-1.07-3.05-2.77-3.05s-1.35,0-1.78,0.28v7.46c-0.28,0-1.07,0.28-1.92,0l-0.28-9.23
		c0.43-0.28,1.35-0.43,1.92-0.43v0.99c0.99-0.57,1.92-1.07,2.49-1.07c2.63,0,4.4,1.07,4.4,3.98v5.75c-0.43,0.14-1.07,0.28-2.06,0
		v-4.83L80.09,255.11L80.09,255.11z"/>
	<path class="st1" d="M83.85,257.31c0-2.06,1.78-3.05,4.26-3.05h2.2v-0.43c0-1.63-1.35-1.92-2.63-1.92c-1.28,0-2.2,0.43-2.91,0.85
		c-0.28-0.28-0.85-1.07-0.85-1.63c1.07-0.57,2.77-0.99,4.12-0.99c2.34,0,4.26,0.85,4.26,3.69v6.04h-1.78v-0.85
		c-0.99,0.57-1.78,1.07-2.49,1.07c-2.49,0-4.12-1.07-4.12-3.05 M90.45,258.17v-2.49c-1.78-0.14-3.2,0-4.12,0.28
		c0,0.28-0.14,0.57-0.14,0.85c0,1.21,1.07,1.49,2.49,1.49c1.42,0,1.07,0,1.92-0.28"/>
	<path class="st1" d="M94.57,245.38c0.57-0.43,1.35-0.71,2.34-0.71v6.32c0.85-0.57,1.78-0.99,2.2-0.99c2.63,0,4.4,1.07,4.4,3.98
		v5.75c-0.43,0.14-1.07,0.28-2.06,0v-4.83c0-2.63-1.07-3.05-2.77-3.05c-1.7,0-1.21,0-1.78,0.28v7.6c-0.57,0.28-1.35,0.14-1.78,0
		c0,0-0.14-10.44-0.43-14.56"/>
	<path class="st1" d="M115.03,254.33h-1.78v5.61c-0.57,0.28-1.35,0.28-2.06,0c0,0,0-8.52-0.28-13.35c0.71-0.43,3.05-0.57,4.4-0.57
		c3.69,0,5.4,1.35,5.4,3.98s-0.99,3.41-3.27,3.98l4.4,5.75c-0.28,0.28-2.06,0.28-2.63,0.28l-3.98-5.75h-0.14L115.03,254.33z
		 M113.25,252.34h2.2c0.99,0,1.63,0,2.2-0.28c0.43-0.43,0.71-0.99,0.71-1.92c0-1.63-1.21-2.2-3.05-2.2h-2.06L113.25,252.34
		L113.25,252.34z"/>
	<path class="st1" d="M122.06,255.4c0-3.05,1.92-5.26,5.11-5.26c3.2,0,4.55,1.92,4.26,5.4h-7.32c0.28,1.78,1.35,2.77,3.41,2.77
		s2.06-0.28,2.91-0.71c0.43,0.28,0.71,1.21,0.71,1.78c-1.21,0.71-2.91,0.85-3.84,0.85c-3.55,0-5.26-2.2-5.26-4.97 M123.98,254.05
		h5.4c0-1.63-1.21-2.34-2.77-2.34c-1.56,0-1.35,0.14-1.92,0.43C124.4,252.56,124.12,253.12,123.98,254.05"/>
	<path class="st1" d="M132.93,264.06c0-0.57,0.28-1.63,0.71-2.06c0.99,0.71,2.34,0.99,3.55,0.99s1.78,0,2.49-0.57
		c0.28-0.43,0.43-1.21,0.43-2.63v-0.99c-0.99,0.57-1.92,1.07-2.49,1.07c-3.2,0-5.11-1.92-5.11-4.97c0-3.05,2.06-5.11,5.4-5.11
		c3.34,0,2.91,0.28,4.12,0.71v9.37c0,3.84-2.06,4.83-4.97,4.83c-2.91,0-3.27-0.28-4.26-0.85 M140.24,257.88v-5.47
		c-0.71-0.28-1.63-0.43-2.49-0.43s-1.78,0.28-2.2,0.57c-0.28,0.43-0.71,1.21-0.71,2.34c0,2.34,1.35,3.41,3.55,3.41
		S139.6,258.31,140.24,257.88"/>
	<path class="st1" d="M143.79,246.31c0,0,0.85-0.99,2.06-1.49c0.71,0.99,1.49,2.06,1.49,2.06l-2.06,1.49L143.79,246.31
		L143.79,246.31z M144.36,250.71c0.57-0.28,1.49-0.43,2.2-0.43v9.66c-0.43,0.28-1.35,0.14-1.92,0
		C144.64,259.94,144.5,252.91,144.36,250.71"/>
	<path class="st1" d="M148.19,255.25c0-2.91,1.63-5.11,4.83-5.11s4.83,2.06,4.83,5.11c0,3.05-1.63,5.11-4.83,5.11
		S148.19,258.31,148.19,255.25 M154.8,258.31c0.71-0.57,0.99-1.63,0.99-3.05c0-2.06-1.07-3.27-2.77-3.27c-1.7,0-1.07,0-1.63,0.14
		c-0.57,0.57-0.99,1.78-0.99,3.2c0,2.06,1.07,3.27,2.91,3.27C155.15,258.59,154.37,258.59,154.8,258.31"/>
	<path class="st1" d="M166.23,255.11c0-2.63-1.07-3.05-2.77-3.05c-1.7,0-1.35,0-1.78,0.28v7.46c-0.28,0-1.07,0.28-1.92,0l-0.28-9.23
		c0.43-0.28,1.35-0.43,1.92-0.43v0.99c0.99-0.57,1.92-1.07,2.49-1.07c2.63,0,4.4,1.07,4.4,3.98v5.75c-0.43,0.14-1.07,0.28-2.06,0
		v-4.83L166.23,255.11L166.23,255.11z"/>
	<path class="st1" d="M176.11,259.94c0,0,0-8.24-0.28-13.21c0.43-0.28,1.35-0.57,3.41-0.57h1.63c4.83,0,6.75,3.05,6.75,7.03
		c0,3.98-2.06,6.75-6.75,6.75h-4.83L176.11,259.94z M178.17,258.02h2.77c0.99,0,2.49,0,3.05-0.57c0.71-0.85,1.35-2.34,1.35-4.4
		s-1.21-5.11-4.55-5.11h-2.63v10.01L178.17,258.02L178.17,258.02z"/>
	<path class="st1" d="M188.89,255.4c0-3.05,1.92-5.26,5.11-5.26s4.55,1.92,4.26,5.4h-7.32c0.28,1.78,1.35,2.77,3.41,2.77
		c2.06,0,2.06-0.28,2.91-0.71c0.43,0.28,0.71,1.21,0.71,1.78c-1.21,0.71-2.91,0.85-3.84,0.85c-3.55,0-5.26-2.2-5.26-4.97
		 M191.02,254.05h5.4c0-1.63-1.21-2.34-2.77-2.34s-1.35,0.14-1.92,0.43C191.45,252.56,191.16,253.12,191.02,254.05"/>
	<path class="st1" d="M198.55,250.71c0.28-0.28,1.63-0.57,2.2-0.43l2.91,7.32l3.05-7.32c0.43,0,1.63,0,1.92,0.43l-3.98,9.23h-2.06
		l-3.84-9.23H198.55L198.55,250.71z"/>
	<path class="st1" d="M208.85,255.4c0-3.05,1.92-5.26,5.11-5.26c3.2,0,4.55,1.92,4.26,5.4h-7.32c0.28,1.78,1.35,2.77,3.41,2.77
		c2.06,0,2.06-0.28,2.91-0.71c0.43,0.28,0.71,1.21,0.71,1.78c-1.21,0.71-2.91,0.85-3.84,0.85c-3.55,0-5.26-2.2-5.26-4.97
		 M210.76,254.05h5.4c0-1.63-1.21-2.34-2.77-2.34c-1.56,0-1.35,0.14-1.92,0.43C211.19,252.56,210.91,253.12,210.76,254.05"/>
	<path class="st1" d="M219.86,245.38c0.57-0.43,1.35-0.71,2.34-0.71v15.13c-0.57,0.28-1.35,0.14-1.92,0c0,0-0.28-12.36-0.43-14.56"
		/>
	<path class="st1" d="M223.83,255.25c0-2.91,1.63-5.11,4.83-5.11c3.2,0,4.83,2.06,4.83,5.11c0,3.05-1.63,5.11-4.83,5.11
		C225.47,260.37,223.83,258.31,223.83,255.25 M230.3,258.31c0.71-0.57,0.99-1.63,0.99-3.05c0-2.06-1.07-3.27-2.77-3.27
		s-1.07,0-1.63,0.14c-0.71,0.57-0.99,1.78-0.99,3.2c0,2.06,1.07,3.27,2.91,3.27S229.87,258.59,230.3,258.31"/>
	<path class="st1" d="M235.12,250.71c0.43-0.28,1.21-0.57,1.78-0.43v0.85c0.85-0.57,1.78-1.07,2.34-1.07c3.2,0,5.11,1.92,5.11,4.83
		c0,2.91-2.06,5.26-5.47,5.26c-3.41,0-1.35,0-1.92-0.28v4.69c-0.57,0.28-1.21,0.43-2.06,0.43v-14.42l0.28,0.28L235.12,250.71z
		 M237.04,252.34v5.61c0.57,0.28,1.49,0.43,2.34,0.43s1.78-0.28,2.2-0.43c0.43-0.57,0.71-1.21,0.71-2.34c0-2.34-1.35-3.41-3.55-3.41
		c-2.2,0-1.21,0.14-1.63,0.28"/>
	<path class="st1" d="M251.33,254.97c0-2.49-0.71-2.91-2.2-2.91s-1.35,0-1.78,0.28v7.46c-0.28,0-1.07,0.28-1.92,0
		c0,0,0-7.46-0.14-9.23c0.43-0.28,1.35-0.43,1.92-0.43v0.85c0.99-0.57,1.92-1.07,2.49-1.07c1.35,0,2.49,0.43,3.2,1.21
		c1.07-0.71,2.2-1.21,2.91-1.21c2.34,0,3.84,0.99,3.84,3.98v5.75c-0.43,0.14-1.07,0.28-2.06,0v-5.11c0-2.49-0.71-2.91-2.2-2.91
		c-1.49,0-1.35,0.14-1.92,0.43c0,0.43,0.14,0.99,0.14,1.49v5.75c-0.43,0.14-1.07,0.28-2.06,0v-5.11l-0.14,0.71L251.33,254.97z"/>
	<path class="st1" d="M260.99,255.4c0-3.05,1.92-5.26,5.11-5.26s4.55,1.92,4.26,5.4h-7.32c0.28,1.78,1.35,2.77,3.41,2.77
		c2.06,0,2.06-0.28,2.91-0.71c0.43,0.28,0.71,1.21,0.71,1.78c-1.21,0.71-2.91,0.85-3.84,0.85c-3.55,0-5.26-2.2-5.26-4.97
		 M262.91,254.05h5.4c0-1.63-1.21-2.34-2.77-2.34c-1.56,0-1.35,0.14-1.92,0.43C263.33,252.56,263.05,253.12,262.91,254.05"/>
	<path class="st1" d="M278.74,255.11c0-2.63-1.07-3.05-2.77-3.05s-1.35,0-1.78,0.28v7.46c-0.28,0-1.07,0.28-1.92,0l-0.28-9.23
		c0.43-0.28,1.35-0.43,1.92-0.43v0.99c0.99-0.57,1.92-1.07,2.49-1.07c2.63,0,4.4,1.07,4.4,3.98v5.75c-0.43,0.14-1.07,0.28-2.06,0
		v-4.83L278.74,255.11L278.74,255.11z"/>
	<path class="st1" d="M281.73,250.42h2.2v-2.91c0.43-0.43,1.35-0.71,2.06-0.57v3.41h3.55v1.78h-3.55v3.27
		c0,1.78,0.57,2.34,1.63,2.34h1.92c0.14,0.43,0,1.63,0,1.92h-1.78c-2.77,0-3.41-1.63-3.55-3.84v-3.84h-2.34
		c-0.14-0.43-0.14-1.35,0-1.78"/>
	<path class="st1" d="M295.5,259.66l5.61-13.64h2.2l5.47,13.49c-0.43,0.28-1.78,0.57-2.34,0.43l-1.35-3.55h-5.89l-1.35,3.55
		c-0.57,0-1.63,0-2.2-0.43 M299.91,254.4h4.4l-2.2-5.75L299.91,254.4L299.91,254.4z"/>
	<path class="st1" d="M316.31,259.23c-0.99,0.57-1.92,1.07-2.49,1.07c-2.63,0-4.12-1.07-4.12-3.98v-5.61c0.28-0.14,1.07-0.28,2.06,0
		v4.97c0,2.49,0.85,2.91,2.49,2.91s1.21,0,1.78-0.28v-7.32c0.28-0.14,1.07-0.43,1.92-0.28v9.37c-0.28,0.28-1.07,0.43-1.63,0.28
		v-0.85"/>
	<path class="st1" d="M319.3,250.42h2.2v-2.91c0.43-0.43,1.35-0.71,2.06-0.57v3.41h3.55v1.78h-3.55v3.27c0,1.78,0.57,2.34,1.63,2.34
		h1.92c0.14,0.43,0,1.63,0,1.92h-1.78c-2.77,0-3.41-1.63-3.55-3.84v-3.84h-2.34c-0.14-0.43-0.14-1.35,0-1.78"/>
	<path class="st1" d="M329.1,245.38c0.57-0.43,1.35-0.71,2.34-0.71v6.32c0.85-0.57,1.78-0.99,2.2-0.99c2.63,0,4.4,1.07,4.4,3.98
		v5.75c-0.43,0.14-1.07,0.28-2.06,0v-4.83c0-2.63-1.07-3.05-2.77-3.05s-1.21,0-1.78,0.28v7.6c-0.57,0.28-1.35,0.14-1.78,0
		c0,0-0.14-10.44-0.43-14.56"/>
	<path class="st1" d="M339.4,255.25c0-2.91,1.63-5.11,4.83-5.11s4.83,2.06,4.83,5.11c0,3.05-1.63,5.11-4.83,5.11
		S339.4,258.31,339.4,255.25 M346,258.31c0.71-0.57,0.99-1.63,0.99-3.05c0-2.06-1.07-3.27-2.77-3.27s-1.07,0-1.63,0.14
		c-0.71,0.57-0.99,1.78-0.99,3.2c0,2.06,1.07,3.27,2.91,3.27C346.36,258.59,345.57,258.59,346,258.31"/>
	<path class="st1" d="M350.69,250.71c0.43-0.28,1.35-0.43,1.92-0.43v0.99c0.28-0.28,0.71-0.43,0.99-0.71
		c0.57-0.28,1.07-0.43,1.78-0.43h1.21c0.14,0.43,0,1.49,0,1.92h-1.92c-0.43,0-1.35,0.14-1.92,0.43v7.46c-0.28,0-1.07,0.28-1.92,0
		C350.83,259.94,350.83,252.48,350.69,250.71"/>
	<path class="st1" d="M357.01,246.31c0,0,0.85-0.99,2.06-1.49c0.71,0.99,1.49,2.06,1.49,2.06l-2.06,1.49L357.01,246.31
		L357.01,246.31z M357.72,250.71c0.57-0.28,1.49-0.43,2.2-0.43v9.66c-0.43,0.28-1.35,0.14-1.92,0
		C358,259.94,357.86,252.91,357.72,250.71"/>
	<path class="st1" d="M361.13,250.42h2.2v-2.91c0.43-0.43,1.35-0.71,2.06-0.57v3.41h3.55v1.78h-3.55v3.27
		c0,1.78,0.57,2.34,1.63,2.34h1.92c0.14,0.43,0,1.63,0,1.92h-1.78c-2.77,0-3.41-1.63-3.55-3.84v-3.84h-2.34
		c-0.14-0.43-0.14-1.35,0-1.78"/>
	<path class="st1" d="M368.44,263.63c2.34-0.71,4.12-1.92,4.97-3.55l-3.69-9.37c0.28-0.28,1.63-0.57,2.06-0.43l3.05,7.95
		c0.57-1.07,2.77-6.6,2.91-7.95c0.43,0,1.49,0,1.78,0.43c0,1.21-2.49,7.17-3.05,8.24c-1.49,3.27-3.84,5.26-6.04,6.18
		c-1.07-0.14-1.63-0.99-2.06-1.49"/>
	<path class="st1" d="M76.96,225.71l-0.28-12.78l3.2-1.35v14.13c0,1.78,0.99,2.63,1.35,3.05c-0.28,0.28-1.07,1.49-1.63,2.06
		c-2.77-0.57-2.77-3.98-2.77-5.11"/>
	<path class="st1" d="M100.04,227.06v3.2H89.18c-1.21-0.43-2.06-1.92-2.06-3.84c0-3.05,2.06-4.83,5.4-4.83c3.34,0,1.63,0,2.63,0.28
		v-1.78l3.05-1.92v8.81h2.06l-0.14,0.14L100.04,227.06z M89.18,215.91c0-0.99,0.71-1.63,1.63-1.63s1.63,0.71,1.63,1.63
		s-0.71,1.63-1.63,1.63S89.18,216.83,89.18,215.91 M95.21,225.85c0-0.85-0.71-1.49-1.49-1.49s-1.49,0.71-1.49,1.49
		s0.71,1.49,1.49,1.49S95.21,226.63,95.21,225.85 M93.44,215.91c0-0.99,0.71-1.63,1.63-1.63s1.63,0.71,1.63,1.63
		s-0.71,1.63-1.63,1.63S93.44,216.83,93.44,215.91"/>
	<path class="st1" d="M108.07,227.06v3.2h-8.95v-3.2h4.55l-0.28-3.69l3.2-1.92v5.47h1.49V227.06z M103.88,218.25
		c0,0.99-0.71,1.63-1.63,1.63c-0.92,0-1.63-0.85-1.63-1.63c0-0.78,0.71-1.63,1.63-1.63C103.17,216.62,103.88,217.47,103.88,218.25"
		/>
	<path class="st1" d="M116.87,230.25h-10.01v-3.2h7.17l-0.28-3.69l3.2-1.92v8.81L116.87,230.25z M111.62,233.81
		c0,0.99-0.71,1.63-1.63,1.63c-0.92,0-1.63-0.85-1.63-1.63c0-0.78,0.71-1.63,1.63-1.63C110.91,232.17,111.62,233.02,111.62,233.81
		 M115.88,233.81c0,0.99-0.71,1.63-1.63,1.63c-0.92,0-1.63-0.85-1.63-1.63c0-0.78,0.71-1.63,1.63-1.63
		C115.17,232.17,115.88,233.02,115.88,233.81"/>
	<path class="st1" d="M138.32,227.06h2.06v3.2h-21.73l1.63-3.2h14.7c-0.14-0.28-0.57-1.92-1.92-1.92h-11.72l1.63-3.2h10.3
		c1.49,0,3.05,0.71,3.98,2.77c0.43,0.85,0.71,1.63,1.07,2.2"/>
	<path class="st1" d="M154.94,230.25h-3.98c-1.07,0.57-2.91,0.71-4.55,0.71c-1.63,0-3.55-0.28-4.69-0.71h-3.2v-3.2h2.34
		c0.28-1.49,1.35-5.61,5.61-5.75c2.49,0,4.83,2.91,5.47,5.75h2.77v3.2H154.94L154.94,230.25z M147.41,226.21
		c0-0.85-0.71-1.35-1.35-1.35s-1.35,0.71-1.35,1.35s0.71,1.49,1.35,1.49S147.41,226.99,147.41,226.21"/>
	<polygon class="st1" points="159.06,211.5 159.06,230.25 151.89,230.25 151.89,227.06 156.08,227.06 155.94,212.93 	"/>
	<path class="st1" d="M161.97,225.71l-0.28-12.78l3.2-1.35v14.13c0,1.78,0.99,2.63,1.35,3.05c-0.28,0.28-1.07,1.49-1.63,2.06
		c-2.77-0.57-2.77-3.98-2.77-5.11"/>
	<path class="st1" d="M184.91,227.06v3.2h-10.87c-1.21-0.43-2.2-1.92-2.2-3.84c0-3.05,2.06-4.83,5.4-4.83c3.34,0,1.63,0,2.63,0.28
		v-1.78l3.05-1.92v8.81h2.06v0.14L184.91,227.06z M174.19,215.91c0-0.99,0.71-1.63,1.63-1.63s1.63,0.71,1.63,1.63
		s-0.71,1.63-1.63,1.63S174.19,216.83,174.19,215.91 M180.08,225.85c0-0.85-0.71-1.49-1.49-1.49s-1.49,0.71-1.49,1.49
		s0.71,1.49,1.49,1.49S180.08,226.63,180.08,225.85 M178.31,215.91c0-0.99,0.71-1.63,1.63-1.63s1.63,0.71,1.63,1.63
		s-0.71,1.63-1.63,1.63S178.31,216.83,178.31,215.91"/>
	<path class="st1" d="M201.6,227.06v3.2h-19.67v-3.2h12.93c0.43,0,0.85-0.57,0.85-1.07s-0.14-0.57-0.57-0.57h-5.89
		c-0.85,0-3.27-0.57-3.27-3.05c0-2.49,1.78-4.4,3.69-5.4c1.21-0.71,3.27-0.71,3.27-0.71s5.75,4.69,5.75,9.66s0,0.71-0.28,1.07
		L201.6,227.06L201.6,227.06L201.6,227.06z M190.17,213c0,0.99-0.71,1.63-1.63,1.63s-1.63-0.71-1.63-1.63
		c0-0.92,0.71-1.63,1.63-1.63S190.17,212.07,190.17,213 M191.8,221.31c0-0.85-0.71-1.49-1.35-1.49s-1.35,0.71-1.35,1.49
		s0.71,1.35,1.35,1.35S191.8,221.95,191.8,221.31 M194.43,213c0,0.99-0.71,1.63-1.63,1.63c-0.92,0-1.63-0.71-1.63-1.63
		c0-0.92,0.71-1.63,1.63-1.63C193.72,211.36,194.43,212.07,194.43,213"/>
	<path class="st1" d="M228.02,230.25h-29.05v-3.2h3.41V213l3.2-1.35v10.44h16.12l3.41,5.11h2.77v3.2L228.02,230.25L228.02,230.25z
		 M221.42,227.06l-1.35-1.92h-14.42v1.92H221.42L221.42,227.06z"/>
	<path class="st1" d="M234.98,227.06v3.2h-8.95v-3.2h4.55l-0.28-3.69l3.2-1.92v5.47h1.49V227.06z M230.86,218.25
		c0,0.99-0.71,1.63-1.63,1.63c-0.92,0-1.63-0.85-1.63-1.63c0-0.78,0.71-1.63,1.63-1.63C230.15,216.62,230.86,217.47,230.86,218.25"
		/>
	<path class="st1" d="M247.77,228.41c0,1.78-2.91,2.49-5.89,2.49c-2.98,0-3.55-0.28-4.69-0.71h-3.41v-3.2h2.63
		c0.28-1.49,1.49-5.61,5.75-5.75c2.2,0,4.12,2.06,5.26,4.55c0.28,0.71,0.57,1.78,0.57,2.63 M242.72,226.21
		c0-0.85-0.71-1.35-1.35-1.35s-1.35,0.71-1.35,1.35s0.71,1.49,1.35,1.49S242.72,226.99,242.72,226.21"/>
	<path class="st1" d="M264.25,227.06v3.2h-2.91c0,2.77-1.49,4.69-3.84,4.69h-5.11l1.63-3.2h3.05c1.21,0,1.21-1.49,1.21-1.49
		c0-0.57-0.28-7.46-0.28-7.46l3.2-1.35v5.47h2.91L264.25,227.06L264.25,227.06z"/>
	<path class="st1" d="M271.57,230.25h-10.01v-3.2h7.17l-0.28-3.69l3.2-1.92L271.57,230.25L271.57,230.25z M266.31,233.81
		c0,0.99-0.71,1.63-1.63,1.63s-1.63-0.85-1.63-1.63c0-0.78,0.71-1.63,1.63-1.63S266.31,233.02,266.31,233.81 M270.58,233.81
		c0,0.99-0.71,1.63-1.63,1.63c-0.92,0-1.63-0.85-1.63-1.63c0-0.78,0.71-1.63,1.63-1.63C269.87,232.17,270.58,233.02,270.58,233.81"
		/>
	<path class="st1" d="M281.37,220.88c0,0,6.32,6.18,6.32,8.81c0,2.63,0,0.14,0,0.28c-0.57,2.91-2.34,4.97-4.97,4.97h-9.37l1.63-3.2
		h8.38c0.85,0,1.07-0.99,1.07-1.35c0-0.36,0-0.14,0-0.14h-6.32c-1.07,0-3.69-0.28-3.69-3.27c0.28-4.12,6.75-5.89,6.75-5.89
		 M280.94,226.21c0-0.85-0.71-1.35-1.35-1.35c-0.64,0-1.35,0.71-1.35,1.35s0.71,1.35,1.35,1.35
		C280.23,227.56,280.94,226.85,280.94,226.21"/>
	<path class="st1" d="M316.53,230.25h-29.05v-3.2h3.41V213l3.2-1.35v10.44h16.12l3.41,5.11h2.77v3.2L316.53,230.25L316.53,230.25z
		 M309.92,227.06l-1.35-1.92h-14.42v1.92H309.92L309.92,227.06z"/>
	<path class="st1" d="M324.13,230.25h-10.01v-3.2h7.17v-3.69c-0.14,0,3.05-1.92,3.05-1.92v8.66L324.13,230.25L324.13,230.25z
		 M320.01,218.25c0,0.99-0.71,1.63-1.63,1.63c-0.92,0-1.63-0.85-1.63-1.63c0-0.78,0.71-1.63,1.63-1.63
		C319.3,216.62,320.01,217.47,320.01,218.25 M324.13,218.25c0,0.99-0.71,1.63-1.63,1.63c-0.92,0-1.63-0.85-1.63-1.63
		c0-0.78,0.71-1.63,1.63-1.63C323.42,216.62,324.13,217.47,324.13,218.25"/>
	<path class="st1" d="M343.8,227.06v3.2h-10.87c-1.21-0.43-2.06-1.92-2.06-3.84c0-3.05,2.06-4.83,5.4-4.83c3.34,0,1.63,0,2.63,0.28
		v-1.78l3.05-1.92v8.81h2.06l-0.14,0.14L343.8,227.06z M332.93,215.91c0-0.99,0.71-1.63,1.63-1.63c0.92,0,1.63,0.71,1.63,1.63
		s-0.71,1.63-1.63,1.63C333.64,217.54,332.93,216.83,332.93,215.91 M338.83,225.85c0-0.85-0.71-1.49-1.49-1.49s-1.49,0.71-1.49,1.49
		s0.71,1.49,1.49,1.49S338.83,226.63,338.83,225.85 M337.19,215.91c0-0.99,0.71-1.63,1.63-1.63c0.92,0,1.63,0.71,1.63,1.63
		s-0.71,1.63-1.63,1.63C337.9,217.54,337.19,216.83,337.19,215.91"/>
	<path class="st1" d="M351.11,227.06h2.34v3.2h-11.01v-3.2h5.75l-0.28-2.77l3.05-1.78v4.55H351.11L351.11,227.06z M350.83,221.59
		h-6.04v-1.63h1.49c0-0.14-0.28-0.71-0.28-0.99c0-1.63,1.49-2.49,2.34-2.49c0.85,0,1.35,0.28,1.63,0.43l-0.57,0.71h-0.14
		c-0.71,0-1.21,0.57-1.21,1.21s0.43,1.21,1.21,1.21h1.49v1.49l0,0L350.83,221.59z"/>
	<path class="st1" d="M363.05,227.06v3.2h-11.58v-3.2h7.17l-0.28-3.69l3.2-1.92v5.47h1.49L363.05,227.06L363.05,227.06z
		 M356.3,233.81c0,0.99-0.71,1.63-1.63,1.63s-1.63-0.85-1.63-1.63c0-0.78,0.71-1.63,1.63-1.63S356.3,233.02,356.3,233.81
		 M360.56,233.81c0,0.99-0.71,1.63-1.63,1.63c-0.92,0-1.63-0.85-1.63-1.63c0-0.78,0.71-1.63,1.63-1.63
		C359.85,232.17,360.56,233.02,360.56,233.81"/>
	<path class="st1" d="M379.45,227.77c0.85,1.92-0.71,2.49-0.71,2.49h-17.76v-3.2h3.84c-0.85-0.28-0.28-2.49,0-2.91
		c0.57-1.21,1.63-2.49,3.05-4.26l-0.57-0.71l2.49-2.34c0,0,9.66,10.44,9.8,10.87 M369.65,224.29c0-0.71-0.57-1.35-1.35-1.35
		c-0.78,0-1.21,0.57-1.21,1.35s0.57,1.35,1.21,1.35C368.94,225.64,369.65,225.07,369.65,224.29 M373.91,225.85
		c0-0.71-0.57-1.35-1.21-1.35c-0.64,0-1.21,0.57-1.21,1.35s0.57,1.35,1.21,1.35C373.34,227.2,373.91,226.63,373.91,225.85"/>
	<path class="st1" d="M397.42,283.45c0.28-3.84,0.43-7.81,0.71-11.72v-70.17l-0.71-11.72l-0.71,11.72v70.17
		C396.99,275.57,397.14,279.54,397.42,283.45"/>
</g>
</svg>
