<?xml version="1.0" encoding="utf-8"?>
<!-- Generator: Adobe Illustrator 28.0.0, SVG Export Plug-In . SVG Version: 6.00 Build 0)  -->
<svg version="1.1" id="Layer_1" xmlns="http://www.w3.org/2000/svg" xmlns:xlink="http://www.w3.org/1999/xlink" x="0px" y="0px"
	 viewBox="0 0 500 500" style="enable-background:new 0 0 500 500;" xml:space="preserve">
<style type="text/css">
	.st0{fill-rule:evenodd;clip-rule:evenodd;fill:#02C4B3;}
	.st1{fill-rule:evenodd;clip-rule:evenodd;fill:#087D78;}
	.st2{fill-rule:evenodd;clip-rule:evenodd;fill:#BEDEFD;}
	.st3{fill-rule:evenodd;clip-rule:evenodd;fill:#436285;}
	.st4{fill:#01C4B3;}
	.st5{font-family:'29LTAzerBold';}
	.st6{font-size:110.7169px;}
</style>
<g>
	<g>
		<path class="st0" d="M258.68,326.3c-1.31,0.04-2.61,0.06-3.92,0.06c-75.21,0-136.27-61.06-136.27-136.27
			c0-75.21,61.06-136.27,136.27-136.27s136.27,61.06,136.27,136.27c0,1.31-0.02,2.61-0.06,3.92
			c-2.02-69.18-58.81-124.72-128.48-124.72c-70.94,0-128.53,57.59-128.53,128.53C133.96,267.48,189.5,324.28,258.68,326.3z"/>
		<polygon class="st1" points="259.56,92.62 264.67,208.78 254.45,208.78 		"/>
		<polygon class="st2" points="259.56,90.93 264.67,98.96 254.45,98.96 		"/>
		<polygon class="st1" points="334.43,206 256.44,211.11 256.44,200.89 		"/>
		<polygon class="st2" points="338.98,206 330.95,211.11 330.95,200.89 		"/>
		<path class="st3" d="M259.6,198.21c4.34,0,7.87,3.52,7.87,7.87c0,4.34-3.53,7.87-7.87,7.87c-4.34,0-7.87-3.53-7.87-7.87
			C251.73,201.73,255.26,198.21,259.6,198.21z"/>
	</g>
	<text transform="matrix(1 0 0 1 116.638 452.3936)" class="st4 st5 st6">كــتــقو</text>
</g>
</svg>
