<?xml version="1.0" encoding="utf-8"?>
<!-- Generator: Adobe Illustrator 28.0.0, SVG Export Plug-In . SVG Version: 6.00 Build 0)  -->
<svg version="1.1" id="Layer_1" xmlns="http://www.w3.org/2000/svg" xmlns:xlink="http://www.w3.org/1999/xlink" x="0px" y="0px"
	 viewBox="0 0 500 500" style="enable-background:new 0 0 500 500;" xml:space="preserve">
<style type="text/css">
	.st0{fill:#194D8C;}
</style>
<g>
	<path class="st0" d="M212.16,345.7c-0.85-0.29-3.41-2.21-7.68-5.76c-4.27-3.56-7.47-5.34-9.6-5.34c-2.13,0-7.19,5.69-15.15,17.07
		l-5.55-4.7c-10.82-7.68-17.5-11.53-20.06-11.53c-0.57-0.29-2.42,1.56-5.55,5.55c-1.71,1.71-3.28,3.69-4.7,5.98
		c-1.43,1.71-2.5,3.34-3.2,4.91c-0.71,1.56-1.35,2.63-1.92,3.2v2.56c0,2.56,0.71,4.48,2.14,5.76c1.42,1.28,5.19,4.06,11.31,8.32
		c6.12,4.27,9.6,6.4,10.46,6.4c4.55,0.57,9.39-5.55,14.51-18.36c3.41,2.28,9.53,6.83,18.36,13.66c2.56,2.28,5.4,3.13,8.54,2.56
		c4.84-0.57,9.39-5.83,13.66-15.79c1.14-2.56,1.71-4.56,1.71-5.98C219.69,351.68,217.28,348.83,212.16,345.7"/>
	<path class="st0" d="M288.12,176.71c6.83,4.7,11.95,7.04,15.37,7.04c3.41,0,6.97-2.91,10.67-8.75c3.69-5.83,5.12-10.03,4.27-12.59
		c-1.14-2.84-5.06-6.4-11.74-10.67c-6.69-4.27-10.46-6.4-11.31-6.4c-2.85,0-6.48,3.2-10.88,9.6c-4.41,6.4-6.62,10.74-6.62,13.02
		C277.88,169.1,281.3,172.02,288.12,176.71"/>
	<path class="st0" d="M399.85,189.17c3.36-3.58,6.27-7.17,8.75-10.76c2.24-3.81,3.47-6.16,3.7-7.06c0.45-1.35,1.57-1.23,3.36,0.33
		l1.68,1.01c0.67,0,1.57-1.23,2.69-3.7c0.67-2.02,1.12-4.37,1.34-7.06c-0.23-0.45-1.57-1.68-4.04-3.7v-0.67l0.33-8.74
		c-1.12-11.21-4.03-17.6-8.74-19.17c-2.91-1.12-6.5,1.91-10.76,9.08c-3.81,6.51-5.16,11.89-4.04,16.14c0.45,2.25,3.7,5.27,9.75,9.08
		c4.04,1.8,5.88,3.31,5.55,4.54c-0.34,1.24-2.41,3.76-6.22,7.57c-1.8,2.02-3.58,3.7-5.38,5.04c-2.91,2.24-6.05,4.6-9.41,7.06
		c-8.52,6.05-12.78,9.31-12.78,9.75v0.67c3.82,0,8.41-1.01,13.79-3.03C393.91,193.99,397.39,191.86,399.85,189.17 M405.23,151.84
		c-3.82-2.47-5.72-4.59-5.72-6.39c-0.45-0.45-0.34-1.35,0.33-2.69c1.79-1.79,4.04-2.13,6.73-1.01c3.14,1.13,5.38,3.59,6.73,7.4
		c0.45,1.35,0.73,2.52,0.84,3.53c0.11,1.01,0.11,1.8,0,2.35c-0.11,0.56-0.39,0.84-0.84,0.84
		C412.4,155.88,409.71,154.53,405.23,151.84"/>
	<path class="st0" d="M461.47,235.31c-5.27-10.81-10.03-18.21-14.3-22.19c-3.14-2.84-6.83-4.41-11.1-4.7
		c-3.99-0.28-8.69,4.13-14.09,13.23c-4.84,6.55-7.26,10.46-7.26,11.74c0,1.28,0.43,1.92,1.28,1.92c0.85,0,3.05-0.78,6.61-2.35
		c3.56-1.56,7.32-0.35,11.31,3.63c3.98,3.99,5.98,6.55,5.98,7.68c0,1.43-0.71,2-2.14,1.71l-21.77-4.7c-3.14,0-5.76,0.79-7.9,2.35
		c-2.13,1.57-6.26,6.34-12.38,14.3c-6.12,7.97-11.81,13.66-17.07,17.07c-5.27,3.41-11.67,5.76-19.21,7.04
		c-0.55,0.09-1.08,0.19-1.6,0.29c-8.33,1.55-16.93,0.45-24.68-2.98l-0.18-0.08c-6.4-2.84-8.9-5.83-7.47-8.97l2.99-9.39
		c2.84-5.12,4.7-12.09,5.55-20.92v-6.4c0-9.1-1.35-17.29-4.05-24.55c-2.71-7.26-6.48-10.88-11.31-10.88
		c-7.4,0-16.01,5.98-25.83,17.93c-9.81,11.95-14.72,24.48-14.72,37.56c0,7.12,1.99,15.23,5.98,24.33
		c-1.71,0.57-5.34,2.07-10.88,4.48c-0.96,0.42-1.93,0.81-2.93,1.19c-6.53,2.47-13.62,3.09-20.48,1.85l-0.08-0.02
		c-5.04-0.91-15.09-2.56-29.88-7.68l-7.34-2.54c-2.4-0.83-5.03-0.62-7.27,0.57l-9.29,4.96c-12.24,6.83-21.04,13.92-27.73,13.34
		c-0.15-0.01-4.38,0.02-6.95-1.08c-3.7-1.42-8.4-4.7-14.09-9.82c-13.66-12.23-24.19-41.26-31.59-87.08
		c-2.28-14.51-3.35-23.97-3.2-28.38c0.14-4.41-0.5-6.62-1.92-6.62c-2.28,0-3.41,3.7-3.41,11.1v8.54c0,22.77,2.56,43.96,7.68,63.6
		c1.42,4.84,2.13,8.4,2.13,10.67c0,6.55-2.92,11.31-8.75,14.3c-5.84,2.99-15.16,5.91-27.96,8.75c-12.8,2.84-22.77,4.27-29.88,4.27
		c-7.12,0-12.53-1.28-16.22-3.84c-3.7-2.56-5.55-6.04-5.55-10.46c0-4.41-0.43-6.61-1.28-6.61c-2.56,0-3.91,6.55-4.06,19.63
		c-0.14,13.09,0.99,21.41,3.42,24.97c2.41,3.56,6.89,6.05,13.44,7.47h5.98c14.51,0,27.75-2.2,39.7-6.61
		c11.95-4.41,19.56-8.33,22.84-11.74c3.27-3.41,5.62-8.68,7.04-15.79c2.28-8.81,3.63-13.23,4.06-13.23c0.42,0,1.07,1.28,1.92,3.84
		c8.82,29.6,19.35,46.95,31.59,52.08c0.65,0.37,1.52,0.68,2.57,0.93c2.06,0.89,4.37,1.33,6.93,1.33c10.52,0,19.77-4.98,27.75-14.94
		c9.39-11.38,14.37-17.07,14.94-17.07c1.19,0,2.38,0.16,3.53,0.49c0.42,0.12,0.81,0.24,1.17,0.36c0.85,0.29,2.41,1.28,4.7,2.99
		l6.4,5.12c8.79,6.99,19.48,10.3,30.6,9.88c11.28-0.44,22.47-3.14,32.72-7.87c3.8-1.76,7.48-3.79,10.98-6.09
		c1.87-1.23,6.24-4.66,8.74-3.42c2.84,0.85,10.1,4.41,21.77,10.67c8.25,4.27,18.49,5.55,30.73,3.84c0.06-0.01,0.13-0.03,0.19-0.05
		c3.33-0.22,6.11-1.2,8.35-2.94c8.54-6.55,17.5-16.07,26.89-28.6c3.98-5.4,6.12-8.11,6.4-8.11c1.42-1.14,3.06-1.85,4.91-2.14
		c1.85-0.28,10.6,1.71,26.25,5.98c18.78,5.98,28.31,8.97,28.6,8.97h0.43c1.71-0.86,3.91-4.06,6.61-9.6
		c2.7-5.55,4.06-10.31,4.06-14.3C469.36,253.52,466.73,246.12,461.47,235.31 M319.97,258.57c-4.84,4.41-9.11,6.61-12.8,6.61
		c-3.7,0-8.18-2.77-13.45-8.32c-5.27-5.55-7.9-10.52-7.9-14.94c0-4.41,2.41-8.68,7.25-12.8c4.84-4.12,10.03-6.19,15.58-6.19
		c5.55,0,10.03,2.42,13.45,7.26c3.41,4.84,5.12,9.68,5.12,14.51C327.22,249.54,324.8,254.16,319.97,258.57"/>
	<path class="st0" d="M334.34,318.3c-3.35-0.76-6.48-1.86-9.34-3.34c-11.66-6.25-18.93-9.82-21.76-10.66
		c-2.49-1.25-6.86,2.18-8.74,3.42c-3.5,2.29-7.18,4.33-10.97,6.08c-1.72,0.8-6.49,3.19-8.26,3.87c1.51,3.28,18.23,3.35,22.17,0.77
		c0.28-0.2,10.39-6.75,20.58-1.28C322.75,319.6,334.75,321.17,334.34,318.3"/>
	<polygon class="st0" points="269.32,378.82 256.77,348.9 256.77,378.82 253.67,378.82 253.67,343.79 257.98,343.79 270.75,374.55 
		283.51,343.79 287.82,343.79 287.82,378.82 284.72,378.82 284.72,348.9 272.17,378.82 	"/>
	<path class="st0" d="M316.48,379.23c-2.71,0-4.97-0.38-6.8-1.13c-1.83-0.75-3.31-1.78-4.44-3.08c-1.13-1.3-1.93-2.79-2.4-4.5
		c-0.48-1.7-0.71-3.49-0.71-5.36v-21.38h3.06v20.92c0,3.88,0.89,6.78,2.68,8.7c1.78,1.93,4.66,2.89,8.62,2.89
		c3.93,0,6.79-0.96,8.58-2.87c1.78-1.91,2.68-4.82,2.68-8.72v-20.92h3.06v21.38c0,1.87-0.24,3.66-0.71,5.36
		c-0.48,1.7-1.27,3.2-2.39,4.5c-1.11,1.3-2.59,2.32-4.44,3.08C321.42,378.86,319.16,379.23,316.48,379.23"/>
	<polygon class="st0" points="345.1,378.82 345.1,343.79 365.19,343.79 365.19,346.76 348.2,346.76 348.2,359.06 363.43,359.06 
		363.43,362.12 348.2,362.12 348.2,378.82 	"/>
	<polygon class="st0" points="375.73,343.79 396.15,343.79 396.15,346.76 378.83,346.76 378.83,359.07 394.52,359.07 394.52,362.12 
		378.83,362.12 378.83,375.85 396.36,375.85 396.36,378.82 375.73,378.82 	"/>
	<polygon class="st0" points="408.58,343.79 429,343.79 429,346.76 411.67,346.76 411.67,359.07 427.36,359.07 427.36,362.12 
		411.67,362.12 411.67,375.85 429.21,375.85 429.21,378.82 408.58,378.82 	"/>
	<path class="st0" d="M441.43,343.79h7.91c2.81,0,5.42,0.37,7.8,1.11c2.39,0.74,4.46,1.86,6.24,3.35c1.77,1.49,3.15,3.33,4.14,5.5
		c0.99,2.18,1.49,4.69,1.49,7.53c0,2.84-0.5,5.36-1.49,7.55c-0.99,2.19-2.37,4.02-4.14,5.5c-1.77,1.48-3.85,2.59-6.24,3.35
		c-2.38,0.75-4.99,1.13-7.8,1.13h-7.91V343.79z M449.29,375.85c2.68,0,5.04-0.34,7.09-1.02c2.05-0.68,3.77-1.66,5.15-2.93
		c1.38-1.27,2.43-2.8,3.16-4.58c0.72-1.78,1.09-3.79,1.09-6.02c0-2.23-0.41-4.24-1.21-6.03c-0.81-1.78-1.94-3.31-3.39-4.56
		c-1.45-1.26-3.19-2.22-5.21-2.91c-2.03-0.68-4.25-1.02-6.67-1.02h-4.77v29.08H449.29z"/>
</g>
</svg>
