<?xml version="1.0" encoding="utf-8"?>
<!-- Generator: Adobe Illustrator 28.0.0, SVG Export Plug-In . SVG Version: 6.00 Build 0)  -->
<svg version="1.1" id="Layer_1" xmlns="http://www.w3.org/2000/svg" xmlns:xlink="http://www.w3.org/1999/xlink" x="0px" y="0px"
	 viewBox="0 0 500 500" style="enable-background:new 0 0 500 500;" xml:space="preserve">
<style type="text/css">
	.st0{enable-background:new    ;}
	.st1{fill:#1077B5;}
	.st2{fill:#C0E7F1;}
	.st3{fill:#6ACEF1;}
	.st4{fill:#0A76AE;}
	.st5{fill:#1082C5;}
	.st6{fill:#2FAAE1;}
	.st7{fill:#2B97C7;}
	.st8{fill:#0B6FA4;}
	.st9{fill:#93D8ED;}
	.st10{fill:#7DD2EF;}
	.st11{opacity:0.43;fill:#1077B5;enable-background:new    ;}
	.st12{opacity:0.81;fill:#FFFFFF;enable-background:new    ;}
	.st13{opacity:0.85;fill:#FFFFFF;enable-background:new    ;}
</style>
<g class="st0">
	<path class="st1" d="M167.4,298.72c-0.42,3.13-0.51,4.06-0.51,6.69c0,7.19,2.2,13.29,10.58,13.29c0.34,0,0.42,0.17,0.42,0.42V328
		c0,0.25-0.17,0.42-0.42,0.42c-11.09,0-16.67-6.69-18.2-16.76c-2.54,3.55-6.01,5.92-9.48,5.92c-2.12,0-3.98-0.76-5.42-2.03
		c0.17,1.86,0.25,3.72,0.25,5.5c0,13.29-6.18,24.29-20.73,24.29c-10.83,0-17.52-6.35-17.52-18.53c0-4.57,0.85-8.29,1.78-12.19
		c2.71,0,5.25,0.34,7.87,1.27c-0.76,2.79-1.44,5.92-1.44,8.8c0,7.45,3.81,11.25,11.42,11.25c3.13,0,6.6-1.01,9.65-2.96
		c0.42-1.78,0.59-3.72,0.59-5.58c0-6.18-1.44-12.19-3.72-18.45c2.29-2.2,5.67-3.98,9.9-4.15c1.69,2.88,4.91,3.55,7.02,3.55
		c4.23,0,8.55-3.64,9.82-8.63C161.9,298.8,164.1,298.55,167.4,298.72z M116.88,300.15c0,0,3.38-4.06,7.79-6.94
		c3.13,3.38,6.77,7.87,6.77,7.87l-7.7,6.6L116.88,300.15z M148.19,341.7c0,0,3.13-3.81,7.28-6.52c1.52,1.69,3.3,3.64,4.57,5.16
		c0.93-1.1,3.55-3.89,6.86-6.01c2.96,3.13,6.43,7.36,6.43,7.36l-7.19,6.26l-4.65-5.08l-6.77,5.92L148.19,341.7z"/>
	<path class="st1" d="M186.86,319.19c-0.85-1.44-1.27-3.13-1.27-5.25c0-6.35,5.25-16.67,17.18-16.67c4.23,0,8.63,1.95,11.42,4.74
		c-1.78,3.64-2.79,5.25-5.08,7.87c-1.78-1.52-4.4-2.79-7.36-2.79c-4.82,0-7.79,3.98-9.65,9.39c3.72,2.37,8.8,4.15,13.03,5.25
		c-1.44,5.33-2.37,7.45-4.32,10.24c-7.62-2.54-13.2-3.55-20.48-3.55h-2.88c-0.42,0-0.42-0.17-0.42-0.42v-8.89
		c0-0.25,0.08-0.42,0.42-0.42h3.89C181.86,318.69,184.66,318.6,186.86,319.19z M190.33,283.48c0,0,3.13-3.81,7.28-6.52l4.57,5.16
		c0.93-1.02,3.55-3.81,6.85-6.01c2.96,3.13,6.43,7.36,6.43,7.36l-7.19,6.26l-4.65-5.08l-6.77,5.92L190.33,283.48z M197.69,273.92
		c0,0,2.29-2.88,5.42-4.91c2.2,2.29,4.82,5.5,4.82,5.5c-1.61,1.1-5.25,4.65-5.25,4.65S198.45,274.85,197.69,273.92z"/>
	<path class="st1" d="M257.35,325.03c-2.03,8.29-8.8,16.76-17.69,22c-3.55-1.18-6.18-4.48-8.21-8.21
		c9.99-4.49,16.42-9.22,19.97-16.42c-1.44-6.94-4.4-11.85-8.21-17.6c2.62-2.71,5.42-4.57,9.65-5.16c2.37,4.91,4.4,12.1,4.91,17.86
		c2.12,0.93,4.15,1.19,6.6,1.19c0.34,0,0.42,0.17,0.42,0.42V328c0,0.25-0.17,0.42-0.42,0.42
		C261.92,328.42,259.12,326.98,257.35,325.03z"/>
	<path class="st1" d="M298.3,324.1c-1.18,1.52-2.54,2.96-4.32,4.32h-29.62c-0.25,0-0.42-0.17-0.42-0.42v-8.89
		c0-0.25,0.08-0.42,0.42-0.42h26.15v-0.68c0-6.6-9.14-12.1-21.83-11.59c0-4.91,0.76-8.04,2.2-10.66c12.52,0,26.49,7.11,28.01,21.41
		c2.37,1.18,4.57,1.52,7.28,1.52c0.34,0,0.42,0.17,0.42,0.42V328c0,0.25-0.17,0.42-0.42,0.42
		C303.38,328.42,299.99,326.56,298.3,324.1z M274.01,341.28c0,0,3.38-3.98,7.79-6.85c3.13,3.38,6.77,7.87,6.77,7.87l-7.7,6.6
		L274.01,341.28z"/>
	<path class="st1" d="M321.57,323c-1.01,2.12-2.2,3.89-3.3,5.42h-12.1c-0.25,0-0.42-0.17-0.42-0.42v-8.89
		c0-0.25,0.08-0.42,0.42-0.42h8.63c1.44-3.89,2.45-9.14,2.54-14.56c4.15-0.68,7.28,0.08,10.32,1.78c-1.1,4.23-2.29,8.04-3.55,11.42
		c3.13,1.18,6.18,1.35,10.24,1.35c0.34,0,0.42,0.17,0.42,0.42V328c0,0.25-0.17,0.42-0.42,0.42
		C329.61,328.42,323.69,325.96,321.57,323z M308.88,291.18c0,0,3.13-3.81,7.28-6.52l4.57,5.16c0.93-1.02,3.55-3.81,6.85-6.01
		c2.96,3.13,6.43,7.36,6.43,7.36l-7.19,6.26l-4.65-5.08l-6.77,5.92L308.88,291.18z"/>
	<path class="st1" d="M346.7,325.63c-0.17-1.02-0.25-1.95-0.34-2.96c-2.62,3.47-6.43,5.75-12.02,5.75c-0.25,0-0.42-0.17-0.42-0.42
		v-8.89c0-0.25,0.08-0.42,0.42-0.42c8.04,0,9.48-5.75,9.99-16.33c1.27-2.2,3.55-4.99,5.5-6.43c10.16,0,21.58,6.01,21.58,18.87
		c0,1.69-0.17,3.81-0.85,6.43c-1.69,2.88-4.65,6.01-7.19,8.04C357.7,329.1,352.12,328.25,346.7,325.63z M349.5,316.66
		c3.98,1.69,8.38,2.71,12.53,2.71c0.34-0.85,0.59-2.12,0.59-3.22c0-5.92-5.25-9.73-10.83-10.32
		C351.44,309.38,350.76,313.19,349.5,316.66z"/>
</g>
<g>
	<path class="st2" d="M222.92,69.04l-20.77,54.35l-44.19-9.87l30.33-44.47H222.92z"/>
	<path class="st3" d="M320.86,113.52l-44.19,9.87L255.9,69.04h34.75L320.86,113.52z"/>
	<path class="st4" d="M320.86,113.52L240,207.54l36.67-84.15L320.86,113.52z"/>
	<path class="st5" d="M276.67,123.39L240,207.54l-0.01,0.02h-1.17v-0.01l-0.01-0.01l-36.67-84.15H276.67z"/>
	<path class="st6" d="M238.81,207.54l-80.86-94.02l44.19,9.87L238.81,207.54z"/>
	<path class="st7" d="M171.2,128.93l60.63,62.6l6.98,16.01L171.2,128.93z"/>
	<path class="st8" d="M307.61,128.93l-60.63,62.6L240,207.54L307.61,128.93z"/>
	<path class="st9" d="M276.62,123.39H202.1l4.26-11.14l4.66-12.19l8.21-21.49l3.64-9.53h32.98l4.46,11.67l16.15,42.26L276.62,123.39
		z"/>
	<path class="st10" d="M229.55,123.39h-14.35l-8.85-11.14l4.66-12.19L229.55,123.39z"/>
	<path class="st10" d="M258.84,123.39h-10.92l-28.69-44.82l3.64-9.53h1.16L258.84,123.39z"/>
	<path class="st10" d="M276.46,122.97l-34.54-53.93h10.92l7.47,11.67L276.46,122.97z"/>
	<path class="st11" d="M220.48,165.48c0,0,17.07,38.69,37.85,0L240,207.54h-1.19L220.48,165.48z"/>
	<path class="st12" d="M218.19,122.12l-12.01,4.48L203,139.02l-4.48-12.02l-12.42-3.18l12.01-4.48l3.18-12.42l4.48,12.01
		L218.19,122.12z"/>
	<path class="st13" d="M283.86,124.13l-5.54,2.06l-1.47,5.72l-2.06-5.54l-5.72-1.47l5.54-2.06l1.47-5.72l2.06,5.54L283.86,124.13z"
		/>
</g>
</svg>
